<svg width="31" height="31" viewBox="0 0 31 31" fill="none" xmlns="http://www.w3.org/2000/svg">
<g id="ep:close-bold">
<path id="Vector" d="M5.90907 5.90931C6.27241 5.54609 6.76513 5.34204 7.27888 5.34204C7.79264 5.34204 8.28536 5.54609 8.6487 5.90931L15.4997 12.7603L22.3507 5.90931C22.7161 5.55638 23.2055 5.36109 23.7135 5.36551C24.2215 5.36992 24.7075 5.57369 25.0667 5.93292C25.4259 6.29214 25.6297 6.77809 25.6341 7.2861C25.6385 7.79411 25.4433 8.28352 25.0903 8.64894L18.2393 15.4999L25.0903 22.3509C25.4433 22.7164 25.6385 23.2058 25.6341 23.7138C25.6297 24.2218 25.4259 24.7077 25.0667 25.067C24.7075 25.4262 24.2215 25.63 23.7135 25.6344C23.2055 25.6388 22.7161 25.4435 22.3507 25.0906L15.4997 18.2396L8.6487 25.0906C8.28328 25.4435 7.79386 25.6388 7.28586 25.6344C6.77785 25.63 6.2919 25.4262 5.93267 25.067C5.57344 24.7077 5.36968 24.2218 5.36526 23.7138C5.36085 23.2058 5.55614 22.7164 5.90907 22.3509L12.7601 15.4999L5.90907 8.64894C5.54585 8.28561 5.3418 7.79288 5.3418 7.27913C5.3418 6.76537 5.54585 6.27265 5.90907 5.90931Z" fill="#FF285C"/>
</g>
</svg>
