<svg width="264" height="206" viewBox="0 0 264 206" fill="none" xmlns="http://www.w3.org/2000/svg">
<path d="M16.9773 174.061C14.4957 172.11 12.4568 169.498 11.0325 166.445L10.3326 165.557C9.8558 165.139 10.025 164.304 9.56356 163.904C9.34076 163.594 9.10462 163.297 8.85603 163.015C8.20233 161.291 8.30231 159.461 8.21002 157.63C8.05621 154.698 9.2867 152.761 11.5708 151.143C19.8305 145.287 28.7285 140.649 36.5037 133.886C44.2789 127.124 52.9769 125.24 62.4133 124.591C70.8729 124.005 79.3326 123.09 87.7461 124.591C93.3525 125.587 97.6823 123.916 100.82 117.847C103.201 113.112 107.002 109.549 111.502 107.832C113.333 107.13 114.579 105.504 115.84 103.967C120.945 97.6064 126.663 91.9417 132.882 87.0831C136.981 83.9463 140.619 80.1163 144.357 76.4197C149.778 71.088 156.515 67.9157 162.56 63.5792C169.974 60.4869 176.026 54.5865 182.933 50.4278C184.986 49.1926 187.016 47.8774 189.023 46.5267C190.362 45.6381 191.869 44.6962 193.484 45.9847C193.984 48.304 192.43 49.2992 191.238 50.4278C189.068 52.4988 186.729 54.323 184.255 55.875C176.388 60.6735 169.643 67.3114 162.337 73.0341C155.031 78.7568 148.14 85.1992 142.357 93.0368C140.342 95.7648 137.473 97.3555 134.82 99.0883C129.4 102.755 124.413 107.217 119.985 112.364C118.385 114.141 116.747 116.034 114.602 116.807C110.603 118.247 107.919 121.481 105.473 125.045C102.929 128.686 99.9053 131.844 96.5134 134.402C93.0295 137.068 89.3688 138.258 85.7465 136.108C78.1636 131.594 70.3654 132.625 62.4364 133.709C61.9442 133.78 62.544 133.86 62.0749 133.771C51.7003 131.7 43.7944 138.152 35.627 143.857C31.0541 146.907 26.684 150.347 22.553 154.147C20.0689 156.528 18.9307 159.318 19.5998 163.131C20.1304 166.161 20.9687 169.218 20.1458 172.381C19.6844 174.336 18.7615 175.305 16.9773 174.061Z" fill="#DCB4D6"/>
<path d="M163.13 64.8941C160.399 66.8047 157.669 68.7241 154.931 70.6079C153.695 71.5307 152.411 72.3646 151.086 73.1049C148.228 74.4548 145.689 76.5719 143.68 79.2808C141.211 82.7375 137.751 84.7635 134.828 87.5627C134.007 88.4196 133.118 89.1871 132.175 89.8553C126.253 93.6408 121.808 99.4168 117.155 104.828C115.063 107.281 113.002 109.627 109.895 110.32C108.935 110.589 108.057 111.157 107.357 111.964C105.15 114.417 102.743 116.683 101.205 119.819C100.184 121.765 98.9133 123.521 97.4365 125.027C97.0922 125.435 96.6792 125.758 96.2228 125.975C95.7665 126.192 95.2766 126.299 94.7832 126.288C91.4763 126.155 88.1539 126.751 84.87 125.702C83.7815 125.48 82.6746 125.403 81.5708 125.471C79.6097 125.391 77.6332 125.702 75.7106 124.956C75.3634 124.808 74.9867 124.78 74.6262 124.876C72.5882 125.595 70.4271 125.098 68.4199 125.578C65.7589 126.208 63.0365 126.075 60.4063 126.777C59.6916 126.954 58.9589 127.014 58.2298 126.955C55.0556 126.746 51.8726 127.106 48.7935 128.021C48.1997 128.183 47.626 128.431 47.0862 128.759C44.0792 130.687 41.0875 132.642 38.0959 134.606C37.5315 134.894 37.0119 135.287 36.5578 135.77C34.3121 138.765 31.1743 140.213 28.2596 141.928C24.0358 144.238 20.0371 147.062 16.3315 150.352C14.983 151.611 13.379 152.452 11.671 152.796C11.3614 152.832 11.0613 152.94 10.7887 153.113C10.5162 153.286 10.2768 153.522 10.085 153.805C9.89313 154.088 9.75284 154.413 9.67253 154.76C9.59222 155.108 9.57354 155.47 9.61762 155.826C9.70178 158.228 9.44193 160.63 8.84856 162.935C5.76692 158.126 3.54711 152.655 2.31924 146.842C4.04963 145.065 6.16454 145.243 8.27177 145.118C9.85603 145.02 11.548 145.394 12.9784 144.407C18.2388 140.773 24.1682 138.622 29.1825 134.393C35.135 129.381 41.1875 124.387 48.4474 122.236C53.3002 120.797 58.4452 121.579 63.3595 120.175C73.1727 117.376 83.4934 119.739 93.2759 116.256C95.137 115.598 96.6751 114.976 97.7749 113.048C100.292 108.619 103.919 105.183 108.173 103.202C111.718 101.505 114.325 98.5015 116.632 95.2048C126.14 81.8624 138.401 71.4998 152.286 65.0719C157.669 62.5304 161.953 57.8119 167.275 55.1727C169.505 55.2349 171.12 53.6265 172.889 52.4358C175.05 50.9962 177.149 49.059 179.949 50.1343C180.979 53.6887 178.157 54.2041 176.619 55.0216C171.705 57.6519 167.59 61.5618 163.13 64.8941Z" fill="#E1B9DB"/>
<path d="M0.781247 137.432L0.619751 133.166C1.95791 130.963 4.23432 131.94 6.00315 131.078C11.9249 128.234 17.4698 124.547 23.1686 121.232C29.655 117.533 36.3974 114.465 43.3256 112.062C49.5473 109.84 56.1997 109.049 62.5521 107.157C72.0807 104.34 81.7786 101.825 90.5997 96.8842C97.3059 93.0987 103.212 87.296 108.103 80.818C118.94 66.4669 131.86 56.2212 147.787 51.325C155.785 48.8902 162.707 43.9939 169.974 39.8796C170.282 39.6443 170.609 39.4449 170.951 39.2842C171.286 39.0984 171.64 38.9639 172.005 38.8844C173.051 38.7066 174.173 38.1024 175.104 39.2754C175.412 41.3725 174.043 42.2789 172.889 43.2563C170.331 45.4219 167.657 47.3986 164.883 49.1745C161.382 51.418 158.077 54.0487 155.016 57.0299C154.714 57.2425 154.384 57.3984 154.039 57.4919C150.725 57.7407 147.748 59.3225 144.703 60.6643C144.388 60.8156 144.057 60.9202 143.719 60.9753C141.411 60.7265 139.689 62.406 137.743 63.3479C137.508 63.5985 137.25 63.819 136.974 64.0055C136.597 64.2898 136.166 64.4498 135.797 64.7519C135.553 64.9347 135.296 65.0923 135.028 65.2229C134.497 65.4548 134.009 65.8016 133.59 66.2448C133.369 66.4613 133.129 66.6518 132.875 66.8135C132.49 67.0217 132.124 67.2748 131.783 67.5688C131.591 67.7894 131.388 67.9971 131.175 68.1908C130.977 68.3893 130.766 68.5705 130.545 68.7329C130.366 68.9025 130.178 69.0598 129.983 69.2039C129.791 69.3727 129.576 69.5238 129.368 69.6748C129.16 69.8259 128.983 70.0214 128.783 70.1813C128.584 70.3413 128.414 70.5723 128.23 70.7589C128.045 70.9455 128.053 70.9722 127.961 71.0788C127.791 71.3276 127.614 71.5587 127.43 71.7897C127.245 72.0208 127.245 72.0385 127.161 72.1807C126.985 72.4711 126.795 72.75 126.592 73.016C126.492 73.1671 126.384 73.3004 126.276 73.4514C126.044 73.7502 125.787 74.0212 125.507 74.2601C121.147 78.7031 117.001 83.2973 113.656 88.7978C111.71 91.9879 109.442 94.6804 106.096 95.9067C104.46 96.5753 102.988 97.6911 101.805 99.159C96.1677 105.966 88.7309 108.152 81.2556 110.533C73.7803 112.915 66.0898 113.874 58.6453 116.265C56.3381 117.002 54.0309 116.745 51.7237 117.153C44.31 118.477 37.6499 121.872 31.336 126.422C25.3911 130.776 19.1618 134.544 13.0862 138.516C9.94843 140.497 2.75773 139.778 0.781247 137.432Z" fill="#EBC3E4"/>
<path d="M16.9779 174.06C18.8544 173.696 18.8544 173.696 19.1621 171.501C20.4925 170.959 21.177 172.114 21.8538 173.003C24.288 176.101 27.4797 178.27 31.0056 179.223C38.7731 181.578 46.3868 179.534 53.9312 177.828C60.8528 176.255 67.9819 175.722 74.8112 173.145C78.4027 171.786 82.4249 173.349 85.9395 174.531C92.882 176.926 100.097 178.097 107.342 178.006C114.802 177.89 122.331 177.366 129.699 179.259C133.598 180.263 137.651 180.974 140.989 183.888C148.795 195.254 159.008 198.631 170.821 194.996C176.25 193.326 181.772 191.957 187.078 189.718C191.939 187.656 195.538 184.279 197.361 178.459C198.43 174.993 199.622 171.572 200.891 168.196C202.006 165.228 203.559 163.619 206.851 164.09C211.55 164.765 216.357 164.09 221.094 164.739C222.286 164.917 223.64 164.579 223.978 166.516C222.255 169.377 219.479 168.8 217.056 169.182C215.835 169.325 214.602 169.223 213.411 168.88C210.335 168.036 208.874 169.768 208.112 172.958C207.147 176.91 205.999 180.799 204.675 184.608C204.133 186.422 203.228 188.063 202.033 189.396C200.838 190.729 199.387 191.716 197.799 192.277C192.323 194.303 186.955 196.72 181.134 197.315C178.575 197.696 176.067 198.439 173.666 199.528C165.476 202.798 157.277 201.989 149.056 199.715C148.672 199.164 147.987 199.315 147.518 198.826C147.118 198.231 146.411 198.399 145.941 197.937C143.373 197.227 141.327 195.405 139.235 193.708C137.008 191.962 134.946 189.952 133.083 187.709C132.221 186.634 131.268 185.808 129.899 185.977C129.461 186.43 128.791 186.252 128.361 186.723C128.127 186.791 127.886 186.821 127.646 186.812C123.031 186.963 118.34 187.096 113.802 185.923C108.073 184.457 102.313 186.492 96.5756 185.221C93.3224 184.502 90.277 182.946 86.9854 182.556C85.7851 182.253 84.6532 181.663 83.6631 180.823C82.7171 180.165 81.7404 179.579 80.7868 178.939C80.4154 178.689 79.9912 178.565 79.5618 178.579C79.1324 178.593 78.715 178.745 78.3565 179.019C76.8723 179.987 75.6033 181.427 73.8268 181.747C65.2287 183.933 56.4922 185.07 47.8095 186.625C42.6414 187.514 37.8579 186.412 33.0436 184.644C31.2978 184.004 29.5828 183.231 27.837 182.591C23.6757 180.799 19.9504 177.873 16.9779 174.06Z" fill="#D9B7D3"/>
<path d="M171.251 41.0082C168.652 42.6077 165.937 43.9495 163.453 45.8245C162.138 46.8109 160.377 47.0863 159.1 48.0816C154.993 51.2006 150.225 52.0803 145.68 53.7421C145.334 53.8665 144.911 53.8576 144.596 53.9997C135.79 57.723 127.446 62.3349 120.239 69.5149C117.44 72.3052 114.771 75.2021 112.134 78.17C111.656 78.6215 111.228 79.1376 110.857 79.7073C108.742 83.6972 105.474 86.2564 102.343 88.9845C100.098 90.9548 97.9416 93.0577 95.8834 95.2847C94.7294 96.565 93.3851 97.5945 91.915 98.3238C87.158 100.633 82.2772 102.586 77.3029 104.171C75.4033 104.757 73.4576 105.255 71.635 106.019C65.2518 108.685 58.4687 109.378 51.9701 111.484C50.2027 112.081 48.38 112.433 46.5406 112.533C44.5806 112.716 42.6796 113.396 40.9726 114.523C39.9856 115.128 38.9566 115.636 37.8963 116.043C28.5292 119.304 20.0695 124.804 11.533 130.136C8.22469 132.36 4.42655 133.419 0.604653 133.184C0.20851 132.39 -8.02432e-08 131.489 -7.9485e-08 130.572C-7.87268e-08 129.655 0.20851 128.754 0.604653 127.959L1.12763 128.155C2.9503 130.074 4.68836 128.581 5.61892 127.266C9.54881 121.632 15.3937 120.344 20.7232 118.078C25.7913 115.927 30.921 113.937 35.9814 111.76C39.6451 110.122 43.4395 108.904 47.3096 108.125C58.3218 105.91 69.0702 102.206 79.3332 97.0886C85.5395 94.094 91.9535 91.7036 97.0216 86.1054C99.3892 83.4282 101.577 80.5467 103.566 77.4858C106.771 72.8016 110.656 68.7966 115.048 65.6495C126.951 56.9038 139.762 49.9321 153.178 44.9003C159.486 42.5826 165.562 39.4966 171.305 35.6943C172.312 35.0012 173.32 33.9171 174.689 34.7346C176.373 38.2891 173.22 38.5645 171.989 40.1463C171.751 40.4484 171.513 40.7061 171.251 41.0082Z" fill="#EEC7E8"/>
<path d="M167.559 56.3637C165.946 57.3884 164.385 58.5188 162.883 59.7493C158.392 63.8725 153.27 66.5383 147.971 68.8753C146.443 69.4146 145.017 70.2796 143.764 71.4257C143.007 72.1361 142.175 72.7332 141.288 73.2029C138.992 74.5606 136.848 76.2377 134.905 78.1969C133.051 80.0363 130.952 81.5559 128.983 83.2442C125.403 86.4733 122.159 90.1709 119.316 94.263C117.152 97.1678 114.824 99.9047 112.348 102.456C111.193 103.529 109.869 104.335 108.449 104.829C106.806 105.436 105.313 106.49 104.096 107.903C103.664 108.402 103.178 108.835 102.65 109.192C101.17 110.228 99.9829 111.741 99.2359 113.546C98.9109 114.311 98.5137 115.032 98.0515 115.696C97.6633 116.341 97.1456 116.866 96.5428 117.229C95.94 117.591 95.2701 117.779 94.5907 117.776C92.2538 117.831 89.9379 118.299 87.7231 119.162C84.0367 120.307 80.2022 120.677 76.4025 120.255C74.1799 120.077 71.9958 120.45 69.7886 120.371C69.5429 120.335 69.2936 120.363 69.058 120.45C66.2202 121.934 63.0363 121.49 60.1215 122.565C58.3373 123.223 56.4531 122.814 54.6151 122.894C52.7761 122.869 50.9388 123.03 49.124 123.374C46.4974 124.112 43.9878 125.324 41.6872 126.964C37.2859 129.792 33.0657 132.982 29.0592 136.508C26.9113 138.402 24.5148 139.887 21.9608 140.906C20.1038 141.651 18.3521 142.708 16.762 144.043C14.5119 146.077 11.68 147.055 8.83297 146.78C7.23836 146.566 5.62292 146.72 4.08019 147.233C3.46767 147.349 2.8399 147.197 2.31904 146.807C1.95758 145.394 1.3654 144.043 1.49614 142.506C2.67353 141.739 3.991 141.303 5.34144 141.235C14.6317 141.608 21.9685 136.135 29.1208 130.385C35.0194 125.64 41.1642 121.197 48.1242 119.491C53.9383 118.069 59.9677 117.42 65.9125 116.541C68.7196 116.123 71.4651 115.448 74.2184 114.763C79.2326 113.537 84.2623 112.48 89.3381 111.644C93.0123 110.985 96.392 108.931 98.9436 105.806C101.889 102.421 104.904 99.0171 109.418 98.4217C110.91 98.2262 111.895 96.92 112.871 95.516C115.655 91.535 117.663 86.9231 120.677 83.1465C125.922 76.5707 132.575 72.2698 139.135 67.8712C143.629 64.9814 148.355 62.6007 153.247 60.7623C157.723 58.9851 161.384 55.0485 165.752 52.7648L166.728 52.1516C167.051 51.9454 167.395 51.7872 167.751 51.6807C171.412 50.4455 174.273 47.5753 177.48 45.3893C179.203 44.323 180.879 42.448 183.109 44.2074C183.617 46.3579 182.263 47.4864 181.033 48.1262C176.388 50.5432 172.173 53.9022 167.559 56.3637Z" fill="#E4BCDE"/>
<path d="M96.6218 45.0606C97.9062 44.2609 99.1674 43.3989 100.467 42.6614C105.504 39.8267 109.819 36.0501 112.726 30.3718C113.008 29.9167 113.325 29.4914 113.672 29.1011C119.663 21.9122 127.323 17.7357 134.89 13.3993C138.966 11.0623 143.473 10.9467 147.81 10.4491C156.12 9.45307 164.128 6.30974 171.244 1.25195C172.705 1.79401 174.374 1.42079 175.697 2.57599C176.842 4.8153 175.373 6.01492 174.212 7.20567C168.456 13.2152 161.446 17.3921 153.871 19.3264C143.827 21.93 133.975 25.1023 124.508 30.1941C118.125 33.633 111.588 36.1478 107.589 43.3989C106.843 44.5563 105.789 45.3991 104.589 45.7982C98.8829 47.9664 96.0374 53.4936 92.8919 58.6742C88.9236 65.2144 82.8095 68.4489 77.1416 72.3677C74.995 73.7415 73.1381 75.6472 71.7043 77.9482C67.8206 84.5062 62.1757 88.6116 56.2616 91.9794C53.4709 93.4763 50.4157 94.1975 47.3405 94.0854C40.8727 93.8988 34.7433 96.0137 28.4524 96.8935C23.3621 97.6238 18.1992 97.2745 13.2174 95.8627C13.8172 92.3082 15.5938 90.3977 19.3698 90.371C26.376 90.3266 33.336 89.1092 40.319 89.1981C50.6244 89.3225 59.3071 86.2834 65.6057 75.9399C68.4127 71.328 72.9502 68.4045 77.1416 65.5076C83.3402 61.2512 89.0851 56.5326 92.9919 49.326C93.9763 47.6554 95.5528 46.6246 96.6218 45.0606Z" fill="#FDDFF7"/>
<path d="M13.2552 95.6049C16.018 95.103 18.8299 95.076 21.5995 95.5249C25.514 96.2358 29.4285 95.1605 33.2892 94.4674C37.9959 93.6232 42.664 92.5836 47.463 92.8057C48.4089 92.8501 49.3702 92.317 50.3393 92.1659C53.8165 91.4732 57.1456 90.013 60.1448 87.865C64.2285 85.1992 67.2893 81.5026 70.2117 77.4771C71.9344 75.1045 73.4956 72.4831 76.2335 71.4434C80.271 67.7646 85.1776 65.5608 88.9845 61.4643C89.7598 60.7718 90.4711 59.9887 91.1071 59.1273C92.9605 56.1326 94.9139 53.2269 96.7443 50.2411C97.847 48.3468 99.4531 46.9183 101.32 46.1713C104.61 44.8942 107.441 42.3945 109.372 39.0624C110.763 36.8915 112.392 34.9381 114.217 33.2508C115.784 31.8503 117.672 31.0101 119.647 30.8338C120.991 30.5975 122.291 30.1019 123.492 29.3676C126.345 27.7059 129.206 26.0708 132.067 24.4091C133.947 23.3723 135.931 22.6082 137.974 22.1343C141.434 21.2457 144.849 20.0638 148.24 18.8464C149.395 18.3975 150.589 18.0994 151.801 17.9578C154.984 17.7488 158.089 16.7389 160.899 14.9987C162.714 13.8257 164.668 12.9282 166.559 11.9152C168.131 11.1028 169.572 9.98802 170.82 8.61845C171.976 7.14768 173.28 5.84112 174.704 4.72632C175.002 4.47704 175.247 4.15184 175.419 3.77586C175.591 3.39989 175.686 2.98322 175.696 2.55811L176.465 2.67363C176.919 3.14459 177.58 3.0113 178.065 3.38452C178.263 3.3512 178.465 3.38196 178.649 3.47338C179.626 4.91293 178.918 6.13922 178.234 7.29442C177.649 8.37314 176.895 9.31638 176.011 10.0758C168.882 15.7007 161.607 21.0502 153.309 24.1603C152.494 24.4742 151.628 24.5655 150.778 24.4269C141.196 27.5282 131.121 28.7811 122.469 35.2858C119.855 37.2496 116.455 37.4717 113.625 39.2579C112.334 40.0173 111.162 41.0204 110.157 42.2258L109.511 43.1144C109.321 43.4102 109.107 43.684 108.872 43.932C108.765 44.0564 108.642 44.1719 108.534 44.2963C108.322 44.5467 108.099 44.784 107.865 45.0072C107.765 45.1316 107.642 45.2471 107.534 45.3715C107.327 45.6292 107.104 45.8691 106.888 46.118C106.673 46.3668 106.665 46.3668 106.55 46.4912C106.327 46.7596 106.085 47.0063 105.827 47.2287L105.427 47.5664C99.8359 50.4455 96.752 56.1149 93.5834 61.6865C93.4449 61.9986 93.2828 62.2959 93.0989 62.5751C92.9293 62.8599 92.7389 63.1275 92.5298 63.3748C92.4375 63.4992 92.3299 63.6148 92.2299 63.7392C92.0452 63.9786 91.8474 64.2042 91.6377 64.4145C91.5454 64.53 91.4378 64.6278 91.3455 64.7433C91.1632 64.9711 90.9707 65.1876 90.7687 65.392C90.6764 65.5075 90.5764 65.6053 90.4841 65.7208C90.3918 65.8363 90.115 66.174 89.9227 66.3961C89.7305 66.6183 89.7305 66.6272 89.6382 66.7427C89.4562 66.9961 89.261 67.2365 89.0537 67.4625C88.9537 67.5869 88.846 67.6935 88.7461 67.8268C88.5346 68.0816 88.3057 68.3164 88.0616 68.5288C87.5637 69.0028 87.0094 69.3919 86.4158 69.684C79.2215 73.5719 72.9785 79.4691 68.2506 86.8431C61.8444 93.4544 54.0923 96.2713 45.7634 96.9644C38.7495 97.5509 32.0433 99.9146 25.1218 100.999C22.8146 101.363 20.4382 101.932 18.2003 101.301C14.0166 100.137 11.1634 102.305 8.47937 105.548C7.65648 106.544 6.94126 109.103 5.13397 106.615L5.34161 105.726C5.49172 105.432 5.67253 105.161 5.87996 104.918C7.04356 101.437 8.80704 98.2654 11.0634 95.596C11.7786 95.6404 12.5092 94.7518 13.2552 95.6049Z" fill="#FCDDF7"/>
<path d="M0.781211 137.432C1.1196 137.6 1.4503 137.778 1.79637 137.938C3.41909 138.702 4.91875 137.672 6.47994 137.538C8.04113 137.405 9.31777 138.631 10.8174 138.098C11.6319 137.8 12.4178 137.407 13.1631 136.925C18.6465 133.46 24.0683 129.87 29.3133 125.986C30.1592 125.422 30.9711 124.793 31.7435 124.102C32.8029 123.134 33.9759 122.344 35.2274 121.757C36.9039 120.868 38.6035 120.068 40.2955 119.242C45.1539 116.879 50.3343 115.522 55.5997 115.234C56.702 115.203 57.7938 114.978 58.8375 114.568C62.8981 112.844 67.1895 112.497 71.427 111.804C72.0395 111.791 72.6486 111.696 73.242 111.52C78.387 109.12 83.9549 108.569 89.1846 106.561C91.3118 105.891 93.3051 104.747 95.0525 103.193C97.7596 100.528 100.72 98.2616 103.512 95.7734C104.37 94.9746 105.351 94.3715 106.404 93.9962C108.305 93.3599 109.943 91.9527 111.018 90.033C115.102 83.4306 120.247 77.9567 125.476 72.5895C125.699 72.2874 125.976 72.0297 126.246 71.7009L127.015 70.8123L127.784 69.9237L128.553 69.0351C128.953 68.5285 129.637 68.6885 130.029 68.1464L130.798 67.2578C131.498 66.618 132.336 66.1915 133.013 65.5517C133.713 64.9119 134.551 64.4853 135.228 63.8455C135.628 63.339 136.312 63.499 136.705 62.9569C139.12 61.6773 141.427 60.1045 144.088 59.5447C147.533 58.425 150.917 57.0299 154.424 56.1324C161.43 51.3339 168.944 46.9885 176.034 41.8079C177.457 40.7682 178.865 39.4353 180.741 40.635C181.641 42.5632 180.38 43.3008 179.326 44.2427C176.096 47.2107 172.404 49.3878 168.974 51.9115L167.936 52.3202C167.59 52.4891 167.259 52.6668 166.929 52.8712C155.993 60.0956 143.949 64.6986 133.09 72.2607C125.769 77.388 119.524 83.4217 115.256 91.9791C113.425 95.6668 111.326 98.7147 107.227 99.088C104.504 99.3634 102.52 101.754 100.851 103.851C96.7675 109.023 91.484 110.96 85.8699 112.168C76.8565 114.088 68.0816 117.305 58.9528 118.673C57.6147 118.877 56.2765 119.028 54.9384 119.082C46.0019 119.446 38.4728 124.147 31.1821 129.434C27.0138 132.455 22.7225 135.13 18.3927 137.84C13.2176 141.125 7.28071 142.449 1.41952 141.626C0.840808 140.336 0.618047 138.872 0.781211 137.432Z" fill="#E7C0E0"/>
<path d="M149.079 199.724C149.663 199.537 150.309 199.075 150.825 199.226C153.255 199.937 155.716 199.59 158.169 199.688C158.782 199.656 159.397 199.677 160.007 199.75C163.714 200.55 167.283 199.795 170.828 198.595C173.535 197.706 176.265 196.818 178.995 195.991C179.572 195.749 180.17 195.585 180.78 195.503C187.178 195.298 192.9 192.081 198.876 190.02C199.768 189.716 200.583 189.168 201.252 188.423C201.922 187.677 202.426 186.756 202.721 185.737C204.246 181.397 205.568 176.965 206.682 172.461C206.853 171.636 207.08 170.828 207.358 170.044C208.658 166.578 209.104 166.347 212.38 166.996C214.687 167.449 216.995 167.325 219.302 168C220.086 168.238 220.912 168.214 221.684 167.933C222.457 167.651 223.146 167.123 223.67 166.409C226.4 163.584 231.307 163.21 234.76 165.565C232.079 166.942 229.222 167.804 226.3 168.116C225.531 168.213 224.808 168.116 224.093 168.284C219.825 169.315 220.632 168.755 218.802 172.585C213.753 183.236 206.143 191.971 196.891 197.733C191.84 201.011 186.333 203.249 180.618 204.344C175.927 205.233 171.236 205.935 166.36 205.082C161.484 204.229 156.67 203.305 152.009 201.474C150.917 201.194 149.908 200.591 149.079 199.724Z" fill="#DABAD3"/>
<path d="M234.76 165.574C232.453 165.494 230.215 165.85 227.923 165.654C226.531 165.539 225.093 166.134 223.67 166.409C220.486 166.685 217.41 165.521 214.241 165.521C211.073 165.521 208.089 165.921 205.066 165.156C204.763 165.111 204.454 165.171 204.18 165.329C203.906 165.487 203.679 165.737 203.528 166.045C202.93 166.943 202.457 167.945 202.129 169.013C200.898 172.87 199.575 176.682 198.283 180.565C196.499 186.03 192.792 189.122 188.286 191.122C185.204 192.512 182.005 193.528 178.742 194.152C177.165 194.449 175.633 195 174.189 195.787C171.374 197.315 168.259 197.564 165.237 197.92C162.546 198.207 159.835 198.153 157.154 197.76C152.624 197.129 148.856 194.463 145.541 190.953C144.664 189.967 143.712 189.075 142.696 188.287C141.646 187.532 140.782 186.476 140.189 185.221C142.234 183.56 143.672 185.586 145.134 186.51C147.595 188.065 149.894 189.967 152.67 190.748C153.002 190.8 153.328 190.883 153.647 190.997C154.109 191.175 154.555 191.397 155.016 191.593C155.331 191.682 155.642 191.792 155.947 191.921C157.041 192.367 158.228 192.414 159.346 192.055C164.368 192.219 169.379 191.448 174.189 189.771C174.689 189.549 175.196 189.371 175.727 189.158C176.04 188.976 176.361 188.813 176.688 188.669C177.165 188.385 177.65 188.127 178.134 187.852C187.147 183.835 192.277 175.989 195.246 165.778C196.538 161.335 197.93 160.331 201.913 161.335C211.742 163.797 221.401 161.335 231.138 160.527C238.098 159.922 242.766 156.368 245.95 149.357C246.903 147.251 248.126 144.736 250.856 144.834C252.171 146.051 251.625 147.624 251.441 149.108C251.256 150.592 250.672 152.085 251.056 153.667C247.759 158.354 243.401 161.892 238.467 163.886C238.059 164.392 237.352 164.179 236.929 164.703C236.736 164.777 236.531 164.805 236.329 164.783C235.844 165.201 235.144 165.023 234.714 165.592L234.76 165.574Z" fill="#D6B5D0"/>
<path d="M163.129 64.8943C166.37 60.5475 170.408 57.0899 174.95 54.773C176.949 53.7688 178.926 52.7025 180.11 50.3921L180.249 49.779C180.501 49.2162 180.846 48.7153 181.264 48.3039C185.217 46.0024 188.501 42.5457 192.115 39.6843C198.898 34.2549 201.836 34.1838 208.819 39.2667C210.634 40.5818 212.364 42.5012 214.81 41.0439C216.956 45.3714 217.656 50.2322 218.471 55.0751C219.019 58.5396 219.276 62.057 219.24 65.5785C219.24 68.7686 219.478 68.9819 222.101 69.133C223.201 69.1863 224.3 69.1952 225.392 69.2307C226.131 69.2112 226.853 69.477 227.446 69.986C223.362 73.7271 219.501 77.7703 217.217 83.4219C216.848 84.3105 216.156 85.0658 215.148 84.2039C213.403 81.3159 214.026 77.9303 213.756 74.7579C213.629 71.9549 212.956 69.2212 211.788 66.7604C210.042 60.5765 207.156 54.904 203.328 50.1344C201.467 47.7529 199.613 45.6291 196.407 47.0954C195.881 47.3446 195.299 47.3819 194.753 47.2013C194.208 47.0207 193.731 46.6327 193.399 46.1001C190.739 46.811 188.431 48.5083 186.07 49.9922C181.025 53.209 175.965 56.3547 171.158 59.9803C168.634 61.9309 165.944 63.5776 163.129 64.8943Z" fill="#DDB9D6"/>
<path d="M20.5615 84.7457L22.0996 83.6527C22.3171 83.4012 22.5511 83.1695 22.7994 82.9596C28.3643 78.4634 34.7373 75.4802 41.4414 74.2334C43.8717 73.7713 46.2942 73.1493 48.7629 73.407C52.6082 73.8157 55.992 72.1807 59.2682 70.1191C62.5444 68.0575 65.5976 65.2228 68.7123 62.6814C74.1912 58.0951 79.9862 54.0353 86.0392 50.5429C86.8082 50.1164 87.6388 49.8498 88.4386 49.5033C88.7155 49.29 88.9847 49.0649 89.2461 48.8279L90.0152 48.5791C91.8456 51.6004 89.8076 53.3154 88.2387 54.9682C85.5162 57.8473 82.1631 59.7312 79.1561 62.1749C72.8498 67.3111 66.9588 73.1404 60.1834 77.5035C57.9531 78.943 56.5381 81.2534 55.1461 83.5816C54.3028 85.1679 53.0496 86.4082 51.5635 87.1273C50.0773 87.8463 48.4332 88.0079 46.8633 87.5892C39.0497 85.9453 31.2745 86.9761 23.4839 87.8203C21.7458 88.0069 19.8232 89.0288 18.2928 87.0383L19.131 86.2119C19.3771 85.9453 19.6335 85.6906 19.9001 85.4477L19.977 85.3677C20.1213 85.1048 20.3229 84.8903 20.5615 84.7457Z" fill="#FEE9FC"/>
<path d="M18.3004 87.0474C20.2513 86.8363 22.19 86.4951 24.1068 86.0254C26.2702 85.4996 28.4804 85.2759 30.69 85.359C33.2586 85.2879 35.8581 85.6878 38.3806 84.737C38.9652 84.4983 39.5997 84.4765 40.1956 84.6748C42.4258 85.6256 44.8099 85.2079 47.1171 85.9544C50.0395 86.9141 52.4544 85.9544 53.954 82.6665C55.8151 78.5877 58.8145 75.993 62.3445 74.0736C64.9285 72.6696 66.9588 70.3059 69.266 68.4042C74.7494 63.8634 80.1174 59.1271 85.8777 55.075C87.019 54.236 88.0675 53.2393 89.0001 52.1071C89.379 51.6407 89.6643 51.0836 89.8358 50.4755C90.0072 49.8673 90.0606 49.2229 89.9921 48.5881C91.9681 46.9138 94.2104 45.7059 96.5907 45.0337C96.6367 46.0436 96.3634 47.0385 95.8216 47.8328C94.1403 50.2616 92.5718 52.7918 91.1227 55.4127C91.0497 55.5283 90.9645 55.6328 90.8689 55.7237C87.262 59.3404 83.8781 63.268 79.5406 65.8095C77.9169 66.81 76.3546 67.9383 74.8647 69.1862C73.0549 70.6435 71.2886 72.172 69.5659 73.7715C67.9993 75.1223 66.6219 76.7438 65.4822 78.5789C62.5254 83.5274 58.2835 87.2617 53.3695 89.2422C51.9756 89.7992 50.5144 90.0991 49.0397 90.1308C46.1327 90.2464 43.2795 91.5793 40.3186 90.664C39.9615 90.5483 39.5837 90.5483 39.2265 90.664C36.3426 91.757 33.3663 91.1794 30.4362 91.3482C29.4567 91.3529 28.4802 91.472 27.5215 91.7037C25.3296 92.3613 23.1609 92.1302 20.9383 91.9525C17.9082 91.7037 15.0935 92.4412 13.2016 95.6047C12.4325 95.9335 11.7404 96.6533 10.9944 95.6047C13.0862 92.3613 15.2242 89.1623 18.3004 87.0474Z" fill="#FEE4F9"/>
<path d="M0.604187 127.95C0.750308 125.355 0.242729 122.663 1.37325 120.201C3.81116 119.766 4.44949 117.153 5.61077 115.287C7.91795 111.395 10.8173 109.351 15.0702 109.067C24.5912 108.507 33.4815 104.366 42.6487 101.825C45.8556 100.936 49.0934 100.305 52.308 99.5944C67.5816 96.2265 79.9942 86.6562 91.8069 75.744C92.0844 75.4701 92.383 75.2262 92.699 75.0153L93.1758 74.7221C95.5599 73.6824 97.1596 71.6741 98.5593 69.2749C99.5129 67.6487 100.513 65.4716 102.874 66.7157C103.427 71.7452 100.567 75.2997 98.3593 78.783C94.9008 84.1482 90.2577 88.3406 84.9161 90.9215C80.9959 92.8821 77.3205 95.4404 73.9878 98.528C66.713 102.649 58.9305 105.446 50.916 106.819C45.2417 107.929 39.6912 109.762 34.3659 112.284C27.975 115.181 20.9996 115.927 14.6549 119.099C11.7934 120.389 9.26132 122.496 7.29501 125.222C5.75689 127.479 3.75734 129.798 0.711867 128.021L0.604187 127.95Z" fill="#F5CFED"/>
<path d="M5.11077 106.677C5.31309 106.816 5.54426 106.89 5.77985 106.89C6.22085 106.659 6.59471 106.285 6.85652 105.815C7.7717 103.149 9.67898 101.789 11.6555 100.323C13.009 99.319 14.3395 98.6792 15.7776 99.1768C19.6229 100.492 23.299 99.7189 27.0366 98.9013C31.2434 98.0127 35.4963 97.3552 39.6031 95.8978C40.19 95.6883 40.805 95.604 41.418 95.649C43.8706 95.7391 46.3215 95.4158 48.6934 94.6893C50.5902 94.1153 52.547 93.8491 54.5074 93.8984C55.6211 93.9435 56.712 93.5275 57.5837 92.7255C59.7203 91.0686 61.9533 89.584 64.2668 88.2824C65.5209 87.4091 66.7256 86.4445 67.8737 85.3944C73.7109 79.2541 81.14 75.4064 86.3311 68.333L87.8077 67.4444C88.0307 67.1423 88.3076 66.8846 88.5768 66.5558L89.3458 65.6672L90.1149 64.7786L90.8839 63.89L91.653 63.0013L92.4221 62.1127C95.929 55.6969 100.882 50.8451 105.711 45.9044L106.48 45.0158L107.25 44.1272L108.019 43.2386L108.788 42.35C110.926 41.0348 112.633 37.5337 115.617 40.706C116.224 43.0164 114.648 43.7362 113.387 44.456C106.465 48.4014 101.774 54.9949 97.5517 62.095C95.9597 64.7608 94.0371 67.1956 92.8297 70.1813C89.5842 74.8732 84.9853 77.6279 80.9092 81.1024C78.2875 83.365 75.8544 85.9056 73.6416 88.6912C73.4177 88.9915 73.1589 89.2547 72.8726 89.4732C72.2518 89.8086 71.6682 90.2293 71.1345 90.7261C70.8496 90.9567 70.5392 91.142 70.2116 91.277C67.9044 91.8013 66.1202 93.4097 64.3437 95.0536C57.0146 99.8699 48.5626 99.6033 40.6874 101.914C37.3882 102.882 33.9736 103.522 30.6358 104.429C25.8215 105.726 21.0303 106.721 16.0699 106.383C12.0708 106.117 9.30214 108.276 7.40256 112.222C6.66896 114.033 5.62201 115.65 4.32631 116.976C3.21887 117.971 2.85743 117.678 2.44983 115.669L2.54211 114.781C2.92664 114.265 2.79589 113.519 3.15735 113.004C3.39386 110.753 4.06116 108.592 5.11077 106.677Z" fill="#FAD8F3"/>
<path d="M231.153 70.8303C234.721 71.0436 237.775 72.803 240.689 75.0068C243.596 78.5613 243.85 83.1732 244.104 87.6696C244.296 91.0107 242.674 93.2412 240.09 94.5919C237.505 95.9425 234.745 97.3821 232.53 99.6836C232.209 99.9767 231.858 100.222 231.484 100.412C231.12 100.627 230.739 100.8 230.346 100.928C224.57 102.385 219.832 97.5509 219.579 90.3887C219.348 83.3864 221.932 77.7882 225.539 72.6164C226.155 71.6186 227.049 70.8962 228.071 70.5709C229.094 70.2456 230.182 70.3372 231.153 70.8303Z" fill="#E5C4DE"/>
<path d="M171.243 1.25161C171.09 1.93923 170.802 2.5771 170.402 3.11624C170.002 3.65538 169.501 4.08146 168.936 4.36176C167.129 5.53473 165.345 6.7699 163.553 7.91622C161.517 9.2202 159.281 10.0533 156.97 10.3688C153.824 10.7687 150.694 11.3907 147.587 12.146C145.682 12.6333 143.739 12.9012 141.788 12.9458C139.412 12.9458 137.274 14.1632 135.121 15.114C133.302 15.9557 131.543 16.9599 129.86 18.1175C125.838 20.7833 121.877 23.5914 117.855 26.2572C116.808 26.986 115.845 27.8637 114.987 28.8697C114.92 28.988 114.833 29.0895 114.732 29.1681C114.631 29.2468 114.517 29.3011 114.397 29.3276C114.277 29.3541 114.154 29.3525 114.034 29.3227C113.915 29.2928 113.802 29.2355 113.702 29.1541C116.233 23.8224 119.801 19.5215 123.7 15.6383C129.089 10.1953 135.364 6.05034 142.158 3.44649C151.518 -0.21998 161.549 -0.976931 171.243 1.25161Z" fill="#FDE7FA"/>
<path d="M1.42743 141.679C2.74931 140.887 4.25311 140.595 5.72647 140.844C9.99475 141.351 13.7016 139.485 17.2624 137.139C19.285 135.788 21.3384 134.517 23.4148 133.282C26.245 131.585 29.0751 129.905 31.8745 128.084C35.9197 125.418 40.1496 123.143 44.364 120.833C47.1711 119.295 50.3088 118.913 53.3236 118.762C57.6002 118.43 61.848 117.714 66.0284 116.621C72.5193 115.11 78.8332 112.764 85.2549 110.738C86.7695 110.182 88.3101 109.725 89.8692 109.369C93.1205 108.734 96.12 106.945 98.4519 104.251C100.07 102.51 101.786 100.895 103.589 99.417C104.774 98.4306 106.119 97.3909 107.604 97.4265C110.988 97.5064 112.649 95.0628 114.079 92.0948C114.941 90.365 115.807 88.6588 116.679 86.9764C119.964 80.9294 124.636 76.0538 130.176 72.8919C134.859 70.0838 139.497 67.1869 144.019 64.0057C145.357 62.9937 146.808 62.1984 148.333 61.642C152.417 60.3713 156.024 57.8387 159.8 55.8571C162.314 54.4089 164.903 53.1417 167.552 52.0627C167.633 52.1207 167.695 52.2079 167.728 52.3108C167.761 52.4137 167.764 52.5264 167.736 52.6315C167.73 52.6934 167.71 52.7523 167.677 52.8022C167.645 52.8521 167.602 52.8913 167.552 52.9158C167.298 53.1913 167.044 53.4668 166.783 53.8044C163.168 55.9016 159.515 57.9187 156.262 60.7445C155.282 61.6088 154.151 62.2154 152.947 62.5217C147.28 63.9791 142.288 67.4269 137.243 70.6259C135.301 71.8476 133.422 73.1975 131.614 74.6691C126.484 78.8456 121.547 83.2442 118.109 89.5267C116.671 92.1925 114.91 94.5474 113.333 97.071C112.379 98.5869 110.949 99.6108 109.35 99.9235C105.504 100.768 102.759 103.478 100.121 106.535C99.3517 107.423 98.5365 108.312 97.8136 109.254C96.5095 110.79 94.8698 111.889 93.0685 112.435C90.8306 113.173 88.5234 113.635 86.247 114.212C86.0113 114.301 85.7607 114.322 85.5164 114.275C83.1246 113.448 80.902 114.488 78.6794 115.163C73.296 116.709 67.8588 117.625 62.4138 118.647C59.5145 119.189 56.6074 119.704 53.7081 120.219C53.4681 120.282 53.2234 120.318 52.9775 120.326C47.5941 120.059 43.0874 122.992 38.4269 125.658C34.7431 127.728 31.5053 130.447 28.1599 133.069C24.5302 135.987 20.6108 138.391 16.4856 140.231C12.9633 141.759 9.56408 143.021 5.80338 142.621C4.37293 142.47 2.93479 143.741 1.50434 142.621L1.42743 141.679Z" fill="#E6BFE0"/>
<path d="M2.15837 116.034C2.31218 116.825 2.70439 117.589 3.27349 116.621C4.26163 114.839 5.15539 112.991 5.94983 111.084C7.18801 108.276 9.34138 106.704 11.6332 105.309C12.0883 105.102 12.575 105.005 13.0636 105.024C13.7987 104.974 14.5357 104.974 15.2708 105.024C20.2082 105.371 24.9764 104.402 29.783 103.149C33.4514 102.198 37.0583 100.723 40.8882 100.608C41.86 100.471 42.8165 100.215 43.7414 99.8435C44.3159 99.5969 44.9114 99.4212 45.5179 99.3192C48.9633 99.2215 52.2626 98.2796 55.608 97.4532C57.1649 97.1335 58.6831 96.5995 60.13 95.8625C61.4528 95.1339 62.8371 94.5563 64.1984 93.9165C65.9595 92.2903 68.1898 91.766 70.1047 90.5042C70.8046 89.8644 71.6429 89.4379 72.3196 88.7981C80.2256 81.5114 89.3851 76.002 95.8605 66.6805C96.4989 65.7918 97.2756 65.0721 98.3907 65.7918C99.4674 68.5288 97.9447 70.2882 96.6834 72.2343C95.7913 73.6028 94.5224 74.5447 93.7302 76.002C93.4918 76.2953 93.215 76.5441 92.9612 76.8906C90.4233 79.3343 87.9546 81.8935 85.0783 83.8129C80.6255 86.7809 76.6187 90.6375 71.9043 93.0634C69.3511 94.3697 67.0362 96.3335 64.2137 96.9644C63.3669 97.1444 62.5609 97.5224 61.845 98.0752C59.5379 99.9413 56.9154 100.483 54.2083 100.741C53.8433 100.697 53.4746 100.721 53.1162 100.812C50.1092 102.509 46.7176 102.154 43.5722 103.309C38.804 105.086 33.8744 106.25 29.0139 107.69C28.068 107.974 27.1374 108.356 26.1915 108.659C23.9703 109.467 21.6764 109.98 19.3545 110.187C16.8012 110.338 14.2941 111.076 11.6639 111.076C10.172 111.076 9.2337 112.373 8.45695 113.653C6.64967 116.656 4.22714 119.18 3.07355 122.716C2.95868 122.865 2.81747 122.983 2.65955 123.063C2.50162 123.142 2.33069 123.182 2.15837 123.179C1.96925 123.16 1.79389 123.057 1.67015 122.891C1.54641 122.724 1.4842 122.509 1.49697 122.29C1.41237 121.588 1.37393 120.877 1.3201 120.175C1.42008 118.753 1.27395 117.26 2.15837 116.034Z" fill="#F8D3F0"/>
<path d="M231.153 70.8301C228.776 70.5901 227.246 71.8075 226.2 74.2868C225.435 76.0617 224.487 77.7236 223.378 79.2364C222.06 80.9433 221.363 83.1712 221.432 85.4567C221.517 86.7255 221.419 88.0021 221.14 89.2333C220.594 91.2149 221.186 92.8855 221.862 94.5649C222.364 95.7006 222.979 96.7651 223.693 97.7373C225.731 100.652 226.046 100.714 229.23 99.3368C229.583 99.215 229.943 99.123 230.307 99.0613C230.343 99.1436 230.398 99.2127 230.465 99.261C230.533 99.3093 230.612 99.3348 230.691 99.3348C230.771 99.3348 230.849 99.3093 230.917 99.261C230.985 99.2127 231.04 99.1436 231.076 99.0613H231.845C234.344 97.7817 236.621 95.4269 239.697 96.8665C240.881 98.7592 239.559 99.7189 238.482 100.421C237.405 101.123 236.475 101.949 235.498 102.767C232.637 105.584 228.999 106.739 225.769 108.765C225.55 108.893 225.317 108.988 225.077 109.049C220.063 110.48 210.534 100.305 211.303 94.3694C211.454 93.8054 211.636 93.2533 211.849 92.7166C212.011 92.2012 212.203 91.7036 212.38 91.1971C212.557 90.6906 212.695 90.2196 212.864 89.7309C213.195 88.7801 213.526 87.8293 213.887 86.8873C214.17 86.0786 214.591 85.3441 215.126 84.728L215.541 84.5147C216.51 83.4395 216.31 81.8489 216.787 80.5782C217.179 79.5385 217.348 78.2944 218.233 77.6991C220.224 76.3572 221.37 74.1446 222.655 72.1097C223.547 70.7057 224.5 69.9148 226 70.0125C226.485 70.0125 226.977 70.0125 227.469 69.9592C228.746 70.0125 230.068 69.7726 231.153 70.8301Z" fill="#E2BCDA"/>
<path d="M234.744 101.576C236.136 100.528 237.305 99.097 238.974 98.5194C239.365 98.2074 239.686 97.7933 239.912 97.3109C243.831 93.9809 246.794 89.3684 248.418 84.0706C248.589 83.692 248.846 83.3749 249.162 83.1539C249.478 82.933 249.841 82.8166 250.21 82.8176C253.563 85.6168 255.739 89.5622 257.785 93.561C260.469 98.8216 262.538 104.438 263.169 110.542C264.122 119.615 263.83 128.59 260.615 137.147C260.183 138.155 259.703 139.134 259.177 140.08C255.824 138.987 256.97 135.939 257.27 133.566C257.762 129.692 259.208 126.04 259.616 122.121C260.315 115.465 259.293 109.192 255.955 103.656C253.302 99.2659 251.902 98.9015 247.587 100.839C244.511 102.225 241.435 103.629 238.059 103.718C236.79 103.425 234.975 104.153 234.744 101.576Z" fill="#DCBCD5"/>
<path d="M186.04 6.83228C187.154 6.9967 188.188 7.58804 188.977 8.51175C189.339 9.09824 190.046 8.94718 190.454 9.40037C192.03 10.5467 192.038 12.1373 190.662 13.1592C179.71 21.3611 170.866 33.3485 157.707 37.525C157.015 37.8121 156.289 37.9797 155.554 38.0226C153.616 37.9071 151.563 38.4225 149.963 36.5742C148.886 34.0061 150.455 33.0197 152.016 32.0867C154.593 30.5049 157.454 29.483 159.207 26.5506C161.378 24.2416 163.829 22.3107 166.482 20.8191C171.62 17.7267 176.565 14.3766 180.802 9.72915C182.202 8.08672 184.055 7.06188 186.04 6.83228Z" fill="#F5D4F0"/>
<path d="M155.746 36.7431C159.592 34.9125 163.56 33.4641 167.128 31.1359C170.242 29.2107 173.166 26.9016 175.849 24.2492C180.11 19.8061 184.394 15.4075 189.608 12.4484C190.954 11.6842 190.915 11.5598 190.454 9.41821C191.869 9.85434 193.147 10.7484 194.138 11.9952C194.392 12.314 194.685 12.5893 195.007 12.8127C195.233 12.8352 195.455 12.9045 195.66 13.0171C195.905 13.2092 196.123 13.4429 196.306 13.7102C196.495 14.3188 196.486 14.9861 196.281 15.5877C196.076 16.1893 195.689 16.6842 195.191 16.9803C191.1 20.0638 187.893 24.5335 183.363 26.915C179.141 28.6922 176.203 32.771 172.281 35.1436C167.213 38.2448 162.176 41.4083 156.315 42.1547C154.777 41.0884 152.785 42.1014 151.386 40.5641C151.032 36.5387 154.393 38.1649 155.746 36.7431Z" fill="#F0D0EB"/>
<path d="M186.04 6.83235C185.996 6.96635 185.931 7.08984 185.848 7.19668C180.38 11.8974 175.612 17.6645 169.205 20.8991C165.945 22.5253 163.114 25.0667 160.184 27.3593C158.569 28.6212 157.016 30.0252 155.009 30.3806C154.47 30.4961 153.993 30.8249 153.47 30.9404C153.104 31.011 152.73 31.011 152.363 30.9404C151.032 30.2207 149.325 30.7183 148.218 29.2521C147.372 26.3463 148.887 24.6579 150.61 23.0318C155.416 22.5964 159.438 19.8328 163.422 17.0869C165.945 15.3097 168.321 13.3637 171.174 12.3418C171.982 12.0068 172.716 11.4732 173.328 10.7778C174.866 9.14274 176.288 7.39217 177.757 5.69492C178.275 5.08235 178.593 4.28169 178.657 3.42896C181.226 4.23759 183.817 4.9396 186.04 6.83235Z" fill="#F8DAF4"/>
<path d="M238.421 102.429C239.215 102.079 240.033 101.806 240.866 101.612C242.457 101.448 244.002 100.906 245.404 100.021C247.596 98.5194 250.018 98.244 252.402 97.7552C252.824 97.6388 253.267 97.6657 253.676 97.8328C254.085 97.9999 254.444 98.3001 254.709 98.6972C258.042 102.879 260.117 108.193 260.623 113.848C260.611 114.275 260.645 114.702 260.723 115.119C261.985 119.118 260.885 122.93 259.954 126.724C259.693 127.808 259.185 128.777 259.462 129.985C259.739 131.194 258.978 132.127 258.747 133.202C258.232 135.539 257.801 137.894 259.193 140.08C257.539 145.328 254.739 149.993 251.064 153.622C249.649 153.294 249.349 152.085 249.603 150.743C249.964 148.824 250.51 146.949 250.979 145.065C250.21 143.643 250.679 142.284 251.256 141.04C254.163 134.766 255.771 127.897 258.024 121.33C259.562 116.887 257.178 108.89 253.81 106.135C253.259 105.682 252.633 105.365 251.972 105.203C251.31 105.041 250.627 105.037 249.964 105.193C245.642 106.082 241.382 107.334 236.998 107.859C236.514 107.958 236.018 107.944 235.54 107.815C235.061 107.687 234.61 107.448 234.214 107.112C233.037 102.483 236.883 103.798 238.421 102.429Z" fill="#D8B6D1"/>
<path d="M214.81 41.0082C214.756 41.8968 214.764 42.7854 214.041 43.2475C213.712 43.4526 213.347 43.5674 212.974 43.5828C212.6 43.5982 212.229 43.5139 211.888 43.3364C210.893 42.7593 209.93 42.1124 209.004 41.3992C207.335 40.1996 205.697 38.9377 204.013 37.7737C202.328 36.6096 200.637 36.7073 198.729 37.436C194.761 38.9466 191.615 41.9235 188.432 44.7759C186.67 46.3577 185.009 47.9394 182.887 48.7925C182.433 49.0089 181.991 49.2582 181.564 49.5389C181.179 50.081 180.464 49.8499 180.087 50.4275C177.234 51.117 174.544 52.5148 172.204 54.524C170.82 55.7059 169.374 56.71 167.536 56.399C169.595 54.3985 171.839 52.6671 174.227 51.2362C177.342 49.2901 180.441 47.2996 183.04 44.456C183.387 41.4436 185.955 40.8572 187.478 39.1244C190.312 35.7874 193.55 32.9437 197.091 30.6825C200.583 28.5765 203.951 28.0167 207.473 30.6825C208.542 31.5 209.642 32.6019 211.119 32.4598C212.537 34.4277 213.554 36.7388 214.095 39.2221C214.51 39.7197 214.333 40.5372 214.818 40.9993L214.81 41.0082Z" fill="#E0BDD9"/>
<path d="M180.848 41.0084C179.993 40.956 179.146 41.224 178.433 41.7726C171.512 47.6108 163.775 51.8051 156.062 55.9904C155.483 56.2009 154.883 56.3205 154.277 56.3459C158.053 52.0983 162.514 48.9882 167.028 45.9313C169.435 44.2963 171.712 42.3769 174.019 40.5996C174.376 40.2174 174.687 39.7809 174.942 39.3023C174.642 36.9563 176.288 36.201 177.549 35.2591C182.356 31.7046 187.347 28.4612 191.546 23.796C194.23 20.8102 198.029 20.0016 201.544 18.7842C203.027 19.8949 204.276 21.377 205.197 23.1206C205.458 25.511 203.897 26.1952 202.482 26.1952C196.86 26.1952 193.684 30.4961 190.369 34.7526C187.816 38.0138 184.901 40.7152 180.848 41.0084Z" fill="#E9C4E2"/>
<path d="M180.848 41.0086C182.702 39.4357 184.301 37.4541 186.655 36.7344C187.484 36.4209 188.174 35.7447 188.577 34.8505C189.831 32.3535 191.777 30.594 193.469 28.568C194.45 27.2941 195.666 26.2916 197.028 25.6348C198.39 24.9779 199.862 24.6836 201.336 24.7736C202.797 24.8625 204.335 24.9602 205.181 23.103C206.82 24.6376 208.107 26.6154 208.927 28.8612C209.101 29.2634 209.35 29.6155 209.657 29.892L210.326 30.7806C210.402 31.0008 210.436 31.2371 210.426 31.4738C210.593 31.8761 210.835 32.2311 211.134 32.5134C210.84 32.8787 210.458 33.1346 210.038 33.2485C209.617 33.3624 209.177 33.3293 208.773 33.1532C207.329 32.7946 205.987 32.0179 204.874 30.8962C204.474 30.4487 203.968 30.1483 203.421 30.0328C202.873 29.9174 202.308 29.9921 201.798 30.2475C198.791 31.4293 195.914 32.8156 193.453 35.3037C191.45 37.1367 189.535 39.0946 187.716 41.1685C186.439 42.7769 184.44 43.0169 183.048 44.4209C181.125 44.3231 179.572 45.5139 178.026 46.5891C175.719 48.1797 173.519 49.8592 171.289 51.5298C170.208 52.4487 168.901 52.9466 167.559 52.9516L167.559 52.063C167.833 51.7884 168.09 51.4914 168.328 51.1743C169.482 50.3657 170.635 49.5393 171.781 48.7395C175.004 46.5535 178.257 44.3231 180.848 41.0086Z" fill="#E4C1DD"/>
<path d="M201.505 18.8018C201.489 19.3625 201.316 19.902 201.01 20.3383C200.705 20.7745 200.285 21.0837 199.813 21.2188C199.221 21.3876 198.621 21.5209 198.029 21.7075C195.037 22.5366 192.334 24.3958 190.277 27.0392C188.606 29.101 186.643 30.8171 184.471 32.1132C181.202 34.2992 177.857 36.3874 174.942 39.2221L171.989 40.1107C172.942 38.3779 174.358 37.0095 174.942 34.9923C174.942 34.7879 174.942 34.5835 174.942 34.3792C175.003 33.9795 175.128 33.5966 175.311 33.2506C177.864 30.7359 180.202 27.8479 183.048 25.6619C184.576 24.5697 186.052 23.3831 187.47 22.1074C190.087 19.4861 192.835 17.0442 195.699 14.7941C195.955 14.5005 196.161 14.1539 196.306 13.7722C198.268 15.1407 200.236 16.5091 201.505 18.8018Z" fill="#ECCCE4"/>
<path d="M87.0696 182.627C89.1307 181.738 91.1533 182.52 93.176 182.858C95.9446 183.32 98.6978 183.889 101.466 184.244C102.44 184.276 103.412 184.123 104.343 183.791C106.01 183.317 107.746 183.259 109.434 183.622C111.364 184.075 113.279 184.12 115.225 184.413C117.886 184.822 120.539 185.106 123.215 185.301C124.754 185.417 126.222 186.341 127.73 186.901C125.792 188.261 123.562 188.465 121.408 188.891C117.794 189.611 114.179 190.402 110.48 190.251C104.349 190.031 98.3029 188.526 92.6376 185.808C90.7611 184.857 88.6231 184.368 87.0696 182.627Z" fill="#DBBCD5"/>
<path d="M27.9213 182.662C29.1472 182.597 30.3728 182.796 31.5359 183.249C34.0045 184.137 36.5194 184.759 38.9957 185.577C40.4188 186.009 41.9098 186.049 43.3486 185.692C46.3556 185.07 49.3319 184.155 52.4312 184.288C53.0448 184.337 53.66 184.224 54.2308 183.96C55.6415 183.07 57.2978 182.853 58.8451 183.355C59.2657 183.481 59.7038 183.507 60.1333 183.432C60.5627 183.357 60.9747 183.183 61.3446 182.92C63.0088 181.954 64.8733 181.545 66.728 181.738C67.3401 181.827 67.9615 181.763 68.5507 181.552C70.4118 180.574 72.1576 181.241 73.9341 181.809C70.0888 184.982 65.5667 186.448 61.037 187.674C56.7302 188.838 52.3543 188.829 47.963 188.749C42.5743 188.549 37.2486 187.348 32.1895 185.195C30.6259 184.715 29.1701 183.851 27.9213 182.662Z" fill="#DABFD6"/>
<path d="M250.241 82.8176C249.065 85.8655 247.311 88.638 247.088 92.1569C246.989 92.7161 246.767 93.2361 246.442 93.666C246.117 94.096 245.701 94.421 245.235 94.6095C243.481 95.5692 241.689 96.3867 239.913 97.2753L231.792 99.017C233.833 96.4392 236.366 94.4464 239.19 93.1966C242.489 91.7215 243.374 90.0154 242.628 86.0877C242.059 83.0842 241.982 79.9563 240.867 77.086C240.726 76.4026 240.68 75.698 240.728 74.9978C243.635 75.9753 245.796 78.3034 248.111 80.3295C248.356 80.5388 248.573 80.7871 248.757 81.067L248.803 81.1204C249.064 81.3652 249.308 81.6325 249.534 81.9201C249.795 82.1778 250.011 82.4977 250.303 82.7554L250.241 82.8176Z" fill="#E0C1DA"/>
<path d="M178.049 3.44661C177.753 3.48053 177.454 3.43391 177.177 3.31047C176.899 3.18703 176.65 2.9902 176.45 2.73572C176.745 2.71289 177.041 2.76466 177.317 2.88743C177.594 3.01019 177.844 3.20101 178.049 3.44661Z" fill="#F8DAF4"/>
<path d="M190.455 9.43598C190.164 9.43927 189.878 9.35992 189.62 9.20495C189.363 9.04997 189.142 8.82413 188.978 8.54736C189.264 8.56814 189.543 8.65795 189.798 8.811C190.052 8.96405 190.276 9.17694 190.455 9.43598Z" fill="#F0D0EB"/>
<path d="M2.87292 113.395C2.89054 113.726 2.84375 114.057 2.73595 114.365C2.62815 114.673 2.46209 114.948 2.24998 115.172C2.23345 114.841 2.28077 114.51 2.3885 114.202C2.49623 113.895 2.66168 113.619 2.87292 113.395Z" fill="#F8D3F0"/>
<path d="M214.81 41.0084C214.579 40.7965 214.394 40.5258 214.269 40.2176C214.143 39.9093 214.081 39.5717 214.087 39.2312C214.309 39.4518 214.489 39.7241 214.613 40.0304C214.738 40.3367 214.805 40.67 214.81 41.0084Z" fill="#DDB9D6"/>
<path d="M147.587 198.862C147.887 198.849 148.185 198.923 148.454 199.079C148.723 199.234 148.953 199.465 149.125 199.75C148.826 199.752 148.531 199.673 148.264 199.518C147.996 199.364 147.764 199.139 147.587 198.862Z" fill="#DABAD3"/>
<path d="M146.034 198.053C146.34 198.034 146.646 198.106 146.921 198.261C147.197 198.417 147.434 198.651 147.61 198.942C147.308 198.931 147.011 198.846 146.739 198.693C146.468 198.54 146.227 198.321 146.034 198.053Z" fill="#DABAD3"/>
<path d="M128.445 186.821C128.636 186.57 128.874 186.373 129.14 186.242C129.406 186.111 129.694 186.051 129.983 186.066C129.79 186.314 129.552 186.51 129.286 186.64C129.021 186.771 128.733 186.833 128.445 186.821Z" fill="#DBBCD5"/>
<path d="M234.744 165.574C234.936 165.298 235.183 165.079 235.465 164.939C235.746 164.798 236.053 164.738 236.359 164.765C236.153 165.022 235.903 165.226 235.625 165.365C235.347 165.505 235.047 165.576 234.744 165.574Z" fill="#DABAD3"/>
<path d="M236.959 164.686C237.146 164.425 237.382 164.216 237.648 164.074C237.914 163.933 238.205 163.862 238.498 163.868C238.31 164.128 238.075 164.336 237.808 164.478C237.542 164.619 237.252 164.69 236.959 164.686Z" fill="#DABAD3"/>
<path d="M9.51035 163.868C9.7383 164.059 9.92593 164.306 10.0591 164.593C10.1923 164.879 10.2677 165.196 10.2794 165.521C10.0506 165.331 9.86238 165.084 9.72908 164.798C9.59579 164.511 9.52097 164.193 9.51035 163.868Z" fill="#E1B9DB"/>
<path d="M234.006 106.695H236.959C236.775 110.249 233.206 110.782 232.399 113.75C225.616 119.571 218.986 125.622 211.103 129.47C206.681 131.629 202.251 129.941 199.783 124.929C196.314 117.891 195.561 110.827 199.544 103.682C203.597 93.5608 207.773 83.4218 207.404 71.8698C207.173 64.5743 203.813 58.8072 199.967 53.4044C198.783 51.7516 197.153 51.9471 195.553 52.5158C193.953 53.23 192.391 54.055 190.877 54.9861C186.901 56.6123 183.379 59.3314 180.11 62.1661C171.481 69.5949 162.245 76.064 154.224 84.4703C150.972 87.7218 148.045 91.3818 145.495 95.3825C143.703 98.3238 141.711 101.31 138.727 102.376C131.636 104.908 126.784 111.04 121.239 116.078C120.27 116.967 119.432 118.14 118.309 118.629C112.702 121.117 108.857 125.942 105.158 131.131C101.812 135.841 96.9673 138.24 92.4529 141.119C91.3291 141.903 90.0317 142.29 88.7201 142.233C87.4085 142.176 86.1398 141.678 85.0699 140.8C78.2176 135.139 70.7347 134.881 62.9133 136.827C62.5598 136.951 62.1893 136.996 61.8213 136.961C52.2465 134.997 44.9712 141.066 37.419 146.238C34.8811 148.015 32.4278 149.863 29.9515 151.694C23.3299 156.572 22.5916 164.694 25.8447 171.243C27.039 173.595 28.4522 175.788 30.0591 177.784C30.282 178.104 30.4172 178.495 30.4473 178.905C30.4774 179.315 30.4012 179.726 30.2283 180.085C27.1521 179.845 24.8449 177.721 22.2763 176.166C21.816 175.715 21.4348 175.166 21.1534 174.549L19.1539 171.563C19.4231 168.675 18.8232 165.876 18.2233 163.157C17.2235 158.625 18.7232 155.471 21.6918 152.84C25.4385 149.409 29.4083 146.317 33.5661 143.59C38.1804 140.666 42.641 137.37 47.0861 134.055C48.601 132.835 50.4161 132.211 52.2619 132.278C54.8459 132.393 57.43 132.278 60.014 132.278C61.4886 132.402 62.9709 132.237 64.3976 131.789C64.8571 131.581 65.352 131.499 65.8435 131.549C68.9197 132.064 71.919 131.265 74.9491 130.936C77.1618 130.727 79.3809 131.238 81.3554 132.411C83.3618 133.492 85.4334 134.404 87.554 135.139C90.5072 136.277 93.1066 135.459 95.4522 133.246C95.9564 132.626 96.5464 132.106 97.198 131.709C99.8051 130.669 101.505 128.341 102.958 125.942C104.742 123.001 107.38 120.992 108.98 117.9C109.379 117.346 109.951 116.998 110.572 116.931C113.912 115.902 116.936 113.812 119.301 110.898C121.877 107.876 124.684 105.122 127.491 102.34C128.394 101.603 129.345 100.95 130.337 100.385C133.375 98.235 136.389 96.0401 139.435 93.9074C140.49 93.1742 141.408 92.2044 142.134 91.055C144.465 87.3896 147.266 84.1564 150.44 81.4668C151.836 80.3071 153.141 79.0077 154.339 77.5836C156.762 74.6334 160.215 73.5582 162.86 71.0345C163.284 70.7578 163.687 70.4428 164.068 70.0926C167.09 66.0494 171.328 63.8723 174.835 60.5311C176.811 58.6739 179.218 57.4032 181.495 56.008C185.64 53.4666 189.247 50.0454 192.977 46.8198C193.151 46.6082 193.294 46.3651 193.4 46.1C194.622 46.2424 195.854 45.9707 196.945 45.318C199.137 43.8162 200.736 44.7493 202.413 46.6598C204.42 48.9524 206.028 51.5916 207.843 54.0442C210.236 57.4342 211.868 61.4539 212.595 65.7472C214.705 73.1941 214.228 81.2965 211.265 88.3447C209.004 93.8541 207.373 99.6567 205.566 105.371C204.259 109.476 205.128 111.769 208.781 112.746C213.764 114.061 218.779 115.154 223.601 111.315C226.184 109.426 228.916 107.822 231.76 106.526C232.315 106.359 232.897 106.359 233.452 106.526L234.006 106.695Z" fill="#D9B1D2"/>
<path d="M154.27 56.3636C154.194 56.4722 154.103 56.5654 154.001 56.6391C150.748 58.1231 147.464 59.4915 143.934 59.7759C147.187 57.8743 150.532 56.3103 154.27 56.3636Z" fill="#E9C4E2"/>
<path d="M143.934 59.7758C141.534 61.0998 139.32 62.9925 136.551 63.188C137.47 61.9989 138.615 61.0719 139.896 60.4798C141.177 59.8878 142.559 59.6468 143.934 59.7758Z" fill="#E9C4E2"/>
<path d="M135.075 64.0413C134.884 64.5398 134.575 64.9652 134.182 65.2674C133.79 65.5697 133.331 65.7362 132.86 65.7474C133.05 65.2489 133.359 64.8235 133.752 64.5212C134.144 64.219 134.603 64.0525 135.075 64.0413Z" fill="#E9C4E2"/>
<path d="M132.86 65.7471C132.666 66.2406 132.355 66.6605 131.963 66.9578C131.571 67.2551 131.114 67.4177 130.645 67.4266C130.839 66.9336 131.15 66.5144 131.542 66.2172C131.934 65.92 132.391 65.757 132.86 65.7471Z" fill="#E9C4E2"/>
<path d="M136.551 63.1882C136.377 63.4538 136.155 63.6714 135.899 63.8251C135.644 63.9788 135.362 64.0648 135.074 64.0768C135.248 63.8117 135.471 63.5945 135.726 63.4408C135.982 63.2872 136.263 63.2009 136.551 63.1882Z" fill="#E9C4E2"/>
<path d="M129.906 68.3152C129.735 68.5785 129.514 68.7947 129.262 68.9483C129.009 69.1019 128.73 69.1892 128.445 69.2038C128.617 68.9409 128.838 68.7251 129.09 68.5715C129.343 68.4179 129.621 68.3304 129.906 68.3152Z" fill="#E9C4E2"/>
<path d="M30.2359 180.059L29.4668 178.353C30.5666 176.416 32.4662 176.193 34.0812 176.176C43.8944 176.051 53.5845 174.141 63.367 173.608C67.6375 173.265 71.865 172.405 75.9795 171.039C79.4359 169.9 83.1188 170.084 86.4772 171.564C98.9205 177.26 111.779 175.483 124.592 174.914C127.307 174.789 130.06 174.727 132.559 176.069C137.443 178.682 142.672 180.512 147.094 184.191C147.44 184.395 147.787 184.609 148.14 184.795C148.49 184.971 148.821 185.195 149.125 185.462C150.663 187.603 153.908 188.128 153.516 192.002C150.824 191.649 148.246 190.548 146.002 188.794C144.134 187.47 142.349 185.968 140.227 185.177C138.973 183.764 137.689 182.511 135.712 183.116C135.343 183.134 134.977 183.019 134.666 182.787C131.044 180.788 127.145 180.397 123.231 180.032C122.385 179.952 121.546 179.668 120.7 179.526C119.995 179.297 119.257 179.24 118.532 179.357C116.778 179.98 114.902 179.98 113.148 179.357C112.178 179.167 111.19 179.122 110.21 179.224C106.365 179.224 102.597 179.179 98.7898 179.224C96.8284 179.247 94.8755 178.923 92.9988 178.264C90.184 177.304 87.2462 176.798 84.5391 175.509C83.1625 174.861 81.8859 176.06 80.5554 175.58C79.3941 175.163 78.4866 174.043 77.1562 174.087C76.1749 174.108 75.2011 174.29 74.2645 174.629C70.2848 176.127 66.1777 177.128 62.0134 177.615C60.2061 177.82 58.4757 178.753 56.6761 179.161C52.7155 180.05 48.7318 180.841 44.748 181.605C43.7731 181.736 42.7915 181.79 41.8102 181.765C40.7028 181.765 39.503 181.463 38.511 181.881C35.3886 183.222 32.843 181.534 30.2359 180.059Z" fill="#D6B3CF"/>
<path d="M183.048 25.6621C180.888 28.8339 178.41 31.6975 175.665 34.1928C175.45 34.5038 175.15 34.726 174.896 35.0814C172.281 36.5565 169.674 38.0494 167.059 39.6045C165.099 40.7951 163.056 41.7967 160.953 42.5991C159.868 42.9093 158.83 43.4098 157.877 44.0831C155.454 46.1002 152.624 46.9888 149.817 47.993C144.664 49.8905 139.618 52.1518 134.705 54.7642C130.567 56.9591 126.384 59.0207 122.577 61.8731C118.078 65.2943 113.271 68.1734 109.157 72.2788C106.98 74.447 105.388 77.1306 103.643 79.6809C102.651 81.1205 101.774 82.6667 100.828 84.124C100.567 84.6056 100.245 85.0398 99.8742 85.4125C97.1056 87.7584 94.7676 90.7442 91.7914 92.7702C91.1954 93.2751 90.5297 93.6596 89.8226 93.9076C86.8848 94.5297 84.5007 96.7512 81.6321 97.551C80.8209 97.8836 80.0339 98.2907 79.2788 98.7684C77.5082 99.7565 75.6932 100.634 73.8415 101.399C70.5423 102.545 67.5045 104.509 64.0822 105.237C61.7779 105.707 59.5189 106.437 57.3375 107.415C53.9787 108.78 50.4763 109.616 46.9245 109.903C43.3099 110.347 40.0029 111.822 36.6806 113.208C31.3818 115.412 26.1599 117.856 20.7765 119.695C17.2542 120.895 13.8549 122.663 10.4249 124.138C9.53951 124.645 8.79382 125.426 8.27157 126.395C6.89868 128.423 5.07149 129.978 2.98813 130.892C1.58075 131.514 1.02703 131.132 0.757859 129.283C0.726791 128.858 0.726791 128.43 0.757859 128.004C3.57262 127.115 5.98746 125.613 7.52558 122.574C8.59127 120.632 10.2051 119.176 12.0938 118.451C15.2777 117.02 18.3693 115.377 21.7762 114.523C26.3137 113.395 30.7512 111.733 35.2194 110.24C36.2798 109.871 37.3093 109.392 38.2956 108.81C39.5779 107.953 41.029 107.491 42.5101 107.468C42.7568 107.492 43.0053 107.459 43.2407 107.37C48.8856 104.802 55.0457 104.891 60.7829 102.927C64.5206 101.63 68.089 99.7014 71.742 98.0752C72.4265 97.7731 73.134 97.5421 73.8339 97.2844C78.0483 94.7607 82.4089 92.5658 86.6541 90.1133C92.5451 86.7099 97.0287 81.1383 101.382 75.6111C111.21 63.1705 124 55.875 136.758 48.7394C142.98 45.2649 149.502 42.0837 156.515 40.9818C158.823 40.1909 161.23 39.4889 163.537 38.5914C169.528 36.2544 174.704 32.2734 179.518 27.6348C180.508 26.602 181.733 25.9176 183.048 25.6621Z" fill="#F1CAE9"/>
<path d="M150.578 23.0941C150.278 25.3068 149.109 27.0751 148.364 29.0656C148.125 30.754 146.902 31.2161 145.803 31.7937C138.004 35.828 129.537 37.8807 121.931 42.5459C119.816 43.8433 117.224 44.3231 115.14 41.8528C114.01 40.6531 112.748 40.9642 111.479 41.4529C110.48 41.8617 109.488 42.2882 108.495 42.7058C111.067 38.6947 114.865 35.9679 119.116 35.0815C120.436 34.8031 121.698 34.2328 122.831 33.4021C127.409 30.0952 132.422 27.6703 137.674 26.2221C138.624 25.9381 139.594 25.7508 140.573 25.6622C142.768 25.4119 144.928 24.86 147.01 24.0183C148.187 23.6451 149.309 22.9964 150.578 23.0941Z" fill="#FDD8F5"/>
<path d="M86.3472 68.3157C85.2245 71.6269 83.2826 74.4827 80.7638 76.5265C76.7801 79.5566 72.6425 82.3202 68.5665 85.1905C68.3382 85.2963 68.0968 85.3593 67.8513 85.3771C68.6203 84.3196 69.3894 83.2266 70.2354 82.2047C71.3343 80.8997 72.3617 79.5167 73.3116 78.0638C74.6921 75.7388 76.6337 73.9341 78.895 72.8743C81.5329 71.7013 83.8939 69.8619 86.3472 68.3157Z" fill="#FDD8F5"/>
<path d="M105.542 46.1001C104.966 49.0947 102.82 50.6942 100.982 52.3826C98.6383 54.3671 96.5801 56.7662 94.8833 59.4915C94.2217 60.672 93.3183 61.6457 92.2531 62.3262C92.398 61.6481 92.6286 60.9983 92.9375 60.3979C94.3514 58.4315 95.5787 56.2955 96.5983 54.0265C97.0857 52.8686 97.8217 51.8743 98.7362 51.1385C100.967 49.4146 103.266 47.7974 105.542 46.1001Z" fill="#FDD8F5"/>
<path d="M153.532 192.001C152.363 189.54 149.994 188.714 148.364 186.883C148.141 186.572 147.864 186.323 147.595 185.994C147.08 184.884 145.849 184.031 146.664 182.44C148.141 181.196 149.379 182.156 150.74 182.875C152.832 183.977 154.586 186.012 157.077 186.021C161.907 187.23 166.698 187.39 171.39 185.266C171.874 185.017 172.374 184.813 172.866 184.582C178.603 181.303 183.149 176.584 185.94 169.857C187.601 167.725 188.101 164.925 189.201 162.464C190.132 160.393 190.808 158.021 192.916 157.017C194.877 156.324 196.453 157.968 198.299 158.163C198.791 158.163 199.283 158.163 199.783 158.11C200.296 158.048 200.813 158.066 201.321 158.163C202.786 158.281 204.256 158.281 205.72 158.163C206.27 158.112 206.822 158.194 207.343 158.403C210.819 160.322 214.265 159.78 217.725 158.296C229.554 157.648 237.859 149.588 245.665 140.524C246.502 139.478 247.181 138.276 247.673 136.97C249.695 132.1 251.856 127.319 255.002 123.285C258.147 119.251 255.64 116.007 254.286 112.444C253.087 109.289 251.003 109.032 248.519 109.44C244.412 110.116 240.274 110.462 236.214 111.413C234.675 111.52 233.507 113.501 231.768 112.613C231.818 112.138 231.958 111.682 232.177 111.277C232.396 110.871 232.69 110.526 233.037 110.267C234.376 109.12 235.66 107.894 236.967 106.712C238.505 105.566 240.32 106.019 241.974 105.513C244.343 104.793 246.742 104.171 249.141 103.629C250.23 103.429 251.331 103.34 252.433 103.362C252.804 103.362 253.172 103.449 253.513 103.619C253.854 103.789 254.162 104.037 254.417 104.349C257.94 108.418 260.208 113.11 259.801 119.091C259.751 119.796 259.624 120.492 259.424 121.161C257.886 126.386 256.312 131.605 254.702 136.819C254.363 137.882 253.957 138.916 253.487 139.911C252.718 141.688 251.818 143.377 250.972 145.109C248.842 146.513 247.942 149.144 246.511 151.232C245.081 153.32 243.85 155.675 242.574 157.905C242.222 158.574 241.749 159.146 241.187 159.583C240.626 160.021 239.989 160.312 239.321 160.438C237.782 160.749 236.244 161.469 234.622 161.327C234.131 161.287 233.638 161.353 233.168 161.522C229.769 162.77 226.199 163.276 222.64 163.015C222.384 162.976 222.126 162.976 221.871 163.015C220.107 163.588 218.307 164.001 216.487 164.25C214.688 164.339 212.88 163.513 211.027 164.197C210.427 164.311 209.814 164.274 209.227 164.09C207.551 163.797 205.951 163.13 204.159 163.566C203.298 163.77 202.275 163.113 201.337 162.802C198.191 161.753 197.422 162.1 196.653 165.876C196.049 168.625 195.109 171.261 193.862 173.705C192.6 176.277 191.219 178.769 189.724 181.169C188.493 183.151 186.594 184.386 184.864 185.657C182.745 187.369 180.385 188.641 177.888 189.416C177.665 189.727 177.365 189.949 177.119 190.304H176.35C176.127 190.615 175.827 190.837 175.581 191.193C170.091 193.172 164.346 194.038 158.6 193.752C157.5 192.721 156.008 193.93 154.909 192.863C154.593 192.348 153.932 192.508 153.532 192.001Z" fill="#D5B2CE"/>
<path d="M155.008 192.855C156.27 192.961 157.631 192.481 158.7 193.743C157.439 193.61 156.077 194.081 155.008 192.855Z" fill="#D6B3CF"/>
<path d="M153.531 192.002C153.819 192.014 154.101 192.1 154.356 192.253C154.612 192.407 154.834 192.625 155.008 192.89C154.72 192.878 154.438 192.792 154.183 192.639C153.927 192.485 153.705 192.267 153.531 192.002Z" fill="#D6B3CF"/>
<path d="M232.529 107.548C231.591 108.205 230.645 108.854 229.722 109.529C229.271 110.012 228.751 110.4 228.184 110.676C225.8 111.155 224.008 112.968 221.986 114.23C219.963 115.492 218.079 116.372 215.718 115.527C214.403 115.197 213.052 115.095 211.711 115.225C209.757 115.194 207.839 114.618 206.12 113.546C204.947 112.903 204.039 111.755 203.591 110.348C203.142 108.941 203.189 107.387 203.72 106.019C205.866 100.305 207.166 94.2452 209.55 88.638C210.888 85.4923 212.357 82.3733 212.026 78.6411C212.057 78.0726 212.199 77.5196 212.442 77.0238C213.081 75.1877 213.192 73.1623 212.757 71.2478C212.411 69.4706 212.626 67.5867 212.603 65.7473C214.241 67.3824 214.372 69.8083 214.61 71.9676C215.079 76.1263 215.933 80.285 215.556 84.5415C214.849 85.2168 215.556 86.4254 214.787 87.1007L214.018 90.513C213.749 90.7618 213.557 91.1083 213.249 91.4016C213.249 91.994 213.249 92.5627 213.249 93.1077C212.98 93.3565 212.788 93.7031 212.48 93.9963C212.365 94.5473 212.288 95.1071 212.126 95.6403C211.855 96.5086 211.867 97.4613 212.16 98.3201C212.453 99.1788 213.007 99.8847 213.718 100.305C216.418 102.083 218.594 104.553 221.07 106.606C223.239 108.383 223.754 108.516 226 106.846C227.119 105.982 228.332 105.292 229.607 104.793C231.446 103.999 233.176 102.904 234.744 101.541C235.813 102.758 237.175 102.287 238.436 102.429C237.736 102.98 237.059 103.593 236.329 104.073C235.348 104.678 234.545 105.606 234.021 106.739C233.614 107.21 232.914 107.023 232.529 107.548Z" fill="#DDB6D6"/>
<path d="M180.11 50.3923C180.284 50.1267 180.506 49.9091 180.762 49.7554C181.017 49.6017 181.299 49.5157 181.587 49.5037C181.413 49.7692 181.191 49.9868 180.935 50.1405C180.68 50.2942 180.398 50.3802 180.11 50.3923Z" fill="#E1B9DB"/>
<path d="M156.485 41.0082C156.054 41.8778 155.344 42.5162 154.509 42.7854C149.656 44.7937 144.857 46.9886 139.981 48.8724C136.037 50.4626 132.256 52.5485 128.707 55.0927C125.669 57.2076 122.431 58.9404 119.663 61.6063C118.286 62.9303 116.417 63.5168 114.81 64.5476C110.326 67.4267 106.765 71.4788 103.274 75.6997C101.132 78.4199 98.7877 80.9176 96.2678 83.164C95.2782 84.0049 94.3728 84.9705 93.5684 86.0432C90.8459 89.7131 87.2775 91.9524 83.4937 93.6053C80.9789 94.7071 78.4333 95.7379 75.9339 96.8931C75.2313 97.1301 74.5099 97.2849 73.7805 97.3552C74.391 96.0991 75.383 95.1493 76.5645 94.6894C78.2888 93.6567 79.9397 92.4682 81.5019 91.1349C82.1935 90.5666 82.9457 90.1036 83.7398 89.7576C86.9314 88.5757 89.577 86.3364 92.1995 84.0971C95.575 81.2791 98.2036 77.4294 99.7901 72.9805C100.559 70.7857 102.336 69.1417 102.551 66.6092C101.943 64.6009 102.713 63.0547 103.774 61.5618C104.443 60.5309 105.349 59.7368 106.389 59.2692C120.332 54.0975 132.56 44.3672 146.564 39.462C148.225 38.8755 149.91 38.2891 151.309 40.1551C153.055 40.1907 154.862 39.8797 156.485 41.0082Z" fill="#F3CBEC"/>
<path d="M151.317 40.1554C149.483 40.0811 147.661 40.5265 146.011 41.4528C142.527 43.1856 138.974 44.7318 135.367 46.1003C132.133 47.3886 129.049 49.1315 126.184 51.2898C122.921 53.7923 119.348 55.7069 115.587 56.968C112.995 57.7767 110.526 59.0651 107.988 60.1137C107.001 60.4883 106.091 61.0945 105.315 61.8941C104.54 62.6938 103.916 63.6699 103.482 64.7612C103.228 65.3921 102.89 65.9786 102.59 66.5384C101.365 67.4419 100.336 68.6579 99.5826 70.0928C98.1621 72.6699 96.1307 74.7211 93.73 76.0021C93.8915 74.2249 94.9836 73.0608 95.7373 71.6835C96.8639 69.9072 97.6862 67.8984 98.1598 65.7653C97.9881 65.1648 97.9509 64.5238 98.0518 63.9022C98.1527 63.2806 98.3883 62.6987 98.7366 62.2108C100.767 58.843 102.913 55.5729 105.127 52.3828C107.073 49.5747 110.18 49.557 112.903 49.2726C116.311 48.9413 119.624 47.8073 122.639 45.9403C130.402 41.1225 138.675 37.4931 147.249 35.1437C147.808 35.0519 148.376 35.0821 148.925 35.2325C149.274 35.3754 149.588 35.6131 149.841 35.9256C151.832 36.0234 153.686 37.1253 155.747 36.8143C155.063 37.3563 154.401 37.9339 153.686 38.4226C152.971 38.9114 151.932 39.2491 151.317 40.1554Z" fill="#F7CFEF"/>
<path d="M149.84 35.8899H149.071C148.848 36.2009 148.548 36.4231 148.302 36.7785C147.352 36.8568 146.407 37.0022 145.472 37.214C138.931 38.9877 132.588 41.6234 126.568 45.0693C125.153 45.9135 123.707 46.6688 122.308 47.5485C119.724 49.1653 116.882 50.1542 113.956 50.4543C112.264 50.6409 110.58 51.023 108.903 51.3429C108.298 51.4288 107.714 51.6539 107.186 52.0049C106.657 52.356 106.195 52.8258 105.827 53.3867C103.304 57.5188 100.359 61.3043 98.1901 65.7385C95.8829 68.502 93.7757 71.4345 91.3454 73.9937C87.7385 77.8058 84.0624 81.5647 79.6327 84.1683C78.6637 84.737 77.8561 85.6701 76.9256 86.3454C75.4951 87.3762 74.2646 88.9579 72.3112 88.7713C74.2892 85.9019 76.5386 83.2969 79.0174 81.0048C81.2045 78.9586 83.5178 77.0994 85.9389 75.4421C88.0539 73.9581 89.5535 71.6566 91.5377 70.0038C93.2381 68.3753 94.6777 66.4143 95.7906 64.21C98.5515 58.9939 102.281 54.6397 105.65 49.9922C106.583 48.7475 107.746 47.7611 109.053 47.1058C110.36 46.4506 111.778 46.1433 113.202 46.2067C115.92 46.1854 118.59 45.3887 120.977 43.8874C129.145 38.9912 138.081 36.0676 146.395 31.4913C148.408 30.4606 150.584 29.9249 152.786 29.9184H153.555C153.778 29.6074 154.078 29.3853 154.324 29.0298C155.651 29.1326 156.978 28.8259 158.169 28.1412C158.835 27.8166 159.521 27.5522 160.222 27.3503C159.207 29.4741 157.4 30.3716 155.739 31.4557C154.584 32.1859 153.392 32.8358 152.17 33.4018C151.163 33.8868 150.338 34.7684 149.84 35.8899Z" fill="#F8D3F1"/>
<path d="M152.793 29.9186C150.748 31.527 148.225 31.8824 146.064 33.2243C145.956 33.2865 145.818 33.2865 145.718 33.3575C137.866 38.396 128.937 40.5287 121.108 45.6471C118.781 47.2863 116.076 48.0645 113.356 47.8775C111.635 47.8034 109.922 48.1643 108.334 48.9349C106.928 49.4729 105.716 50.5357 104.889 51.9562C103.743 53.9556 102.497 55.8928 101.259 57.8211C100.62 58.8554 99.9213 59.8381 99.1669 60.7624C97.9443 62.1496 96.8936 63.7256 96.0446 65.4454C95.0371 67.5603 93.7758 69.5063 91.5225 70.0573C92.0672 68.8065 92.7108 67.6166 93.4451 66.5028C94.9716 64.1067 96.3861 61.6179 97.6827 59.0474C98.6132 57.1902 99.3977 55.3507 101.274 54.4799C101.936 54.1114 102.496 53.5357 102.889 52.8182C105.727 47.9849 109.833 44.3314 114.602 42.3947C114.812 42.2551 115.001 42.0782 115.163 41.8705C116.025 41.8705 116.886 41.7994 117.747 41.8705C119.601 42.0068 121.444 41.4558 123.008 40.2976C126.299 38.1283 129.796 36.4049 133.429 35.1614C138.443 33.3398 143.388 31.1182 148.364 29.0655C149.879 29.0478 151.409 28.9678 152.793 29.9186Z" fill="#FBD4F2"/>
<path d="M70.1042 90.5308C69.8643 90.9994 69.5452 91.4074 69.1659 91.7304C67.5355 92.5301 65.859 93.2144 64.1978 93.943C64.9038 92.9064 65.7993 92.063 66.8204 91.4731C67.8415 90.8831 68.9628 90.5614 70.1042 90.5308Z" fill="#F8D3F1"/>
<path d="M72.3035 88.7537C72.1235 89.2628 71.8203 89.7012 71.4302 90.0164C71.0401 90.3316 70.5796 90.5102 70.104 90.5309C70.284 90.0217 70.5872 89.5833 70.9773 89.2681C71.3674 88.9529 71.8278 88.7743 72.3035 88.7537Z" fill="#F8D3F1"/>
<path d="M231.052 99.0168C231.024 99.1088 230.972 99.1884 230.904 99.2447C230.835 99.301 230.752 99.3313 230.668 99.3313C230.584 99.3313 230.502 99.301 230.433 99.2447C230.364 99.1884 230.312 99.1088 230.284 99.0168H231.052Z" fill="#E0C1DA"/>
<path d="M214.81 87.0739C214.755 86.6074 214.795 86.1324 214.929 85.6877C215.063 85.2429 215.285 84.841 215.579 84.5146C215.635 84.9811 215.594 85.4561 215.46 85.9008C215.327 86.3456 215.104 86.7476 214.81 87.0739Z" fill="#DDB9D6"/>
<path d="M25.0684 172.381C23.7994 170.933 23.2457 169.049 22.7227 167.147C22.4281 166.36 22.3607 165.485 22.5305 164.65C22.8545 162.987 22.9659 161.277 22.8612 159.576C22.8664 158.733 23.0269 157.901 23.3318 157.135C23.6368 156.369 24.0793 155.686 24.63 155.133C29.0127 150.36 33.9708 146.347 39.3498 143.217C41.9723 141.679 44.5102 139.938 46.9942 138.116C49.1336 136.425 51.6871 135.575 54.2772 135.69C59.6606 136.001 65.0441 135.077 70.3659 134.197C73.9267 133.611 77.4336 133.717 80.6098 136.33C82.494 137.876 84.7935 138.632 86.7623 140.133C87.3972 140.587 88.1252 140.836 88.8713 140.857C89.6175 140.877 90.3549 140.667 91.0075 140.249C91.6766 139.893 92.3303 139.502 92.9994 139.138C95.6449 137.681 97.7214 135.05 100.613 134.082C102.664 131.647 104.715 129.212 106.766 126.777C106.915 126.552 107.047 126.311 107.158 126.058C109.019 122.77 111.303 120.246 114.756 119.153C116.756 118.522 118.432 116.896 119.947 115.217C120.887 114.097 121.931 113.101 123.062 112.249C124.911 111.115 126.476 109.45 127.607 107.415C128.434 105.975 129.668 104.913 131.099 104.411C132.821 103.673 134.559 102.963 136.251 102.127C139.104 100.723 141.635 98.9282 143.473 95.827C145.011 93.1611 146.872 90.6375 148.633 88.096C150.171 85.8478 152.278 84.2928 154.255 82.64C155.847 81.327 157.325 79.839 158.669 78.1969C160.201 76.3501 161.961 74.775 163.891 73.5228C168.651 70.2631 173.179 66.5727 177.434 62.4862C177.711 62.2059 178.004 61.9477 178.311 61.7131C181.764 59.2783 185.233 56.8257 188.693 54.4354C189.252 54.1464 189.838 53.9346 190.439 53.8044C190.931 57.5811 187.617 58.3808 186.363 60.7978C175.558 69.2041 164.968 77.877 155.278 87.9628C153.699 89.7684 152.357 91.8311 151.294 94.0853C148.594 99.4107 144.627 103.729 139.866 106.526C134.422 109.486 129.397 113.381 124.961 118.078C124.441 118.685 123.866 119.228 123.246 119.695C115.764 124.938 109.403 131.754 102.866 138.409C99.2057 142.142 94.3529 144.052 89.9077 146.451C87.1699 147.926 84.5243 147.082 82.4786 144.594C78.2488 139.467 73.0192 138.374 67.2436 139.262C62.7446 139.956 58.2456 140.809 53.7004 139.778C51.9393 139.378 50.6242 140.666 49.3014 141.555C47.4172 142.888 45.4561 144.141 43.6411 145.545C39.6728 148.575 35.9505 152.014 31.4669 154.147C30.3698 154.67 29.4184 155.532 28.7171 156.639C28.0158 157.746 27.5916 159.054 27.4909 160.42C26.9632 162.263 26.826 164.226 27.091 166.143C27.3602 168.631 27.1064 170.924 25.0684 172.381Z" fill="#D7AFD1"/>
<path d="M231.791 112.666L235.483 110.08C236.406 115.412 232.653 117.74 230.099 120.575C223.462 127.879 214.987 132.616 208.919 140.826C206.344 144.253 203.612 147.519 200.737 150.61C197.868 153.747 195.561 154.076 191.7 151.872C187.84 149.668 186.494 147.207 186.832 142.888C186.929 141.03 187.356 139.215 188.086 137.556C190.739 131.825 191.462 125.578 191.508 119.171C191.44 117.182 191.755 115.2 192.431 113.368C192.615 112.726 192.893 112.125 193.254 111.591C196.084 107.148 197.376 101.994 198.752 96.8844C200.014 92.2014 201.506 87.5806 202.39 82.7554C202.778 81.0008 202.89 79.1798 202.721 77.3793C202.529 75.6287 202.129 73.6471 203.813 72.3586C207.658 74.0737 206.943 77.9747 206.635 81.2448C206.059 87.4118 203.398 92.9567 202.021 98.9104C201.703 100.679 201.292 102.424 200.79 104.135C200.068 106.09 199.398 108.081 198.606 109.991C198.155 111.003 197.906 112.119 197.875 113.256C197.844 114.394 198.034 115.525 198.429 116.567C199.252 118.966 200.014 121.321 200.737 123.729C201.3 125.39 202.316 126.794 203.632 127.727C204.948 128.66 206.491 129.072 208.027 128.901C209.134 128.882 210.204 128.434 211.065 127.63C212.441 126.191 214.102 125.165 215.902 124.645C218.522 123.815 220.9 122.185 222.786 119.926C224.95 117.406 227.497 115.367 230.299 113.91C230.834 113.559 231.334 113.142 231.791 112.666Z" fill="#D4ACCE"/>
<path d="M25.0684 172.381C25.6791 169.242 25.9375 166.026 25.8374 162.811C25.8421 161.683 26.0906 160.574 26.5604 159.585C28.2292 159.372 28.5061 161.033 29.1905 162.171C31.69 170.844 36.2428 173.803 44.2026 173.439C56.2845 172.888 68.0434 169.946 79.8869 167.725C82.196 167.256 84.5714 167.504 86.77 168.445C93.2839 171.226 99.844 173.412 106.896 171.35C107.989 171.089 109.12 171.131 110.196 171.475C115.62 172.836 121.24 172.766 126.638 171.27C129.9 170.386 133.329 170.888 136.297 172.683C139.374 174.46 142.204 176.762 145.142 178.824C146.272 179.614 147.38 180.707 146.903 182.627L147.672 186.039C145.641 184.733 143.38 183.906 141.596 182.076C141.351 181.76 141.009 181.565 140.643 181.534C138.52 182.236 137.166 180.459 135.621 179.463C131.845 177.046 127.869 176.327 123.585 176.495C119.57 176.655 115.541 177.206 111.503 176.744C110.77 176.729 110.04 176.837 109.334 177.064C106.563 177.701 103.71 177.685 100.944 177.02C96.1295 175.918 91.3767 174.638 86.6547 173.03C82.9023 171.659 78.8966 171.502 75.0726 172.577C70.1029 174.14 64.9803 174.961 59.8299 175.02C57.1689 175.02 54.5003 175.758 51.8317 176.184C51.1216 176.402 50.3955 176.541 49.6629 176.602C45.2331 176.309 40.8649 177.188 36.4735 177.491C34.1664 177.659 31.913 178.699 29.552 178.379C27.9524 177.633 26.7065 176.602 26.245 174.469C25.9507 173.706 25.5535 173.001 25.0684 172.381Z" fill="#D6B1CF"/>
<path d="M200.783 104.135C200.56 100.99 201.29 98.0217 202.067 95.0627C202.982 91.5793 203.874 88.0959 204.82 84.6303C205.589 81.7423 205.397 78.8188 205.166 75.8864C205.087 74.6067 204.573 73.4153 203.736 72.5718C202.275 71.9409 201.967 70.3503 201.552 68.8752C201.136 67.4001 200.867 65.8539 200.398 64.4321C198.652 58.9672 197.645 58.2829 192.838 59.3493C192.304 59.3769 191.772 59.4481 191.246 59.5625C189.508 59.7669 187.816 61.3931 186.017 59.8291L190.447 53.8576C192.614 51.736 195.305 50.458 198.137 50.2054C198.497 50.1546 198.863 50.1969 199.207 50.329C199.552 50.4612 199.867 50.68 200.129 50.9696C201.806 52.8384 203.251 54.9678 204.42 57.2966C205.715 59.8761 206.869 62.5472 207.873 65.2941C208.577 67.2677 208.942 69.3801 208.95 71.5144C209.089 77.3042 208.153 83.0613 206.205 88.3981C204.582 93.1344 203.098 97.9418 201.506 102.705C201.303 103.206 201.061 103.685 200.783 104.135Z" fill="#D5B0CD"/>
<path d="M232.529 107.548C232.703 107.282 232.925 107.064 233.181 106.911C233.436 106.757 233.718 106.671 234.006 106.659C233.832 106.925 233.61 107.142 233.354 107.296C233.099 107.449 232.817 107.536 232.529 107.548Z" fill="#D8B6D1"/>
<path d="M193.399 113.519C192.891 115.701 192.632 117.951 192.63 120.211C192.415 126.591 191.746 132.918 189.123 138.676C188.154 140.8 188.247 143.066 188.008 145.287C187.973 146.008 188.122 146.725 188.438 147.348C188.754 147.971 189.223 148.472 189.785 148.788C191.348 149.903 192.999 150.846 194.714 151.605C196.429 152.316 197.829 151.774 199.252 150.05C204.635 143.483 210.273 137.156 215.802 130.723C216.657 129.706 217.669 128.883 218.786 128.297C222.293 126.52 225.1 123.543 228.145 120.948C231.191 118.353 232.883 114.523 235.198 111.324C235.364 110.936 235.46 110.513 235.482 110.08C237.02 109.121 238.497 108.303 240.358 109.076C241.176 109.425 242.08 109.387 242.873 108.97C245.242 107.29 247.895 108.241 250.348 107.574C250.713 107.516 251.083 107.516 251.448 107.574C253.194 107.681 254.524 108.525 255.139 110.507C255.641 112.249 256.353 113.9 257.254 115.412C258.885 118.078 258.623 120.744 256.893 123.241C255.824 124.787 254.793 126.377 253.671 127.861C252.955 128.833 252.353 129.908 251.879 131.06C250.84 133.469 249.725 135.841 248.802 138.303C247.821 140.766 246.289 142.882 244.365 144.434C242.801 145.791 241.323 147.275 239.943 148.877C234.953 154.4 228.644 158.066 221.831 159.398C220.491 159.57 219.141 159.618 217.794 159.541C214.406 160.567 210.846 160.567 207.458 159.541H205.95C204.278 158.858 202.454 158.858 200.782 159.541H199.306C199.083 159.852 198.783 160.074 198.537 160.429C197.831 160.34 197.159 160.033 196.591 159.541C195.661 158.677 194.549 158.115 193.369 157.914C190.738 157.541 189.469 154.742 186.955 152.885C187.501 159.105 189.916 164.917 186.462 170.337C183.894 173.119 181.079 174.478 177.634 172.505C177.392 172.087 177.258 171.597 177.247 171.094C177.236 170.591 177.349 170.094 177.572 169.662C179.595 166.107 179.356 162.1 179.303 158.11C179.203 149.233 180.741 141.182 185.978 134.073C189.054 129.905 188.962 124.049 189.754 118.753C190.115 116.407 189.7 112.951 193.399 113.519Z" fill="#D3ADCB"/>
<path d="M146.902 182.618C146.133 181.009 144.757 180.227 143.457 179.552C141.808 178.611 140.224 177.524 138.72 176.3C137.816 175.566 136.873 174.898 135.897 174.3C132.959 172.639 129.999 171.857 126.669 173.056C122.393 174.594 117.909 174.114 113.487 174.061C112.872 174.093 112.258 173.971 111.687 173.705C109.049 172.203 106.358 173.003 103.758 173.59C101.112 174.235 98.3736 174.171 95.7524 173.403C92.1452 172.493 88.6124 171.227 85.1932 169.617C84.306 169.106 83.3097 168.903 82.3246 169.031C79.7736 169.367 77.2417 169.875 74.7417 170.551C71.5193 171.564 68.2354 171.839 64.9669 172.39C63.9979 172.559 62.9981 172.55 62.0599 172.825C56.9478 174.365 51.6758 175.08 46.3941 174.949C45.0433 174.903 43.6938 175.083 42.3873 175.482C41.2642 175.883 40.074 175.966 38.9175 175.723C37.7609 175.48 36.672 174.919 35.7427 174.087C34.7737 173.199 33.7277 172.461 32.6664 171.706C31.2201 170.741 30.0241 169.346 29.203 167.666C28.3819 165.986 27.9659 164.082 27.9982 162.153C26.8677 159.176 27.183 156.35 29.6902 154.804C33.2355 152.618 36.7578 149.872 41.1722 150.948C41.7029 154.049 39.4342 154.555 37.8576 155.693C36.4733 156.688 34.0123 156.75 34.2276 159.247C34.3813 160.521 34.8422 161.719 35.5576 162.705C36.273 163.69 37.214 164.423 38.2729 164.819C41.4915 166.242 44.8951 167.026 48.3399 167.138C59.7527 167.467 71.1117 166.961 82.1785 163.219C88.1474 161.034 94.5455 160.96 100.551 163.006C106.142 164.917 111.557 168.48 117.771 167.76C120.693 167.423 123.662 167.28 126.399 166.063C130.245 164.33 133.728 165.174 137.289 167.245C140.265 169.022 142.78 171.484 145.564 173.518C148.448 176.993 151.555 180.21 154.478 183.631C155.454 184.768 157.016 185.621 156.431 187.772C155.222 187.517 154.082 186.938 153.101 186.083C151.222 184.527 149.125 183.355 146.902 182.618Z" fill="#D4ADCD"/>
<path d="M156.485 187.736C153.586 184.528 150.679 181.347 147.81 178.112C146.941 177.135 146.21 176.006 145.41 174.94C146.287 173.34 147.841 173.678 149.11 173.163C153.832 174.522 158.669 175.464 163.137 177.846C167.106 178.85 170.213 176.584 173.373 174.362C174.758 173.394 175.873 171.457 177.896 172.336C179.334 172.034 180.741 171.572 182.218 171.368C183.769 170.999 185.288 170.466 186.755 169.777C186.847 169.822 186.921 169.906 186.962 170.011C187.004 170.117 187.009 170.236 186.978 170.346C186.966 170.412 186.939 170.473 186.9 170.523C186.861 170.573 186.811 170.61 186.755 170.63C185.648 175.215 183.125 178.53 179.772 181.116C179.352 181.405 178.971 181.764 178.642 182.182C177.28 184.013 175.478 185.337 173.466 185.985C173.243 186.296 172.943 186.519 172.697 186.874C169.347 188.253 165.796 188.857 162.245 188.651C160.299 188.641 158.362 188.334 156.485 187.736Z" fill="#D2ADCB"/>
<path d="M186.755 170.675L186.755 169.786C186.809 167.822 186.563 165.832 187.078 163.904C187.229 162.932 187.152 161.932 186.855 161.007C186.416 158.67 185.947 156.341 185.547 154.004C185.416 153.178 185.359 152.338 185.378 151.499C185.368 151.215 185.427 150.935 185.55 150.689C185.672 150.444 185.853 150.244 186.07 150.112C186.294 149.997 186.545 149.974 186.781 150.046C187.018 150.119 187.226 150.284 187.37 150.512C189.408 152.929 191.7 155.062 193.399 157.843C191.531 159.62 190.815 162.206 189.923 164.579C189.177 166.805 188.105 168.867 186.755 170.675Z" fill="#D4ACCE"/>
<path d="M207.427 159.585C207.708 159.337 208.039 159.175 208.388 159.114C211.465 160.003 214.641 159.434 217.763 159.585C215.925 160.696 214.049 161.611 211.911 160.909C211.198 160.752 210.462 160.807 209.773 161.069C208.642 161.344 207.942 160.642 207.427 159.585Z" fill="#D4ACCE"/>
<path d="M200.783 159.585C201.535 158.957 202.439 158.62 203.367 158.62C204.295 158.62 205.199 158.957 205.951 159.585H200.783Z" fill="#D4ACCE"/>
<path d="M41.3108 151.054C40.1311 151.397 38.9682 151.812 37.827 152.298C36.4114 153.126 34.8593 153.596 33.2742 153.676C32.1651 153.735 31.1034 154.212 30.2518 155.035C28.7905 156.262 27.8446 157.808 28.0138 160.029C28.0676 160.731 28.0138 161.442 28.0138 162.144L26.5372 159.585C26.5372 156.031 29.0059 154.564 31.0208 152.805C31.9283 152.067 32.9409 151.52 34.0125 151.188C35.8037 150.594 37.407 149.412 38.6268 147.784C39.964 146.113 41.5879 144.781 43.395 143.874C45.4038 142.804 47.3464 141.574 49.2091 140.196C50.1045 139.456 51.1191 138.931 52.1929 138.652C53.2668 138.372 54.3782 138.344 55.4615 138.569C59.0684 139.289 62.7522 138.569 66.3514 137.832C71.0965 136.943 75.6262 137.174 79.8945 140.027C81.0835 140.742 82.131 141.734 82.9708 142.941C85.0164 146.06 87.0083 146.611 90.0615 144.887C93.8145 142.772 97.4906 140.444 101.159 138.178C101.984 137.569 102.744 136.847 103.42 136.028C104.337 134.879 105.37 133.862 106.496 132.998C107.319 132.376 108.016 131.558 108.542 130.598C110.283 127.675 112.674 125.348 115.464 123.863C118.031 122.506 120.397 120.692 122.477 118.487C124.585 116.336 126.692 114.168 128.845 112.071C131.698 109.298 135.075 107.574 138.366 105.673C143.408 102.745 147.604 98.1846 150.44 92.548C151.874 89.5715 153.834 86.9768 156.193 84.9326C158.787 82.8009 161.223 80.4231 163.476 77.8237C166.667 74.0471 170.52 71.2124 174.489 68.6532C176.231 67.6155 177.821 66.2693 179.203 64.6633C181.111 62.4526 183.435 60.7801 185.994 59.776L191.162 58.0698C191.777 60.2825 190.324 61.0378 189.124 62.0064C179.295 69.9735 169.864 78.5772 160.876 87.7762C159.014 89.8399 157.455 92.2411 156.262 94.8851C151.286 104.749 144.903 112.702 134.882 115.634C134.389 115.687 133.922 115.913 133.544 116.283C128.637 123.134 121.362 126.191 115.502 131.46C111.757 134.828 108.38 138.854 104.85 142.604C99.8131 147.935 93.43 150.797 87.2929 153.925C84.0551 155.577 80.256 153.294 78.5333 148.957C77.049 145.234 74.8572 143.981 71.5502 144.185C65.7592 144.55 60.0143 143.217 54.2618 143.119C52.6467 142.399 51.1855 142.435 49.932 144.07C49.7314 144.325 49.5099 144.557 49.2706 144.763C48.9416 145.059 48.5975 145.332 48.2401 145.58C48.0555 145.794 47.8555 145.989 47.6556 146.185C47.4556 146.38 47.3095 146.629 47.1326 146.851C46.9557 147.073 46.9711 147.082 46.8942 147.207C46.7449 147.465 46.5804 147.712 46.402 147.944C46.1484 148.312 45.8651 148.651 45.556 148.957C45.2545 149.269 44.9274 149.546 44.5793 149.784C44.3756 149.979 44.1597 150.158 43.9333 150.317C43.7166 150.498 43.4877 150.658 43.2489 150.797C43.0061 150.949 42.7477 151.065 42.4798 151.143C42.2256 151.198 41.9649 151.198 41.7107 151.143L41.3108 151.054Z" fill="#D4ACCF"/>
<path d="M177.895 172.381C175.836 174.342 173.653 176.124 171.366 177.713C169.436 179.125 167.259 179.428 165.129 179.952C164.765 180.031 164.389 180 164.039 179.862C163.688 179.723 163.375 179.482 163.129 179.161C162.214 177.322 160.522 176.664 159.115 175.553C155.154 172.425 151.017 169.617 146.972 166.667C141.665 162.748 135.305 162.491 129.375 160.767C128.222 160.429 127.284 161.424 126.261 161.869C119.032 165.005 112.241 164.134 106.011 158.758C102.435 155.675 102.166 152.396 105.742 149.437C110.111 145.82 113.433 141.27 116.847 136.552C120.016 132.402 123.677 128.791 127.722 125.826C130.152 123.942 132.905 124.049 135.566 124.049C142.088 124.049 148.51 124.573 151.84 132.758C152.403 133.868 153.068 134.905 153.824 135.85C156.946 140.506 161.03 141.75 165.821 139.547C166.952 138.961 167.844 137.895 168.313 136.57C169.627 133.667 170.283 130.426 170.22 127.15C170.128 122.334 168.505 120.041 164.468 119.499C159.03 118.815 158.315 117.9 158.753 111.76C159.092 107.05 159.707 102.429 162.453 98.5903C163.202 97.6233 163.637 96.3858 163.683 95.0892C163.683 89.0466 166.806 85.3944 171.005 82.7552C173.542 81.1646 175.327 78.5343 177.565 76.7304C182.202 72.9716 185.555 67.6932 189.97 63.7122C196.807 62.2283 200.575 65.7472 199.875 72.9538C197.906 75.1576 197.191 73.0071 196.314 71.5409C195.714 70.5279 195.353 69.0706 193.984 69.2039C192.615 69.3372 192.092 70.8034 191.677 72.1541C189.624 78.4277 186.586 83.7061 181.256 86.9939C178.418 88.7712 177.457 91.8191 178.041 95.3202C179.003 101.043 179.187 106.872 179.795 112.613C180.133 115.829 179.41 118.789 178.864 121.836C178.626 123.169 178.211 124.991 179.487 125.711C180.764 126.431 181.341 124.689 182.056 123.827C186.67 118.273 188.462 110.835 191.392 104.189C194.638 96.5432 196.861 88.3725 197.983 79.9561C198.299 77.8234 198.222 75.3175 200.29 74.0024C203.72 75.3353 203.182 78.7387 202.644 81.3957C200.475 92.059 198.029 102.616 194.184 112.666L193.415 113.555C193.111 113.606 192.824 113.746 192.579 113.96C192.334 114.174 192.14 114.457 192.015 114.781C191.527 116.083 191.251 117.478 191.2 118.895C191.116 123.338 189.977 127.532 189.047 131.789C188.431 134.588 186.617 136.374 185.094 138.347C184.002 139.769 182.956 141.013 182.971 143.048C182.934 143.615 182.798 144.169 182.571 144.674C180.964 148.948 180.656 153.427 180.856 158.003C180.941 159.842 180.856 161.691 180.856 163.539C180.947 164.666 180.831 165.803 180.516 166.875C180.2 167.947 179.693 168.93 179.026 169.759C178.39 170.449 177.989 171.379 177.895 172.381Z" fill="#CFA8CA"/>
<path d="M194.138 112.666C194.092 110.889 194.753 109.369 195.184 107.761C196.368 103.318 197.922 98.9993 198.791 94.4318C199.621 89.9887 200.544 85.6523 201.298 81.2359C201.483 79.7023 201.529 78.1508 201.436 76.6062C201.408 76.1092 201.263 75.6305 201.018 75.2206C200.773 74.8108 200.437 74.4851 200.044 74.278C199.373 74.4854 199.116 74.1892 199.275 73.3894C199.248 71.9814 198.96 70.5965 198.429 69.3284C197.399 66.3072 195.73 64.3522 192.608 64.8854C191.63 64.9661 190.648 64.9661 189.67 64.8854C189.316 64.7986 188.999 64.5754 188.769 64.2524C188.54 63.9294 188.413 63.5258 188.409 63.1081C189.016 60.54 191.546 60.0957 192.623 58.043C193.069 57.8209 193.515 57.5543 193.977 57.3766C197.314 56.0525 199.214 56.9501 200.637 60.7977C201.463 62.711 202.083 64.7344 202.482 66.8225C202.759 68.7686 203.305 70.6614 203.736 72.5808C203.736 74.4202 203.636 76.2685 204.19 78.0546C204.522 79.1354 204.538 80.3122 204.236 81.4047C203.267 85.0391 202.436 88.7535 201.313 92.308C199.775 97.0976 198.822 102.083 196.968 106.748C196.122 108.801 195.522 110.969 194.138 112.666Z" fill="#D2ABCA"/>
<path d="M192.662 58.0696C192.598 58.7471 192.389 59.3955 192.053 59.9557C191.717 60.516 191.266 60.9703 190.739 61.2775C190.002 61.7041 189.39 62.3715 188.978 63.1969C188.301 66.0138 185.733 66.5381 184.241 68.3153C179.626 73.8869 174.389 78.561 169.159 83.2973C165.172 86.8658 162.004 91.5097 159.931 96.822C157.377 103.247 153.009 108.507 148.825 113.706C146.611 116.452 143.119 116.896 139.958 117.465C138.012 117.811 136.421 118.042 136.444 121.099C136.462 121.574 136.389 122.049 136.23 122.488C136.07 122.926 135.828 123.319 135.521 123.636C135.214 123.953 134.85 124.188 134.455 124.322C134.06 124.457 133.643 124.488 133.237 124.413C128.968 123.258 126.692 126.751 123.893 129.061C117.447 134.487 111.432 140.566 105.92 147.224C104.382 149.081 102.267 150.094 100.19 151.01C97.7599 152.085 98.0368 153.676 99.498 155.453C100.262 156.384 101.153 157.165 102.136 157.763C105.474 159.851 108.881 161.815 112.241 163.815C116.356 166.258 121.109 164.845 125.192 163.201C129.691 161.424 133.583 162.073 137.636 164.161C141.688 166.222 145.417 169.045 148.672 172.514C148.836 172.728 148.959 172.979 149.035 173.252C149.11 173.524 149.136 173.812 149.11 174.096C148.041 175.322 146.68 174.842 145.419 174.984C144.321 174.327 143.274 173.563 142.288 172.701C140.101 170.87 137.821 169.193 135.459 167.68C134.389 166.961 133.197 166.519 131.965 166.384C130.733 166.249 129.49 166.425 128.322 166.898C123.493 168.924 118.486 169.12 113.426 168.986C112.065 169.065 110.732 168.519 109.719 167.467C109.407 167.12 109.038 166.849 108.634 166.672C108.229 166.495 107.798 166.415 107.365 166.436C103.974 166.543 100.836 165.307 97.6907 164.072C96.8755 163.752 96.0372 163.504 95.2451 163.122C94.4709 162.686 93.6236 162.451 92.7627 162.435C91.9018 162.418 91.0481 162.619 90.2616 163.024C89.6073 163.425 88.886 163.658 88.1467 163.708C85.6242 163.646 83.3016 164.552 80.9713 165.485C77.5798 166.791 74.0498 167.262 70.5583 167.991C69.5839 168.129 68.6017 168.18 67.6205 168.142C65.412 168.056 63.2023 168.271 61.0373 168.782C59.5803 169.047 58.1018 169.118 56.6306 168.995C54.5388 168.995 52.4469 168.995 50.3628 168.995C46.1901 168.887 42.05 168.119 38.0578 166.711C34.5432 165.601 33.2666 162.126 31.9438 158.767C31.8184 158.357 31.8273 157.908 31.9691 157.506C32.1108 157.103 32.3754 156.774 32.7129 156.581C33.9664 155.685 35.2994 154.946 36.6889 154.378C38.3808 153.613 40.242 153.071 41.3033 151.072C41.7032 150.574 42.3876 150.725 42.7799 150.183L43.5489 149.295C43.9488 148.788 44.6256 148.948 45.0255 148.406L45.7946 146.7C46.0637 146.442 46.2791 146.122 46.5636 145.811L47.3327 144.923C47.7249 144.416 48.4171 144.576 48.8093 144.034C50.0936 141.999 51.9317 141.466 53.9774 141.475C57.4074 141.59 60.8143 141.404 64.2597 142.141C66.9975 142.728 69.8969 142.31 72.7193 142.328C73.9482 142.281 75.1757 142.458 76.357 142.852C76.9558 143.019 77.5071 143.362 77.9572 143.848C78.4074 144.334 78.741 144.946 78.9256 145.625C79.1102 146.3 79.364 146.958 79.5409 147.633C80.31 150.565 82.4326 151.703 84.6397 152.716C85.479 153.002 86.3817 152.897 87.1546 152.423C89.2267 151.52 91.2011 150.342 93.0379 148.913C94.9605 147.393 96.8293 145.776 99.2826 145.429C100.263 145.214 101.152 144.622 101.805 143.75C104.723 140.297 107.804 137.034 111.034 133.975C111.955 133.032 112.797 131.991 113.549 130.865C114.041 130.042 114.735 129.408 115.541 129.043C119.278 127.692 122.039 124.547 125.085 121.934C126.215 120.975 127.146 119.988 128.676 120.388C128.988 120.426 129.302 120.347 129.572 120.163C129.842 119.979 130.054 119.7 130.176 119.366C130.523 118.617 130.822 117.839 131.068 117.038C131.254 116.351 131.603 115.738 132.074 115.267C132.546 114.796 133.121 114.486 133.736 114.372C137.689 113.803 140.696 110.915 144.088 108.978C145.872 107.956 147.103 106.055 148.426 104.402C150.694 101.594 153.055 98.5282 154.655 94.7782C155.494 92.8817 156.426 91.0422 157.447 89.2688C157.862 88.5583 158.382 87.9385 158.985 87.4383C162.16 84.7665 165.15 81.8134 167.929 78.6054C169.828 76.3573 172.243 74.8555 174.574 73.2738C175.971 72.3803 177.245 71.2478 178.35 69.9148C180.821 66.7571 183.742 64.1122 186.986 62.095C188.57 61.1264 190.308 60.1312 191.185 58.0785H192.662L192.662 58.0696Z" fill="#D3ABCD"/>
<path d="M214.58 155.399C212.488 155.017 210.181 154.671 207.912 154.146C206.628 153.853 206.089 152.938 205.974 151.427C205.8 149.937 205.959 148.419 206.436 147.02C206.912 145.62 207.69 144.384 208.697 143.43C211.927 140.542 214.595 137.032 217.518 133.824C218.596 132.676 219.771 131.655 221.025 130.776C224.347 128.35 227.477 125.631 229.723 121.783C230.199 120.966 230.838 120.281 231.384 119.526C231.96 118.601 232.741 117.872 233.645 117.415C234.549 116.959 235.542 116.792 236.521 116.931C237.372 117.071 238.24 116.984 239.057 116.676C239.874 116.368 240.62 115.847 241.235 115.154C242.099 114.356 243.071 113.728 244.112 113.297C245.773 112.471 251.226 113.679 252.487 115.074C252.892 115.51 253.184 116.068 253.329 116.685C253.475 117.302 253.468 117.954 253.31 118.566C253.117 119.467 252.769 120.314 252.285 121.055C251.801 121.796 251.192 122.415 250.495 122.876C247.234 125.187 245.342 128.83 243.158 132.242C241.788 134.586 240.293 136.83 238.682 138.96C236.919 141.108 234.971 143.043 232.868 144.736C229.154 147.722 225.593 150.956 221.486 153.311C219.319 154.506 216.976 155.215 214.58 155.399Z" fill="#CFA7C9"/>
<path d="M149.102 174.06C146.648 172.185 144.164 170.364 141.757 168.418C138.473 165.752 134.713 164.499 130.937 163.237C130.464 163.08 129.968 163.045 129.482 163.136C128.997 163.226 128.535 163.44 128.13 163.761C126.414 164.873 124.496 165.501 122.531 165.592C119.978 165.867 117.463 166.578 114.84 166.392C112.695 166.241 110.687 165.894 109.334 163.646C108.565 162.384 107.319 162.064 106.158 161.655C103.946 160.789 101.842 159.594 99.8974 158.101C98.2285 156.901 97.2826 155.142 96.3366 153.329C96.1999 153.088 96.1123 152.814 96.0803 152.528C96.0483 152.241 96.0728 151.951 96.152 151.677C96.2312 151.403 96.363 151.154 96.5375 150.948C96.712 150.741 96.9246 150.583 97.1595 150.486C98.167 149.979 99.2437 149.597 100.282 149.197C102.38 148.368 104.282 146.984 105.835 145.154C108.465 141.973 111.218 138.934 113.902 135.806C114.531 134.933 115.264 134.167 116.078 133.531C119.193 131.576 122.073 129.16 124.646 126.342C125.415 125.453 126.407 124.778 127.153 123.863C128.391 122.343 129.675 121.641 131.367 122.867C131.836 123.215 132.386 123.389 132.943 123.365C133.499 123.341 134.037 123.121 134.482 122.734C134.875 122.534 135.187 122.167 135.351 121.708C135.516 121.25 135.522 120.736 135.366 120.273C134.482 116.416 134.559 116.274 137.966 116.087C141.031 115.848 144.036 114.985 146.841 113.537C147.978 112.994 148.933 112.04 149.563 110.818C151.77 106.904 154.252 103.207 156.985 99.7635C157.872 98.7869 158.526 97.5628 158.884 96.209C160.115 89.9887 164.098 86.0966 168.005 82.1956C171.62 78.5967 175.857 75.8864 179.08 71.7099C180.364 70.0482 182.156 68.9908 183.248 66.9736C183.728 66.3248 184.338 65.8215 185.025 65.5074C186.317 64.6988 187.655 63.9612 188.97 63.197L189.739 64.9032C188.408 67.1069 186.663 68.9552 185.671 71.4434C185.365 72.1498 184.933 72.7728 184.402 73.2708C183.872 73.7688 183.255 74.1304 182.594 74.3314C180.578 75.0554 178.869 76.6243 177.803 78.73C176.525 81.0237 174.635 82.7737 172.42 83.7151C170.381 84.7284 168.56 86.2449 167.082 88.1582C166.361 88.9463 165.812 89.9213 165.48 91.0027C165.148 92.0842 165.044 93.2412 165.175 94.3785C165.269 95.2811 165.197 96.1964 164.964 97.0646C164.731 97.9328 164.341 98.7344 163.822 99.4169C163.053 100.545 162.337 101.674 161.668 102.865C161.324 103.447 161.091 104.108 160.984 104.802C160.543 108.445 160.145 112.094 159.792 115.75C159.769 115.963 159.785 116.179 159.837 116.385C159.888 116.591 159.976 116.783 160.094 116.949C160.212 117.116 160.357 117.252 160.522 117.352C160.687 117.451 160.868 117.51 161.053 117.527C162.396 117.702 163.747 117.773 165.098 117.74C169.528 117.74 171.028 121.623 171.82 124.849C171.885 125.559 171.833 126.277 171.666 126.964C171.506 127.495 171.433 128.055 171.451 128.617C172.589 132.864 169.743 135.797 168.797 139.333C168.421 140.729 167.029 141.333 165.783 141.484C163.476 141.768 161.168 141.813 158.861 142.301C157.046 142.684 155.516 141.271 154.485 139.636C152.532 136.552 150.171 133.78 148.694 130.332C148.266 129.302 147.617 128.414 146.81 127.754C146.003 127.093 145.063 126.681 144.08 126.555C141.427 126.049 138.696 125.835 136.066 125.427C131.683 124.742 128.122 126.795 124.969 129.95C122.931 131.985 121.123 134.331 118.885 136.117C117.872 136.942 117.057 138.052 116.517 139.342C114.759 143.255 112.097 146.528 108.826 148.797C107.576 149.694 106.395 150.714 105.296 151.845C103.85 153.374 103.881 154.822 105.296 156.164C108.487 159.323 112.394 161.362 116.555 162.038C117.9 162.247 119.266 162.187 120.593 161.86C121.544 161.593 122.51 161.4 123.484 161.282C124.465 161.257 125.406 160.828 126.138 160.074C126.671 159.48 127.336 159.067 128.058 158.879C128.781 158.691 129.534 158.735 130.237 159.007C134.528 160.216 138.835 161.336 143.119 162.562C144.327 162.841 145.478 163.384 146.51 164.161C151.124 168.151 156.277 171.27 161.045 174.994C162.368 176.033 163.222 177.259 163.122 179.179L158.638 177.579C157.871 177.172 157.054 176.905 156.216 176.789C153.524 176.931 151.371 175.349 149.102 174.06Z" fill="#D1A9CC"/>
<path d="M53.8461 141.67L48.6781 144.23C50.4161 141.004 51.116 140.657 53.8461 141.67Z" fill="#D4ADCD"/>
<path d="M48.6933 144.23C48.5197 144.495 48.2972 144.713 48.0418 144.867C47.7863 145.02 47.5045 145.106 47.2167 145.118C47.3906 144.853 47.6132 144.636 47.8686 144.482C48.1239 144.329 48.4056 144.242 48.6933 144.23Z" fill="#D4ADCD"/>
<path d="M42.7875 150.201C42.614 150.467 42.3914 150.684 42.136 150.838C41.8806 150.992 41.5987 151.078 41.3109 151.09C41.4844 150.824 41.707 150.607 41.9624 150.453C42.2178 150.299 42.4997 150.213 42.7875 150.201Z" fill="#D4ADCD"/>
<path d="M45.0019 148.495C44.8283 148.76 44.6058 148.978 44.3504 149.132C44.0949 149.285 43.8131 149.371 43.5253 149.383C43.6992 149.118 43.9218 148.901 44.1772 148.747C44.4325 148.594 44.7142 148.508 45.0019 148.495Z" fill="#D4ADCD"/>
<path d="M199.306 73.4249L200.075 74.3135C200.099 75.8714 199.954 77.4267 199.645 78.9432C199.091 81.5468 198.806 84.2304 198.283 86.8429C196.479 95.5133 193.65 103.856 189.878 111.635C189.252 113.015 188.698 114.437 188.216 115.892C187.063 119.197 185.755 122.361 183.371 124.778C182.619 125.704 181.918 126.683 181.272 127.71C179.987 129.399 178.119 129.025 177.55 126.911C176.933 124.734 176.965 122.381 177.642 120.228C178.565 117.358 179.026 114.523 178.088 111.52C177.9 110.694 177.853 109.834 177.949 108.987C178.142 104.988 177.426 101.105 176.773 97.222C176.576 95.826 176.468 94.4152 176.45 93.001C176.327 90.0153 177.596 87.8915 179.526 86.1676C179.894 85.7868 180.302 85.4613 180.741 85.199C186.209 82.5332 188.709 77.0682 190.393 70.9812C190.595 70.0979 190.973 69.2814 191.496 68.5965C192.02 67.9116 192.674 67.3772 193.408 67.0357C193.909 66.743 194.486 66.6717 195.029 66.8353C195.573 66.9989 196.046 67.3862 196.361 67.9244C197.172 69.0041 197.704 70.3247 197.899 71.7365C197.94 72.1575 198.101 72.551 198.355 72.8562C198.609 73.1613 198.944 73.3612 199.306 73.4249Z" fill="#CEA6C8"/>
<path d="M140.612 153.622C137.428 153.551 133.69 153.934 130.106 152.796C129.76 152.689 129.337 152.796 129.007 152.689C123.769 151.508 122.6 148.966 124.708 142.915C125.6 140.338 127.338 138.143 128.776 135.806C129.191 135.093 129.776 134.534 130.46 134.197C132.89 133.184 135.367 132.296 137.828 131.585C138.322 131.484 138.832 131.566 139.285 131.818C139.737 132.07 140.11 132.479 140.35 132.989C143.35 138.01 146.457 142.959 149.241 148.095C151.548 152.37 150.863 153.534 146.633 153.578C144.795 153.622 142.95 153.622 140.612 153.622Z" fill="#CDA6C6"/>
<path d="M56.0921 165.539C53.3234 165.708 50.9394 164.89 48.5476 164.375C45.8097 163.779 43.7871 161.549 42.0721 159.043C41.9108 158.827 41.8221 158.551 41.8221 158.265C41.8221 157.98 41.9108 157.704 42.0721 157.488C43.1786 155.963 44.5695 154.748 46.1404 153.933C48.1187 152.783 49.8783 151.188 51.3162 149.242C53.0389 146.807 55.1077 146.398 57.5917 147.233C58.5333 147.561 59.517 147.696 60.4988 147.633C63.3597 147.402 66.0668 148.602 68.8892 148.691C69.1682 148.699 69.442 148.78 69.6908 148.926C69.9396 149.072 70.1573 149.28 70.328 149.535C70.4987 149.79 70.6183 150.086 70.678 150.401C70.7377 150.716 70.7362 151.042 70.6734 151.356C69.9044 155.089 69.0276 158.812 65.7591 160.9C64.0441 161.993 62.4137 163.264 60.7603 164.455C59.3441 165.382 57.7084 165.762 56.0921 165.539Z" fill="#CFA8C9"/>
</svg>
