<svg width="340" height="231" viewBox="0 0 340 231" fill="none" xmlns="http://www.w3.org/2000/svg">
<path d="M21.8908 195.675C18.6912 193.482 16.0622 190.546 14.2258 187.114L13.3234 186.115C12.7086 185.646 12.9268 184.707 12.3318 184.257C12.0446 183.909 11.7401 183.576 11.4195 183.258C10.5767 181.32 10.7056 179.262 10.5866 177.204C10.3883 173.908 11.9748 171.73 14.9199 169.912C25.5697 163.329 37.0425 158.114 47.0676 150.512C57.0927 142.91 68.3077 140.792 80.4746 140.063C91.3822 139.404 102.29 138.375 113.138 140.063C120.367 141.182 125.949 139.304 129.995 132.481C133.065 127.158 137.965 123.152 143.768 121.223C146.128 120.433 147.735 118.605 149.361 116.877C155.943 109.727 163.316 103.359 171.335 97.8969C176.62 94.3706 181.31 90.065 186.13 85.9094C193.12 79.9156 201.807 76.3493 209.601 71.4744C219.16 67.998 226.964 61.3649 235.868 56.6897C238.516 55.3012 241.134 53.8227 243.722 52.3043C245.447 51.3053 247.391 50.2464 249.473 51.6949C250.118 54.3022 248.115 55.421 246.578 56.6897C243.779 59.018 240.764 61.0687 237.574 62.8134C227.43 68.2077 218.733 75.67 209.313 82.1033C199.893 88.5366 191.008 95.7791 183.551 104.59C180.953 107.657 177.255 109.445 173.834 111.393C166.845 115.515 160.416 120.532 154.706 126.317C152.643 128.315 150.531 130.443 147.765 131.312C142.608 132.931 139.148 136.567 135.994 140.573C132.714 144.666 128.816 148.216 124.442 151.092C119.95 154.089 115.23 155.427 110.56 153.01C100.783 147.935 90.7278 149.094 80.5044 150.312C79.8697 150.392 80.6432 150.482 80.0383 150.382C66.6616 148.055 56.468 155.307 45.9372 161.721C40.041 165.15 34.4064 169.017 29.08 173.289C25.8771 175.966 24.4095 179.103 25.2722 183.388C25.9564 186.795 27.0373 190.231 25.9762 193.787C25.3813 195.985 24.1914 197.074 21.8908 195.675Z" fill="#DCB4D6"/>
<path d="M210.334 72.9528C206.814 75.1005 203.294 77.2583 199.764 79.3761C198.17 80.4134 196.514 81.3509 194.806 82.1832C191.121 83.7007 187.847 86.0806 185.257 89.126C182.074 93.0119 177.612 95.2896 173.843 98.4363C172.784 99.3996 171.639 100.262 170.422 101.014C162.787 105.269 157.056 111.762 151.056 117.846C148.359 120.603 145.702 123.241 141.696 124.02C140.457 124.321 139.325 124.961 138.423 125.868C135.578 128.625 132.474 131.172 130.491 134.699C129.174 136.886 127.536 138.86 125.632 140.553C125.188 141.012 124.655 141.374 124.067 141.618C123.479 141.862 122.847 141.982 122.211 141.971C117.947 141.821 113.663 142.491 109.429 141.312C108.025 141.062 106.598 140.975 105.175 141.052C102.647 140.962 100.098 141.312 97.6191 140.473C97.1716 140.307 96.6858 140.275 96.2209 140.383C93.5932 141.192 90.8068 140.632 88.2187 141.172C84.7878 141.881 81.2775 141.731 77.8862 142.52C76.9648 142.719 76.0201 142.786 75.08 142.72C70.9873 142.486 66.8831 142.89 62.9131 143.919C62.1474 144.101 61.4078 144.379 60.7117 144.748C56.8346 146.916 52.9772 149.114 49.1199 151.321C48.3922 151.645 47.7222 152.087 47.1367 152.63C44.2412 155.996 40.1955 157.625 36.4373 159.553C30.9913 162.15 25.8355 165.325 21.0576 169.023C19.319 170.438 17.2508 171.384 15.0485 171.77C14.6493 171.81 14.2624 171.932 13.9109 172.127C13.5595 172.322 13.2508 172.586 13.0035 172.904C12.7562 173.223 12.5753 173.588 12.4718 173.978C12.3682 174.369 12.3441 174.776 12.401 175.177C12.5095 177.877 12.1744 180.578 11.4094 183.168C7.43599 177.762 4.57383 171.612 2.99066 165.077C5.22176 163.079 7.94867 163.279 10.6657 163.139C12.7084 163.029 14.8899 163.449 16.7342 162.34C23.5168 158.254 31.162 155.837 37.6273 151.082C45.3022 145.447 53.1061 139.833 62.4669 137.416C68.7239 135.797 75.3577 136.677 81.694 135.098C94.3468 131.951 107.654 134.609 120.267 130.693C122.667 129.954 124.65 129.254 126.068 127.087C129.313 122.107 133.991 118.245 139.475 116.018C144.046 114.11 147.407 110.734 150.382 107.027C162.641 92.0282 178.45 80.3787 196.353 73.1526C203.294 70.2955 208.817 64.991 215.679 62.0241C218.555 62.094 220.637 60.2859 222.918 58.9473C225.704 57.329 228.411 55.1513 232.021 56.36C233.349 60.3558 229.71 60.9352 227.727 61.8543C221.391 64.8112 216.086 69.2067 210.334 72.9528Z" fill="#E1B9DB"/>
<path d="M1.00815 154.498L0.799927 149.703C2.52531 147.226 5.46043 148.324 7.74112 147.355C15.3764 144.159 22.5259 140.013 29.8736 136.287C38.2371 132.128 46.9305 128.68 55.8635 125.978C63.8856 123.48 72.4629 122.591 80.6535 120.463C92.9394 117.297 105.444 114.47 116.817 108.915C125.464 104.66 133.079 98.1366 139.386 90.8542C153.358 74.7209 170.017 63.2029 190.553 57.6986C200.865 54.9615 209.79 49.4572 219.16 44.832C219.557 44.5675 219.979 44.3433 220.42 44.1627C220.851 43.9538 221.308 43.8026 221.778 43.7132C223.127 43.5134 224.574 42.8341 225.774 44.1527C226.171 46.5102 224.406 47.5292 222.918 48.628C219.62 51.0626 216.172 53.2847 212.596 55.2811C208.082 57.8032 203.821 60.7607 199.874 64.112C199.484 64.351 199.059 64.5263 198.614 64.6314C194.341 64.9111 190.503 66.6893 186.576 68.1977C186.17 68.3679 185.743 68.4854 185.307 68.5474C182.332 68.2676 180.111 70.1557 177.602 71.2146C177.299 71.4963 176.967 71.7442 176.611 71.9538C176.125 72.2735 175.57 72.4533 175.094 72.7929C174.779 72.9985 174.447 73.1757 174.102 73.3224C173.417 73.5831 172.788 73.973 172.248 74.4712C171.962 74.7146 171.653 74.9287 171.325 75.1105C170.829 75.3446 170.357 75.6292 169.917 75.9596C169.67 76.2076 169.408 76.4411 169.134 76.6589C168.878 76.882 168.607 77.0857 168.321 77.2683C168.09 77.459 167.848 77.6358 167.597 77.7977C167.349 77.9875 167.071 78.1574 166.804 78.3272C166.536 78.497 166.308 78.7168 166.05 78.8966C165.792 79.0764 165.574 79.3361 165.336 79.5459C165.098 79.7557 165.108 79.7857 164.989 79.9055C164.771 80.1853 164.543 80.445 164.305 80.7047C164.067 80.9644 164.067 80.9844 163.958 81.1443C163.731 81.4707 163.486 81.7842 163.224 82.0833C163.095 82.2531 162.956 82.403 162.818 82.5728C162.518 82.9087 162.186 83.2133 161.826 83.4818C156.204 88.4766 150.859 93.6413 146.545 99.8249C144.037 103.411 141.111 106.438 136.798 107.817C134.688 108.568 132.79 109.823 131.265 111.473C123.996 119.125 114.408 121.582 104.769 124.259C95.1309 126.937 85.2149 128.016 75.6162 130.703C72.6414 131.532 69.6666 131.242 66.6918 131.702C57.1327 133.19 48.5455 137.006 40.4044 142.121C32.7394 147.016 24.7074 151.251 16.8738 155.717C12.828 157.944 3.55657 157.135 1.00815 154.498Z" fill="#EBC3E4"/>
<path d="M21.8912 195.675C24.3107 195.266 24.3107 195.266 24.7073 192.798C26.4228 192.189 27.3053 193.488 28.1779 194.486C31.3165 197.969 35.4318 200.407 39.978 201.479C49.9931 204.126 59.81 201.829 69.5376 199.911C78.462 198.143 87.6541 197.543 96.4595 194.646C101.09 193.118 106.276 194.876 110.808 196.205C119.76 198.897 129.063 200.214 138.404 200.111C148.023 199.981 157.731 199.391 167.23 201.519C172.257 202.648 177.483 203.447 181.787 206.724C191.852 219.5 205.02 223.297 220.251 219.211C227.252 217.333 234.371 215.794 241.213 213.277C247.48 210.959 252.121 207.163 254.471 200.62C255.849 196.724 257.386 192.878 259.023 189.082C260.46 185.746 262.463 183.937 266.707 184.467C272.766 185.226 278.964 184.467 285.072 185.196C286.609 185.396 288.354 185.016 288.79 187.194C286.569 190.411 282.99 189.761 279.866 190.191C278.292 190.352 276.701 190.237 275.166 189.851C271.199 188.902 269.315 190.85 268.334 194.437C267.089 198.878 265.609 203.25 263.901 207.533C263.203 209.572 262.036 211.417 260.496 212.915C258.955 214.413 257.084 215.523 255.036 216.154C247.976 218.432 241.055 221.149 233.548 221.818C230.25 222.246 227.016 223.081 223.92 224.305C213.359 227.982 202.789 227.073 192.189 224.515C191.693 223.896 190.81 224.066 190.205 223.516C189.69 222.847 188.778 223.037 188.173 222.517C184.861 221.718 182.223 219.67 179.526 217.762C176.655 215.8 173.996 213.54 171.593 211.019C170.483 209.811 169.253 208.882 167.488 209.071C166.923 209.581 166.06 209.381 165.505 209.91C165.203 209.986 164.893 210.02 164.582 210.01C158.633 210.18 152.584 210.33 146.734 209.011C139.346 207.363 131.919 209.651 124.522 208.222C120.327 207.413 116.401 205.665 112.157 205.225C110.609 204.885 109.15 204.222 107.873 203.277C106.653 202.538 105.394 201.879 104.164 201.16C103.685 200.879 103.138 200.739 102.585 200.755C102.031 200.771 101.493 200.942 101.031 201.249C99.117 202.338 97.4809 203.957 95.1903 204.316C84.1042 206.774 72.8396 208.052 61.6444 209.801C54.9809 210.8 48.8131 209.561 42.6057 207.573C40.3548 206.854 38.1435 205.985 35.8926 205.265C30.5271 203.251 25.7238 199.961 21.8912 195.675Z" fill="#D9B7D3"/>
<path d="M220.806 46.1007C217.454 47.8988 213.954 49.4073 210.751 51.5151C209.055 52.6239 206.785 52.9336 205.139 54.0524C199.843 57.5588 193.696 58.5478 187.835 60.4158C187.389 60.5557 186.844 60.5457 186.437 60.7055C175.083 64.8912 164.324 70.0758 155.033 78.1474C151.424 81.2841 147.983 84.5408 144.582 87.8773C143.966 88.3848 143.413 88.965 142.936 89.6055C140.209 94.0908 135.994 96.9678 131.958 100.035C129.063 102.25 126.283 104.614 123.629 107.117C122.141 108.557 120.408 109.714 118.512 110.534C112.379 113.13 106.086 115.325 99.672 117.107C97.2227 117.766 94.714 118.326 92.3639 119.185C84.1336 122.182 75.3877 122.961 67.0086 125.328C64.7297 126 62.3797 126.395 60.0079 126.507C57.4809 126.713 55.0298 127.477 52.8287 128.745C51.5562 129.425 50.2294 129.996 48.8623 130.453C36.7846 134.119 25.877 140.303 14.8703 146.297C10.6047 148.796 5.70746 149.987 0.779621 149.723C0.268846 148.83 0 147.817 0 146.786C0 145.755 0.268846 144.742 0.779621 143.849L1.45393 144.069C3.80403 146.227 6.04502 144.548 7.24486 143.07C12.3119 136.737 19.8481 135.288 26.7199 132.741C33.2545 130.323 39.8685 128.086 46.3933 125.638C51.1171 123.796 56.0095 122.428 60.9995 121.552C75.1983 119.062 89.0569 114.898 102.29 109.145C110.292 105.779 118.562 103.091 125.097 96.798C128.149 93.7884 130.97 90.549 133.535 87.1081C137.668 81.8422 142.677 77.3398 148.34 73.8019C163.686 63.9702 180.205 56.1327 197.503 50.4761C205.636 47.8706 213.471 44.4014 220.875 40.1269C222.174 39.3477 223.473 38.129 225.238 39.048C227.41 43.0439 223.344 43.3535 221.758 45.1317C221.45 45.4713 221.143 45.761 220.806 46.1007Z" fill="#EEC7E8"/>
<path d="M216.047 63.3626C213.967 64.5146 211.954 65.7853 210.018 67.1686C204.227 71.8038 197.623 74.8007 190.791 77.428C188.821 78.0342 186.981 79.0067 185.367 80.295C184.39 81.0936 183.317 81.7649 182.174 82.2929C179.213 83.8192 176.449 85.7046 173.943 87.9071C171.554 89.9749 168.846 91.6832 166.308 93.5812C161.692 97.2113 157.509 101.368 153.844 105.968C151.053 109.234 148.052 112.311 144.86 115.179C143.37 116.385 141.663 117.291 139.832 117.846C137.714 118.528 135.789 119.714 134.22 121.302C133.662 121.863 133.036 122.35 132.356 122.751C130.446 123.916 128.916 125.617 127.953 127.646C127.534 128.506 127.022 129.317 126.426 130.063C125.925 130.788 125.258 131.379 124.48 131.786C123.703 132.193 122.84 132.404 121.964 132.401C118.95 132.463 115.964 132.989 113.109 133.959C108.356 135.247 103.411 135.663 98.5122 135.188C95.6465 134.988 92.8303 135.408 89.9844 135.318C89.6677 135.278 89.3462 135.309 89.0424 135.408C85.3834 137.076 81.2782 136.577 77.52 137.785C75.2195 138.524 72.7901 138.065 70.4202 138.155C68.0491 138.127 65.6801 138.307 63.3401 138.694C59.9535 139.524 56.7177 140.886 53.7514 142.73C48.0764 145.91 42.6351 149.495 37.4693 153.459C34.6998 155.588 31.6099 157.258 28.3168 158.404C25.9225 159.241 23.6638 160.429 21.6136 161.93C18.7124 164.217 15.0611 165.316 11.3902 165.007C9.33414 164.767 7.25124 164.94 5.26209 165.516C4.47233 165.646 3.6629 165.475 2.99132 165.037C2.52527 163.449 1.76173 161.93 1.9303 160.202C3.44839 159.339 5.14709 158.85 6.8883 158.773C18.8668 159.193 28.3267 153.039 37.5486 146.576C45.1542 141.242 53.0771 136.247 62.051 134.329C69.5475 132.731 77.3217 132.001 84.9868 131.012C88.6061 130.543 92.1461 129.784 95.6961 129.014C102.161 127.636 108.646 126.447 115.191 125.508C119.928 124.767 124.286 122.458 127.576 118.945C131.374 115.139 135.261 111.313 141.082 110.643C143.005 110.424 144.275 108.955 145.534 107.377C149.123 102.902 151.712 97.7169 155.599 93.4713C162.361 86.079 170.939 81.244 179.397 76.2992C185.192 73.0505 191.286 70.3742 197.593 68.3075C203.364 66.3095 208.084 61.8841 213.716 59.3168L214.976 58.6275C215.391 58.3957 215.835 58.2178 216.295 58.0981C221.015 56.7095 224.703 53.4829 228.838 51.0254C231.059 49.8267 233.221 47.7188 236.097 49.6968C236.751 52.1143 235.006 53.383 233.419 54.1022C227.43 56.8194 221.996 60.5955 216.047 63.3626Z" fill="#E4BCDE"/>
<path d="M124.581 50.6558C126.237 49.7568 127.863 48.7878 129.539 47.9586C136.034 44.7719 141.597 40.5263 145.345 34.143C145.709 33.6313 146.117 33.1532 146.565 32.7145C154.289 24.6329 164.166 19.9377 173.923 15.0628C179.179 12.4355 184.989 12.3057 190.582 11.7462C201.296 10.6265 211.622 7.09284 220.796 1.40698C222.68 2.01635 224.832 1.59679 226.537 2.89544C228.015 5.41282 226.121 6.76142 224.624 8.10003C217.201 14.8558 208.163 19.5514 198.396 21.7259C185.445 24.6528 172.743 28.2191 160.536 33.9432C152.306 37.8092 143.878 40.6362 138.721 48.7878C137.76 50.0889 136.401 51.0364 134.854 51.485C127.496 53.9224 123.827 60.136 119.772 65.9599C114.655 73.3123 106.772 76.9485 99.4638 81.3539C96.696 82.8983 94.3019 85.0407 92.4532 87.6274C87.4456 94.9997 80.1672 99.615 72.5418 103.401C68.9436 105.084 65.0043 105.895 61.0392 105.769C52.6999 105.559 44.7968 107.936 36.6855 108.925C30.1222 109.746 23.4653 109.354 17.0419 107.766C17.8154 103.771 20.106 101.623 24.9747 101.593C34.0082 101.543 42.9822 100.174 51.9859 100.274C65.2734 100.414 76.4685 96.9977 84.5898 85.3698C88.2091 80.1851 94.0595 76.8985 99.4638 73.6419C107.456 68.8569 114.863 63.5524 119.901 55.4508C121.17 53.5728 123.203 52.414 124.581 50.6558Z" fill="#FDDFF7"/>
<path d="M17.0914 107.477C20.6536 106.913 24.2792 106.882 27.8502 107.387C32.8975 108.186 37.9447 106.977 42.9226 106.198C48.9911 105.249 55.0102 104.08 61.1977 104.33C62.4174 104.38 63.6569 103.781 64.9063 103.611C69.3898 102.832 73.6823 101.191 77.5492 98.7759C82.8146 95.779 86.7612 91.6233 90.5293 87.098C92.7505 84.4308 94.7634 81.4838 98.2935 80.315C103.499 76.1793 109.826 73.7019 114.734 69.0967C115.734 68.3182 116.651 67.4378 117.471 66.4694C119.861 63.1029 122.379 59.8363 124.74 56.4798C126.161 54.3502 128.232 52.7444 130.64 51.9046C134.881 50.4689 138.532 47.6588 141.022 43.9129C142.815 41.4724 144.915 39.2764 147.269 37.3796C149.289 35.8052 151.723 34.8606 154.269 34.6625C156.002 34.3968 157.678 33.8396 159.227 33.0142C162.906 31.1461 166.595 29.308 170.284 27.44C172.708 26.2744 175.266 25.4154 177.899 24.8826C182.361 23.8837 186.764 22.555 191.137 21.1865C192.626 20.6818 194.166 20.3467 195.728 20.1875C199.832 19.9526 203.836 18.8173 207.459 16.861C209.799 15.5423 212.318 14.5334 214.757 13.3946C216.783 12.4812 218.641 11.228 220.25 9.68841C221.741 8.035 223.422 6.56619 225.258 5.31295C225.643 5.03272 225.958 4.66713 226.18 4.24447C226.402 3.8218 226.524 3.3534 226.537 2.87549L227.529 3.00535C228.114 3.5348 228.967 3.38496 229.591 3.80452C229.847 3.76707 230.108 3.80165 230.345 3.90442C231.604 5.52274 230.692 6.90131 229.81 8.19996C229.056 9.41263 228.084 10.473 226.944 11.3267C217.752 17.6501 208.371 23.6639 197.672 27.1603C196.622 27.5132 195.505 27.6158 194.409 27.4599C182.054 30.9463 169.064 32.3549 157.909 39.6673C154.537 41.875 150.154 42.1247 146.505 44.1326C144.841 44.9864 143.329 46.1141 142.033 47.4692L141.2 48.4681C140.956 48.8006 140.68 49.1084 140.377 49.3872C140.238 49.527 140.08 49.6569 139.941 49.7967C139.667 50.0783 139.379 50.3451 139.078 50.5959C138.949 50.7358 138.79 50.8656 138.652 51.0055C138.384 51.2952 138.096 51.5649 137.819 51.8446C137.541 52.1243 137.531 52.1243 137.382 52.2642C137.095 52.5659 136.783 52.8433 136.45 53.0933L135.935 53.4729C128.726 56.7096 124.749 63.0829 120.664 69.3464C120.485 69.6973 120.276 70.0316 120.039 70.3454C119.821 70.6656 119.575 70.9664 119.306 71.2445C119.187 71.3843 119.048 71.5142 118.919 71.654C118.681 71.9233 118.426 72.1768 118.155 72.4132C118.036 72.5431 117.897 72.653 117.778 72.7829C117.543 73.0389 117.295 73.2824 117.035 73.5121C116.916 73.642 116.787 73.7519 116.668 73.8817C116.549 74.0116 116.192 74.3912 115.944 74.6409C115.696 74.8907 115.696 74.9007 115.577 75.0305C115.343 75.3155 115.091 75.5857 114.823 75.8397C114.695 75.9795 114.556 76.0994 114.427 76.2493C114.154 76.5357 113.859 76.7996 113.544 77.0384C112.902 77.5713 112.188 78.0087 111.422 78.3371C102.146 82.7078 94.0966 89.3374 88.0007 97.627C79.7407 105.059 69.7453 108.226 59.0063 109.005C49.9629 109.665 41.3161 112.322 32.3917 113.541C29.4169 113.95 26.3529 114.589 23.4673 113.88C18.073 112.572 14.3942 115.009 10.9335 118.655C9.8725 119.774 8.95032 122.651 6.62006 119.854L6.88778 118.855C7.08132 118.524 7.31446 118.219 7.58191 117.946C9.08222 114.033 11.356 110.468 14.2653 107.467C15.1875 107.517 16.1295 106.518 17.0914 107.477Z" fill="#FCDDF7"/>
<path d="M1.00806 154.498C1.44436 154.688 1.87076 154.887 2.31698 155.067C4.40926 155.926 6.34287 154.768 8.35582 154.618C10.3688 154.468 12.0148 155.846 13.9484 155.247C14.9985 154.912 16.0119 154.471 16.9728 153.928C24.0429 150.032 31.0337 145.997 37.7964 141.631C38.8871 140.997 39.9339 140.29 40.9299 139.513C42.2958 138.425 43.8082 137.537 45.4218 136.876C47.5835 135.877 49.775 134.978 51.9565 134.049C58.2208 131.393 64.9003 129.868 71.6894 129.544C73.1106 129.509 74.5183 129.256 75.864 128.795C81.0996 126.857 86.6328 126.467 92.0965 125.688C92.8862 125.673 93.6716 125.566 94.4367 125.368C101.07 122.671 108.25 122.052 114.993 119.794C117.735 119.041 120.305 117.754 122.558 116.008C126.049 113.011 129.867 110.464 133.466 107.666C134.572 106.768 135.837 106.09 137.194 105.669C139.645 104.953 141.758 103.371 143.144 101.213C148.409 93.7909 155.043 87.6373 161.786 81.6036C162.074 81.2639 162.431 80.9742 162.778 80.6046L163.769 79.6056L164.761 78.6067L165.753 77.6077C166.268 77.0383 167.151 77.2181 167.656 76.6088L168.648 75.6098C169.55 74.8905 170.631 74.411 171.504 73.6918C172.406 72.9725 173.487 72.493 174.36 71.7738C174.875 71.2044 175.758 71.3842 176.264 70.7748C179.377 69.3363 182.352 67.5681 185.783 66.9388C190.225 65.6801 194.588 64.1117 199.11 63.1028C208.144 57.7084 217.831 52.8235 226.974 46.9995C228.808 45.8307 230.623 44.3323 233.043 45.6809C234.203 47.8486 232.577 48.6778 231.218 49.7367C227.053 53.0732 222.294 55.5207 217.871 58.3577L216.532 58.8172C216.086 59.007 215.66 59.2068 215.233 59.4366C201.133 67.5582 185.604 72.7328 171.603 81.2339C162.163 86.998 154.111 93.7809 148.608 103.401C146.248 107.547 143.541 110.973 138.256 111.393C134.745 111.702 132.187 114.39 130.035 116.747C124.77 122.561 117.957 124.739 110.719 126.097C99.0972 128.255 87.783 131.871 76.0127 133.41C74.2873 133.64 72.562 133.809 70.8366 133.869C59.3142 134.279 49.6064 139.563 40.206 145.507C34.8316 148.904 29.2984 151.911 23.7157 154.957C17.0431 158.649 9.38831 160.138 1.83107 159.213C1.0849 157.763 0.797679 156.117 1.00806 154.498Z" fill="#E7C0E0"/>
<path d="M192.218 224.525C192.971 224.315 193.804 223.796 194.469 223.966C197.602 224.765 200.775 224.375 203.938 224.485C204.729 224.449 205.521 224.473 206.308 224.555C211.088 225.454 215.689 224.605 220.26 223.256C223.751 222.258 227.271 221.259 230.791 220.33C231.534 220.057 232.306 219.873 233.092 219.78C241.342 219.55 248.719 215.934 256.424 213.617C257.574 213.275 258.625 212.659 259.489 211.821C260.352 210.983 261.001 209.947 261.382 208.801C263.349 203.923 265.053 198.94 266.489 193.877C266.71 192.95 267.002 192.042 267.361 191.16C269.037 187.264 269.612 187.004 273.836 187.733C276.811 188.243 279.786 188.103 282.761 188.862C283.771 189.129 284.836 189.103 285.833 188.787C286.83 188.47 287.717 187.877 288.393 187.074C291.913 183.897 298.24 183.478 302.692 186.125C299.236 187.673 295.551 188.642 291.784 188.992C290.793 189.102 289.861 188.992 288.938 189.182C283.435 190.341 284.476 189.711 282.116 194.017C275.606 205.991 265.794 215.81 253.866 222.287C247.353 225.973 240.253 228.488 232.883 229.72C226.835 230.719 220.786 231.508 214.499 230.549C208.212 229.59 202.005 228.551 195.996 226.493C194.588 226.178 193.286 225.5 192.218 224.525Z" fill="#DABAD3"/>
<path d="M302.693 186.135C299.718 186.045 296.832 186.445 293.877 186.225C292.082 186.095 290.228 186.764 288.394 187.074C284.288 187.384 280.322 186.075 276.237 186.075C272.151 186.075 268.304 186.525 264.407 185.666C264.015 185.614 263.617 185.682 263.264 185.86C262.91 186.038 262.618 186.318 262.424 186.664C261.652 187.674 261.042 188.8 260.619 190.001C259.032 194.337 257.327 198.622 255.661 202.988C253.36 209.131 248.581 212.608 242.77 214.855C238.797 216.418 234.673 217.56 230.464 218.262C228.432 218.596 226.456 219.215 224.594 220.1C220.965 221.818 216.949 222.098 213.052 222.497C209.582 222.821 206.087 222.76 202.63 222.317C196.79 221.608 191.931 218.611 187.657 214.665C186.526 213.558 185.298 212.555 183.988 211.669C182.634 210.819 181.52 209.632 180.755 208.222C183.393 206.354 185.247 208.632 187.131 209.671C190.305 211.419 193.269 213.557 196.849 214.436C197.276 214.493 197.697 214.587 198.108 214.715C198.703 214.915 199.279 215.165 199.873 215.385C200.28 215.485 200.681 215.609 201.073 215.754C202.484 216.256 204.015 216.308 205.456 215.904C211.931 216.089 218.393 215.222 224.594 213.337C225.239 213.087 225.893 212.887 226.577 212.648C226.981 212.443 227.395 212.26 227.817 212.098C228.432 211.778 229.056 211.489 229.681 211.179C241.303 206.664 247.917 197.843 251.744 186.365C253.41 181.37 255.205 180.241 260.341 181.37C273.014 184.137 285.468 181.37 298.022 180.461C306.996 179.782 313.015 175.786 317.12 167.904C318.35 165.536 319.927 162.709 323.447 162.819C325.142 164.188 324.438 165.956 324.2 167.624C323.962 169.293 323.209 170.971 323.705 172.749C319.454 178.018 313.834 181.995 307.472 184.237C306.947 184.806 306.034 184.567 305.489 185.156C305.24 185.239 304.977 185.27 304.715 185.246C304.091 185.715 303.188 185.516 302.633 186.155L302.693 186.135Z" fill="#D6B5D0"/>
<path d="M210.335 72.9527C214.513 68.0662 219.719 64.1792 225.575 61.5745C228.154 60.4457 230.702 59.247 232.229 56.6497L232.408 55.9604C232.734 55.3277 233.178 54.7646 233.717 54.3021C238.813 51.7148 243.048 47.8288 247.708 44.6122C256.454 38.5085 260.242 38.4286 269.246 44.1426C271.586 45.6211 273.817 47.7789 276.97 46.1406C279.737 51.0055 280.639 56.4698 281.69 61.9142C282.396 65.8089 282.728 69.7631 282.682 73.7219C282.682 77.3082 282.989 77.5479 286.371 77.7178C287.789 77.7777 289.207 77.7877 290.615 77.8276C291.566 77.8057 292.498 78.1046 293.262 78.6768C287.997 82.8824 283.019 87.4277 280.074 93.7811C279.598 94.78 278.705 95.6292 277.406 94.6602C275.156 91.4135 275.959 87.6075 275.612 84.0412C275.447 80.8901 274.58 77.8169 273.073 75.0505C270.822 68.0987 267.101 61.7218 262.166 56.36C259.766 53.6827 257.376 51.2952 253.241 52.9435C252.564 53.2237 251.813 53.2656 251.11 53.0626C250.406 52.8596 249.791 52.4234 249.364 51.8247C245.933 52.6238 242.958 54.5319 239.914 56.2001C233.409 59.8164 226.884 63.3527 220.687 67.4285C217.433 69.6214 213.964 71.4725 210.335 72.9527Z" fill="#DDB9D6"/>
<path d="M26.5117 95.2696L28.4949 94.0408C28.7754 93.7582 29.0771 93.4977 29.3973 93.2617C36.5724 88.2071 44.7896 84.8535 53.4337 83.4519C56.5671 82.9324 59.6907 82.2331 62.8737 82.5228C67.8317 82.9823 72.1947 81.1442 76.419 78.8267C80.6432 76.5091 84.5798 73.3224 88.5958 70.4653C95.6602 65.3095 103.132 60.7456 110.937 56.8195C111.928 56.34 112.999 56.0403 114.03 55.6507C114.387 55.411 114.734 55.1579 115.072 54.8915L116.063 54.6118C118.423 58.0083 115.795 59.9363 113.773 61.7944C110.262 65.031 105.939 67.1488 102.062 69.8959C93.9306 75.6699 86.335 82.2231 77.599 87.128C74.7233 88.7464 72.8988 91.3437 71.104 93.9609C70.0167 95.7443 68.4009 97.1385 66.4847 97.9469C64.5685 98.7553 62.4487 98.9369 60.4244 98.4663C50.3498 96.6182 40.3247 97.777 30.2798 98.726C28.0388 98.9358 25.5598 100.085 23.5865 97.8469L24.6673 96.9179C24.9846 96.6182 25.3152 96.3318 25.6589 96.0588L25.7581 95.9688C25.9442 95.6733 26.204 95.4321 26.5117 95.2696Z" fill="#FEE9FC"/>
<path d="M23.5964 97.8569C26.1118 97.6197 28.6115 97.2361 31.0829 96.7081C33.8723 96.117 36.7221 95.8655 39.571 95.9589C42.883 95.879 46.2346 96.3285 49.487 95.2596C50.2408 94.9913 51.059 94.9668 51.8272 95.1897C54.7029 96.2586 57.7768 95.7891 60.7516 96.6282C64.5197 97.7071 67.6333 96.6282 69.567 92.932C71.9666 88.3468 75.8339 85.4298 80.3853 83.2721C83.7171 81.6937 86.3349 79.0365 89.3097 76.8987C96.3798 71.794 103.301 66.4695 110.728 61.9142C112.2 60.971 113.552 59.8506 114.754 58.5777C115.243 58.0535 115.611 57.4272 115.832 56.7435C116.053 56.0598 116.122 55.3354 116.033 54.6218C118.581 52.7395 121.472 51.3817 124.541 50.626C124.601 51.7614 124.248 52.8798 123.55 53.7727C121.382 56.5031 119.359 59.3474 117.491 62.2939C117.397 62.4238 117.287 62.5413 117.164 62.6435C112.513 66.7093 108.15 71.1247 102.558 73.9817C100.464 75.1065 98.4496 76.3748 96.5286 77.7778C94.195 79.4161 91.9176 81.1343 89.6965 82.9324C87.6765 84.451 85.9005 86.2738 84.4311 88.3368C80.6186 93.8999 75.1493 98.0979 68.8133 100.324C67.016 100.95 65.132 101.288 63.2306 101.323C59.4824 101.453 55.8035 102.952 51.9859 101.923C51.5254 101.793 51.0383 101.793 50.5778 101.923C46.8593 103.151 43.0218 102.502 39.2438 102.692C37.9809 102.697 36.7218 102.831 35.4856 103.091C32.6596 103.831 29.8633 103.571 26.9976 103.371C23.0906 103.091 19.4614 103.921 17.022 107.477C16.0304 107.847 15.138 108.656 14.1761 107.477C16.8733 103.831 19.63 100.234 23.5964 97.8569Z" fill="#FEE4F9"/>
<path d="M0.779907 143.839C0.968311 140.922 0.313855 137.895 1.77151 135.128C4.91488 134.639 5.73792 131.702 7.23524 129.604C10.21 125.228 13.9484 122.931 19.4319 122.611C31.7079 121.982 43.1708 117.327 54.9907 114.47C59.1257 113.471 63.3003 112.761 67.4452 111.962C87.1384 108.176 103.143 97.4173 118.374 85.1501C118.732 84.8422 119.117 84.568 119.524 84.3309L120.139 84.0013C123.213 82.8325 125.275 80.5748 127.08 77.8776C128.31 76.0495 129.599 73.6021 132.643 75.0006C133.357 80.6548 129.668 84.6506 126.822 88.5665C122.363 94.5979 116.376 99.311 109.489 102.212C104.434 104.416 99.6955 107.292 95.3984 110.763C86.0185 115.396 75.984 118.54 65.6504 120.084C58.3341 121.332 51.1774 123.393 44.3112 126.227C36.071 129.484 27.0772 130.323 18.8965 133.889C15.2069 135.339 11.9421 137.707 9.40684 140.772C7.42364 143.31 4.84548 145.917 0.918746 143.919L0.779907 143.839Z" fill="#F5CFED"/>
<path d="M6.59047 119.924C6.85135 120.081 7.14941 120.163 7.45316 120.164C8.02178 119.904 8.50382 119.484 8.8414 118.955C10.0214 115.958 12.4806 114.429 15.029 112.781C16.7742 111.652 18.4897 110.933 20.344 111.493C25.302 112.971 30.0418 112.102 34.861 111.183C40.2851 110.184 45.7686 109.445 51.0637 107.806C51.8205 107.571 52.6135 107.476 53.4039 107.527C56.5662 107.628 59.7262 107.264 62.7845 106.448C65.2303 105.803 67.7533 105.503 70.281 105.559C71.7168 105.609 73.1234 105.142 74.2474 104.24C77.0022 102.377 79.8814 100.709 82.8644 99.2453C84.4814 98.2635 86.0347 97.1791 87.515 95.9987C95.0412 89.0958 104.62 84.7703 111.313 76.8186L113.217 75.8196C113.505 75.48 113.862 75.1903 114.209 74.8207L115.2 73.8217L116.192 72.8227L117.184 71.8238L118.175 70.8248L119.167 69.8258C123.689 62.6133 130.074 57.159 136.302 51.6048L137.293 50.6058L138.285 49.6068L139.277 48.6079L140.268 47.6089C143.025 46.1305 145.226 42.1946 149.074 45.7608C149.857 48.3581 147.824 49.1673 146.198 49.9765C137.273 54.4119 131.225 61.8242 125.781 69.8059C123.728 72.8027 121.249 75.5399 119.692 78.8964C115.508 84.1709 109.578 87.2677 104.323 91.1737C100.942 93.7172 97.8051 96.5734 94.952 99.7048C94.6633 100.042 94.3296 100.338 93.9604 100.584C93.1599 100.961 92.4075 101.434 91.7194 101.992C91.352 102.252 90.9518 102.46 90.5294 102.612C87.5546 103.201 85.2541 105.009 82.9635 106.857C73.5136 112.272 62.6159 111.972 52.4619 114.569C48.2079 115.658 43.8052 116.377 39.5017 117.396C33.2943 118.855 27.1166 119.974 20.7208 119.594C15.5645 119.294 11.9947 121.722 9.54544 126.157C8.59956 128.193 7.24965 130.012 5.57902 131.502C4.15112 132.621 3.68509 132.291 3.15955 130.033L3.27853 129.034C3.77433 128.455 3.60575 127.616 4.0718 127.036C4.37675 124.507 5.23714 122.077 6.59047 119.924Z" fill="#FAD8F3"/>
<path d="M298.041 79.6258C302.642 79.8655 306.579 81.8435 310.337 84.3209C314.085 88.3168 314.413 93.5014 314.74 98.5561C314.988 102.312 312.896 104.82 309.564 106.338C306.232 107.856 302.672 109.475 299.816 112.062C299.403 112.392 298.95 112.667 298.468 112.881C297.999 113.123 297.507 113.317 297 113.461C289.553 115.099 283.445 109.665 283.118 101.613C282.82 93.7411 286.152 87.4477 290.803 81.6337C291.596 80.512 292.75 79.6999 294.068 79.3342C295.386 78.9685 296.789 79.0715 298.041 79.6258Z" fill="#E5C4DE"/>
<path d="M220.796 1.40704C220.598 2.18005 220.227 2.89713 219.712 3.50322C219.196 4.10931 218.549 4.5883 217.821 4.90341C215.491 6.22204 213.19 7.61059 210.88 8.89926C208.255 10.3652 205.372 11.3017 202.392 11.6564C198.336 12.1059 194.3 12.8052 190.294 13.6543C187.838 14.2021 185.333 14.5032 182.818 14.5534C179.754 14.5534 176.997 15.922 174.221 16.9908C171.876 17.937 169.608 19.066 167.438 20.3673C162.252 23.3642 157.145 26.5209 151.959 29.5178C150.609 30.3371 149.367 31.3238 148.26 32.4548C148.175 32.5877 148.063 32.7018 147.932 32.7903C147.802 32.8787 147.655 32.9397 147.5 32.9695C147.345 32.9994 147.186 32.9975 147.032 32.9639C146.879 32.9304 146.733 32.866 146.604 32.7745C149.867 26.7807 154.468 21.9457 159.495 17.5802C166.443 11.4613 174.534 6.80167 183.294 3.87448C195.363 -0.247298 208.297 -1.09825 220.796 1.40704Z" fill="#FDE7FA"/>
<path d="M1.84045 159.273C3.54485 158.383 5.48379 158.054 7.3835 158.334C12.8869 158.904 17.6664 156.806 22.2575 154.168C24.8654 152.65 27.513 151.222 30.1903 149.833C33.8394 147.925 37.4885 146.037 41.0979 143.989C46.3137 140.992 51.7675 138.435 57.2015 135.838C60.8209 134.109 64.8666 133.68 68.7537 133.51C74.2678 133.137 79.7448 132.332 85.1349 131.102C93.504 129.404 101.645 126.767 109.925 124.489C111.878 123.864 113.864 123.351 115.875 122.951C120.067 122.236 123.934 120.225 126.941 117.197C129.027 115.24 131.24 113.425 133.565 111.763C135.092 110.654 136.827 109.485 138.741 109.525C143.104 109.615 145.246 106.868 147.09 103.531C148.201 101.586 149.318 99.6684 150.442 97.7771C154.677 90.9791 160.701 85.4981 167.844 81.9435C173.883 78.7868 179.863 75.5302 185.693 71.9539C187.418 70.8162 189.29 69.9221 191.256 69.2966C196.521 67.8681 201.172 65.0211 206.041 62.7934C209.282 61.1653 212.62 59.7407 216.036 58.5278C216.14 58.593 216.22 58.691 216.263 58.8067C216.306 58.9223 216.31 59.0491 216.274 59.1672C216.266 59.2368 216.239 59.303 216.198 59.3591C216.156 59.4152 216.1 59.4593 216.036 59.4868C215.709 59.7965 215.382 60.1062 215.045 60.4858C210.384 62.8433 205.674 65.111 201.479 68.2877C200.216 69.2594 198.758 69.9413 197.206 70.2856C189.898 71.9239 183.462 75.7999 176.957 79.3961C174.453 80.7696 172.029 82.2872 169.699 83.9414C163.085 88.6366 156.719 93.5814 152.286 100.644C150.432 103.641 148.161 106.288 146.128 109.125C144.898 110.829 143.054 111.98 140.992 112.332C136.034 113.281 132.494 116.328 129.093 119.764C128.101 120.763 127.05 121.762 126.118 122.821C124.436 124.548 122.322 125.784 120 126.397C117.114 127.226 114.139 127.746 111.204 128.395C110.9 128.495 110.577 128.519 110.262 128.465C107.178 127.536 104.312 128.705 101.447 129.464C94.5055 131.202 87.4949 132.231 80.4744 133.38C76.736 133.989 72.9878 134.569 69.2495 135.148C68.9401 135.219 68.6246 135.259 68.3074 135.268C61.3662 134.968 55.5555 138.265 49.5464 141.262C44.7966 143.589 40.622 146.646 36.3085 149.593C31.6285 152.874 26.5749 155.577 21.256 157.645C16.7145 159.363 12.3316 160.782 7.48266 160.332C5.63829 160.162 3.784 161.591 1.93962 160.332L1.84045 159.273Z" fill="#E6BFE0"/>
<path d="M2.7825 130.443C2.98082 131.332 3.48652 132.191 4.2203 131.102C5.49438 129.1 6.64676 127.022 7.67109 124.879C9.26756 121.722 12.044 119.954 14.999 118.386C15.5858 118.154 16.2134 118.045 16.8434 118.066C17.7912 118.009 18.7415 118.009 19.6893 118.066C26.0554 118.455 32.2033 117.367 38.4008 115.958C43.1307 114.889 47.7813 113.231 52.7195 113.101C53.9726 112.947 55.2058 112.659 56.3983 112.242C57.1391 111.965 57.9069 111.767 58.6889 111.653C63.1313 111.543 67.3853 110.484 71.6987 109.555C73.7062 109.195 75.6636 108.595 77.5293 107.767C79.2349 106.947 81.0198 106.298 82.7749 105.579C85.0457 103.751 87.9213 103.161 90.3904 101.743C91.2928 101.024 92.3736 100.544 93.2462 99.8248C103.44 91.6333 115.25 85.4397 123.599 74.9606C124.422 73.9617 125.424 73.1525 126.861 73.9617C128.25 77.0385 126.286 79.0164 124.66 81.2041C123.51 82.7425 121.874 83.8014 120.852 85.4397C120.545 85.7694 120.188 86.0491 119.861 86.4387C116.588 89.1858 113.405 92.0629 109.697 94.2206C103.956 97.5571 98.7893 101.893 92.7107 104.62C89.4186 106.088 86.4339 108.296 82.7947 109.005C81.7029 109.208 80.6636 109.633 79.7406 110.254C76.7658 112.352 73.3845 112.961 69.894 113.251C69.4234 113.202 68.9481 113.229 68.486 113.331C64.6088 115.239 60.2358 114.839 56.1802 116.138C50.0323 118.136 43.6761 119.444 37.4092 121.063C36.1895 121.382 34.9897 121.812 33.77 122.152C30.9061 123.061 27.9485 123.637 24.9547 123.87C21.6626 124.04 18.4299 124.869 15.0387 124.869C13.115 124.869 11.9052 126.327 10.9037 127.766C8.57344 131.142 5.44991 133.979 3.96251 137.955C3.8144 138.122 3.63232 138.255 3.4287 138.344C3.22508 138.434 3.00468 138.479 2.7825 138.475C2.53865 138.454 2.31255 138.338 2.15301 138.151C1.99346 137.964 1.91325 137.722 1.92971 137.476C1.82063 136.686 1.77107 135.887 1.70166 135.098C1.83057 133.5 1.64216 131.822 2.7825 130.443Z" fill="#F8D3F0"/>
<path d="M298.042 79.6257C294.978 79.356 293.005 80.7246 291.656 83.5117C290.669 85.507 289.448 87.3753 288.017 89.0759C286.319 90.9948 285.42 93.4993 285.508 96.0686C285.619 97.4951 285.491 98.9301 285.131 100.314C284.427 102.542 285.191 104.42 286.063 106.308C286.711 107.585 287.503 108.781 288.424 109.874C291.051 113.151 291.458 113.221 295.563 111.672C296.018 111.536 296.482 111.432 296.951 111.363C296.998 111.455 297.068 111.533 297.156 111.587C297.243 111.641 297.344 111.67 297.447 111.67C297.55 111.67 297.651 111.641 297.738 111.587C297.826 111.533 297.897 111.455 297.943 111.363H298.934C302.157 109.924 305.092 107.277 309.059 108.895C310.586 111.023 308.88 112.102 307.492 112.891C306.104 113.68 304.904 114.609 303.645 115.528C299.956 118.695 295.266 119.994 291.101 122.271C290.818 122.415 290.518 122.522 290.208 122.591C283.743 124.199 271.457 112.761 272.449 106.088C272.643 105.454 272.878 104.833 273.153 104.23C273.361 103.651 273.609 103.091 273.837 102.522C274.065 101.953 274.244 101.423 274.462 100.874C274.888 99.8047 275.315 98.7359 275.781 97.677C276.145 96.7678 276.688 95.9421 277.377 95.2495L277.913 95.0097C279.162 93.801 278.904 92.0128 279.519 90.5843C280.025 89.4155 280.243 88.017 281.383 87.3477C283.951 85.8393 285.429 83.3518 287.085 81.0642C288.235 79.4859 289.465 78.5968 291.398 78.7067C292.023 78.7067 292.658 78.7067 293.292 78.6467C294.938 78.7067 296.644 78.4369 298.042 79.6257Z" fill="#E2BCDA"/>
<path d="M302.672 114.19C304.467 113.011 305.974 111.403 308.126 110.753C308.63 110.403 309.044 109.937 309.336 109.395C314.388 105.651 318.209 100.466 320.303 94.5104C320.523 94.0848 320.855 93.7283 321.262 93.4799C321.67 93.2315 322.137 93.1007 322.613 93.1018C326.937 96.2485 329.743 100.684 332.381 105.179C335.841 111.093 338.509 117.407 339.322 124.269C340.551 134.469 340.175 144.558 336.03 154.178C335.472 155.311 334.853 156.411 334.175 157.475C329.852 156.246 331.33 152.82 331.716 150.153C332.351 145.797 334.215 141.691 334.741 137.286C335.643 129.804 334.324 122.751 330.021 116.527C326.6 111.593 324.795 111.183 319.232 113.361C315.266 114.919 311.299 116.498 306.946 116.597C305.31 116.268 302.97 117.087 302.672 114.19Z" fill="#DCBCD5"/>
<path d="M239.874 7.68066C241.311 7.86551 242.645 8.53028 243.662 9.5687C244.128 10.228 245.041 10.0582 245.566 10.5677C247.599 11.8563 247.609 13.6445 245.834 14.7933C231.714 24.0137 220.31 37.4897 203.344 42.1848C202.451 42.5075 201.515 42.696 200.567 42.7442C198.069 42.6144 195.421 43.1938 193.358 41.1159C191.97 38.2289 193.993 37.1201 196.006 36.0712C199.328 34.293 203.017 33.1442 205.277 29.8476C208.077 27.2518 211.237 25.0812 214.658 23.4043C221.282 19.9279 227.658 16.1619 233.122 10.9373C234.926 9.09088 237.315 7.93878 239.874 7.68066Z" fill="#F5D4F0"/>
<path d="M200.815 41.3055C205.773 39.2476 210.89 37.6193 215.491 35.002C219.505 32.8377 223.276 30.2419 226.736 27.2601C232.229 22.2653 237.752 17.3204 244.475 13.9939C246.211 13.1348 246.161 12.9949 245.566 10.5874C247.391 11.0777 249.039 12.0828 250.316 13.4844C250.644 13.8428 251.021 14.1522 251.436 14.4034C251.729 14.4288 252.014 14.5066 252.279 14.6332C252.594 14.8491 252.875 15.1118 253.112 15.4124C253.356 16.0966 253.344 16.8467 253.08 17.523C252.815 18.1993 252.316 18.7557 251.674 19.0886C246.399 22.555 242.264 27.5797 236.424 30.257C230.98 32.2549 227.192 36.8401 222.135 39.5074C215.6 42.9937 209.105 46.55 201.549 47.3892C199.566 46.1904 196.998 47.3292 195.193 45.601C194.737 41.0757 199.07 42.9038 200.815 41.3055Z" fill="#F0D0EB"/>
<path d="M239.874 7.68052C239.817 7.83116 239.733 7.96999 239.626 8.09009C232.576 13.3746 226.428 19.8579 218.168 23.4941C213.964 25.3222 210.315 28.1792 206.537 30.7565C204.454 32.1751 202.451 33.7534 199.863 34.153C199.169 34.2829 198.554 34.6525 197.88 34.7824C197.407 34.8617 196.925 34.8617 196.452 34.7824C194.737 33.9732 192.535 34.5326 191.107 32.8843C190.017 29.6177 191.97 27.7197 194.191 25.8916C200.389 25.4021 205.575 22.2953 210.711 19.2085C213.964 17.2106 217.028 15.0229 220.707 13.8741C221.748 13.4975 222.695 12.8976 223.483 12.1159C225.466 10.2778 227.301 8.30986 229.195 6.40184C229.862 5.71321 230.272 4.81312 230.355 3.85449C233.667 4.76355 237.009 5.55273 239.874 7.68052Z" fill="#F8DAF4"/>
<path d="M307.412 115.149C308.436 114.755 309.491 114.448 310.565 114.23C312.617 114.045 314.608 113.437 316.416 112.442C319.242 110.754 322.365 110.444 325.439 109.894C325.984 109.764 326.554 109.794 327.082 109.982C327.61 110.17 328.072 110.507 328.414 110.953C332.712 115.654 335.386 121.629 336.039 127.986C336.024 128.465 336.067 128.945 336.168 129.414C337.795 133.909 336.377 138.195 335.177 142.461C334.84 143.679 334.185 144.768 334.542 146.127C334.899 147.485 333.917 148.534 333.62 149.743C332.956 152.37 332.4 155.018 334.195 157.475C332.062 163.375 328.452 168.619 323.714 172.699C321.889 172.33 321.503 170.971 321.83 169.463C322.296 167.305 323 165.197 323.605 163.079C322.613 161.481 323.218 159.952 323.962 158.554C327.71 151.501 329.782 143.779 332.688 136.397C334.671 131.402 331.597 122.411 327.254 119.315C326.544 118.806 325.737 118.449 324.884 118.267C324.031 118.085 323.15 118.081 322.296 118.256C316.723 119.255 311.23 120.663 305.578 121.253C304.954 121.365 304.314 121.348 303.697 121.204C303.08 121.06 302.499 120.791 301.988 120.414C300.471 115.209 305.429 116.687 307.412 115.149Z" fill="#D8B6D1"/>
<path d="M276.97 46.1006C276.901 47.0996 276.911 48.0985 275.979 48.618C275.555 48.8486 275.084 48.9775 274.602 48.9949C274.121 49.0122 273.642 48.9174 273.202 48.7179C271.92 48.0691 270.678 47.3419 269.484 46.5401C267.332 45.1915 265.22 43.773 263.048 42.4644C260.877 41.1557 258.695 41.2656 256.236 42.0848C251.119 43.783 247.064 47.1295 242.959 50.3362C240.688 52.1143 238.546 53.8925 235.809 54.8515C235.224 55.0948 234.654 55.3751 234.104 55.6906C233.608 56.3 232.686 56.0403 232.2 56.6896C228.52 57.4647 225.053 59.036 222.036 61.2948C220.251 62.6234 218.387 63.7523 216.017 63.4026C218.671 61.1537 221.565 59.2073 224.644 57.5987C228.66 55.4109 232.656 53.1732 236.007 49.9766C236.454 46.5901 239.766 45.9308 241.729 43.9828C245.383 40.2314 249.558 37.0346 254.124 34.4927C258.626 32.1251 262.969 31.4958 267.511 34.4927C268.889 35.4117 270.307 36.6504 272.211 36.4906C274.039 38.7029 275.351 41.301 276.048 44.0927C276.584 44.6521 276.356 45.5711 276.98 46.0906L276.97 46.1006Z" fill="#E0BDD9"/>
<path d="M233.181 46.1007C232.078 46.0418 230.986 46.3432 230.067 46.9598C221.143 53.523 211.168 58.2381 201.222 62.9432C200.476 63.1799 199.702 63.3143 198.921 63.3428C203.79 58.5678 209.541 55.0714 215.362 51.635C218.466 49.7969 221.401 47.6391 224.376 45.6412C224.836 45.2115 225.236 44.7208 225.566 44.1827C225.179 41.5455 227.301 40.6964 228.927 39.6375C235.125 35.6416 241.56 31.9954 246.974 26.7508C250.435 23.3943 255.333 22.4853 259.865 21.1167C261.778 22.3654 263.388 24.0314 264.575 25.9916C264.912 28.6788 262.899 29.448 261.075 29.448C253.826 29.448 249.731 34.283 245.457 39.068C242.165 42.7342 238.407 45.7711 233.181 46.1007Z" fill="#E9C4E2"/>
<path d="M233.181 46.1005C235.57 44.3324 237.633 42.1047 240.667 41.2955C241.737 40.9432 242.627 40.183 243.146 39.1777C244.763 36.3706 247.271 34.3927 249.453 32.1151C250.718 30.683 252.286 29.556 254.042 28.8176C255.798 28.0792 257.697 27.7483 259.597 27.8495C261.481 27.9494 263.464 28.0593 264.555 25.9714C266.668 27.6966 268.327 29.92 269.384 32.4447C269.609 32.8968 269.93 33.2927 270.326 33.6035L271.189 34.6025C271.286 34.85 271.33 35.1156 271.318 35.3817C271.533 35.834 271.844 36.233 272.23 36.5504C271.851 36.9611 271.359 37.2487 270.816 37.3768C270.274 37.5049 269.707 37.4676 269.186 37.2697C267.324 36.8665 265.594 35.9934 264.158 34.7323C263.643 34.2293 262.991 33.8916 262.285 33.7618C261.579 33.632 260.851 33.7159 260.192 34.0031C256.315 35.3317 252.606 36.8901 249.433 39.6872C246.85 41.7479 244.381 43.9488 242.036 46.2803C240.39 48.0885 237.811 48.3582 236.017 49.9365C233.538 49.8266 231.535 51.1653 229.542 52.374C226.567 54.1621 223.731 56.0502 220.855 57.9282C219.461 58.9613 217.777 59.521 216.046 59.5266V58.5276C216.4 58.219 216.731 57.8851 217.037 57.5286C218.525 56.6196 220.012 55.6906 221.49 54.7915C225.645 52.334 229.839 49.8266 233.181 46.1005Z" fill="#E4C1DD"/>
<path d="M259.816 21.1365C259.795 21.767 259.571 22.3734 259.177 22.8638C258.784 23.3543 258.242 23.7018 257.634 23.8537C256.87 24.0435 256.097 24.1934 255.333 24.4032C251.476 25.3352 247.99 27.4253 245.338 30.3969C243.184 32.7147 240.652 34.644 237.852 36.101C233.637 38.5584 229.324 40.906 225.566 44.0927L221.758 45.0917C222.987 43.1437 224.812 41.6053 225.566 39.3376C225.566 39.1079 225.566 38.8781 225.566 38.6484C225.644 38.1991 225.805 37.7686 226.042 37.3797C229.334 34.5526 232.348 31.306 236.017 28.8485C237.988 27.6207 239.891 26.2868 241.719 24.8527C245.093 21.9059 248.636 19.1607 252.329 16.6312C252.659 16.3012 252.925 15.9115 253.112 15.4824C255.641 17.0208 258.179 18.5592 259.816 21.1365Z" fill="#ECCCE4"/>
<path d="M112.265 205.305C114.923 204.306 117.53 205.185 120.138 205.565C123.708 206.085 127.258 206.724 130.828 207.123C132.083 207.159 133.336 206.987 134.536 206.614C136.686 206.081 138.924 206.016 141.101 206.424C143.59 206.934 146.059 206.984 148.568 207.313C151.998 207.773 155.419 208.092 158.87 208.312C160.853 208.442 162.747 209.481 164.691 210.11C162.192 211.639 159.316 211.869 156.54 212.348C151.879 213.157 147.219 214.046 142.449 213.876C134.544 213.63 126.749 211.937 119.444 208.882C117.025 207.813 114.268 207.263 112.265 205.305Z" fill="#DBBCD5"/>
<path d="M36.0013 205.345C37.5819 205.272 39.1623 205.496 40.6618 206.005C43.8449 207.004 47.0874 207.703 50.2804 208.622C52.1153 209.108 54.0377 209.152 55.8928 208.752C59.77 208.052 63.6075 207.023 67.6036 207.173C68.3948 207.228 69.188 207.101 69.924 206.804C71.7429 205.803 73.8784 205.559 75.8736 206.124C76.4158 206.265 76.9807 206.295 77.5344 206.21C78.0882 206.126 78.6194 205.931 79.0963 205.635C81.242 204.549 83.6461 204.089 86.0375 204.306C86.8267 204.406 87.628 204.334 88.3876 204.097C90.7872 202.998 93.0382 203.747 95.3288 204.386C90.3708 207.953 84.5402 209.601 78.6996 210.979C73.1467 212.288 67.5045 212.278 61.8424 212.188C54.8945 211.962 48.0277 210.613 41.5047 208.192C39.4886 207.652 37.6116 206.681 36.0013 205.345Z" fill="#DABFD6"/>
<path d="M322.654 93.1017C321.136 96.5281 318.876 99.6449 318.588 103.601C318.461 104.229 318.173 104.814 317.755 105.297C317.336 105.781 316.799 106.146 316.198 106.358C313.937 107.437 311.627 108.356 309.336 109.355L298.865 111.313C301.497 108.415 304.763 106.175 308.404 104.77C312.658 103.111 313.799 101.193 312.837 96.7778C312.103 93.4013 312.004 89.885 310.566 86.6584C310.385 85.89 310.325 85.0979 310.387 84.3108C314.136 85.4096 316.922 88.0269 319.907 90.3046C320.222 90.5398 320.502 90.819 320.74 91.1337L320.799 91.1936C321.135 91.4689 321.45 91.7694 321.741 92.0927C322.078 92.3824 322.356 92.742 322.733 93.0317L322.654 93.1017Z" fill="#E0C1DA"/>
<path d="M229.572 3.87441C229.19 3.91254 228.804 3.86013 228.446 3.72136C228.088 3.58259 227.767 3.36132 227.509 3.07524C227.89 3.04958 228.272 3.10777 228.628 3.24579C228.984 3.3838 229.306 3.59831 229.572 3.87441Z" fill="#F8DAF4"/>
<path d="M245.566 10.6074C245.191 10.6111 244.822 10.5219 244.49 10.3476C244.158 10.1734 243.874 9.91954 243.662 9.6084C244.031 9.63176 244.391 9.73272 244.719 9.90477C245.047 10.0768 245.335 10.3162 245.566 10.6074Z" fill="#F0D0EB"/>
<path d="M3.70523 127.476C3.72795 127.848 3.66762 128.221 3.52862 128.567C3.38963 128.913 3.17552 129.223 2.90203 129.474C2.88073 129.102 2.94173 128.73 3.08064 128.384C3.21954 128.039 3.43286 127.728 3.70523 127.476Z" fill="#F8D3F0"/>
<path d="M276.97 46.1005C276.673 45.8622 276.434 45.5579 276.272 45.2114C276.11 44.8648 276.03 44.4854 276.038 44.1025C276.325 44.3505 276.556 44.6567 276.716 45.001C276.877 45.3454 276.963 45.72 276.97 46.1005Z" fill="#DDB9D6"/>
<path d="M190.295 223.556C190.682 223.542 191.066 223.626 191.413 223.8C191.76 223.975 192.057 224.235 192.278 224.555C191.893 224.558 191.512 224.468 191.168 224.295C190.823 224.121 190.524 223.868 190.295 223.556Z" fill="#DABAD3"/>
<path d="M188.292 222.647C188.687 222.626 189.081 222.707 189.437 222.882C189.792 223.056 190.098 223.32 190.325 223.646C189.935 223.634 189.552 223.539 189.202 223.366C188.851 223.194 188.541 222.949 188.292 222.647Z" fill="#DABAD3"/>
<path d="M165.613 210.02C165.86 209.739 166.166 209.516 166.509 209.369C166.852 209.222 167.224 209.155 167.596 209.171C167.347 209.45 167.041 209.671 166.698 209.817C166.356 209.964 165.985 210.033 165.613 210.02Z" fill="#DBBCD5"/>
<path d="M302.672 186.135C302.92 185.824 303.239 185.579 303.602 185.421C303.965 185.262 304.36 185.195 304.755 185.226C304.489 185.514 304.166 185.744 303.808 185.9C303.45 186.057 303.063 186.137 302.672 186.135Z" fill="#DABAD3"/>
<path d="M305.528 185.136C305.769 184.843 306.072 184.608 306.416 184.449C306.759 184.29 307.133 184.211 307.511 184.217C307.269 184.509 306.966 184.743 306.623 184.902C306.279 185.061 305.906 185.141 305.528 185.136Z" fill="#DABAD3"/>
<path d="M12.2625 184.217C12.5564 184.431 12.7983 184.71 12.97 185.031C13.1418 185.353 13.2389 185.71 13.2541 186.075C12.9591 185.862 12.7164 185.584 12.5445 185.262C12.3726 184.94 12.2762 184.582 12.2625 184.217Z" fill="#E1B9DB"/>
<path d="M301.72 119.944H305.528C305.29 123.94 300.689 124.539 299.648 127.876C290.902 134.419 282.354 141.222 272.19 145.547C266.489 147.975 260.777 146.077 257.594 140.443C253.122 132.531 252.15 124.589 257.287 116.557C262.512 105.179 267.897 93.7811 267.421 80.7946C267.123 72.5932 262.79 66.1099 257.832 60.0362C256.305 58.1781 254.203 58.3979 252.14 59.0372C250.077 59.8402 248.064 60.7676 246.111 61.8144C240.985 63.6425 236.443 66.6993 232.229 69.886C221.103 78.2373 209.194 85.5097 198.852 94.9599C194.659 98.6151 190.885 102.73 187.597 107.227C185.287 110.534 182.718 113.89 178.871 115.089C169.728 117.936 163.471 124.829 156.322 130.493C155.072 131.492 153.992 132.811 152.544 133.36C145.315 136.157 140.357 141.581 135.587 147.415C131.274 152.71 125.027 155.407 119.206 158.644C117.757 159.525 116.084 159.96 114.393 159.896C112.702 159.832 111.066 159.272 109.687 158.284C100.852 151.921 91.2034 151.631 81.1189 153.819C80.6631 153.958 80.1853 154.009 79.7108 153.969C67.3654 151.761 57.9848 158.584 48.2473 164.398C44.975 166.396 41.8118 168.474 38.6189 170.531C30.0812 176.016 29.1292 185.146 33.3237 192.509C34.8636 195.152 36.6858 197.617 38.7577 199.861C39.0451 200.222 39.2193 200.66 39.2582 201.121C39.297 201.582 39.1987 202.044 38.9758 202.448C35.0094 202.179 32.0346 199.791 28.7227 198.043C28.1292 197.536 27.6378 196.918 27.275 196.225L24.6968 192.868C25.0439 189.622 24.2704 186.475 23.4969 183.418C22.2079 178.323 24.1415 174.777 27.9691 171.82C32.8 167.963 37.9186 164.486 43.2794 161.421C49.229 158.134 54.9803 154.428 60.7117 150.702C62.6649 149.33 65.0053 148.629 67.3852 148.704C70.717 148.834 74.0488 148.704 77.3805 148.704C79.2819 148.844 81.193 148.658 83.0327 148.155C83.6251 147.921 84.2631 147.829 84.8969 147.885C88.8633 148.464 92.7305 147.565 96.6374 147.196C99.4904 146.961 102.352 147.536 104.897 148.854C107.484 150.069 110.156 151.094 112.89 151.921C116.697 153.199 120.049 152.28 123.073 149.793C123.724 149.095 124.484 148.511 125.324 148.065C128.686 146.896 130.877 144.279 132.752 141.581C135.052 138.275 138.453 136.017 140.516 132.541C141.03 131.918 141.768 131.527 142.568 131.452C146.875 130.295 150.774 127.945 153.823 124.669C157.145 121.273 160.764 118.176 164.384 115.049C165.547 114.221 166.774 113.486 168.052 112.851C171.969 110.434 175.856 107.966 179.783 105.569C181.144 104.745 182.327 103.654 183.264 102.362C186.269 98.2417 189.88 94.607 193.973 91.5834C195.773 90.2797 197.455 88.8189 199 87.218C202.124 83.9014 206.576 82.6927 209.987 79.8556C210.533 79.5445 211.054 79.1905 211.544 78.7967C215.441 74.2514 220.905 71.804 225.426 68.0479C227.975 65.96 231.079 64.5315 234.014 62.9632C239.358 60.1061 244.009 56.2601 248.818 52.6339C249.043 52.3961 249.227 52.1227 249.364 51.8247C250.94 51.9849 252.528 51.6794 253.935 50.9456C256.761 49.2574 258.824 50.3063 260.985 52.4541C263.573 55.0314 265.646 57.9983 267.986 60.7555C271.072 64.5664 273.177 69.0853 274.114 73.9118C276.834 82.2834 276.219 91.392 272.399 99.3154C269.483 105.509 267.381 112.032 265.051 118.456C263.365 123.071 264.486 125.648 269.196 126.747C275.621 128.225 282.087 129.454 288.304 125.139C291.635 123.015 295.158 121.212 298.825 119.754C299.54 119.567 300.291 119.567 301.006 119.754L301.72 119.944Z" fill="#D9B1D2"/>
<path d="M198.911 63.3626C198.814 63.4847 198.696 63.5894 198.564 63.6723C194.37 65.3405 190.136 66.8789 185.584 67.1986C189.779 65.0608 194.092 63.3026 198.911 63.3626Z" fill="#E9C4E2"/>
<path d="M185.584 67.1987C182.49 68.6871 179.635 70.8149 176.065 71.0347C177.25 69.6978 178.726 68.6557 180.377 67.9902C182.029 67.3246 183.811 67.0537 185.584 67.1987Z" fill="#E9C4E2"/>
<path d="M174.161 71.9937C173.916 72.5541 173.517 73.0323 173.011 73.3721C172.505 73.7119 171.913 73.8991 171.305 73.9117C171.551 73.3512 171.95 72.873 172.456 72.5332C172.961 72.1934 173.553 72.0062 174.161 71.9937Z" fill="#E9C4E2"/>
<path d="M171.305 73.9116C171.056 74.4665 170.655 74.9385 170.149 75.2727C169.643 75.607 169.054 75.7897 168.449 75.7997C168.7 75.2455 169.101 74.7742 169.607 74.4401C170.112 74.106 170.701 73.9228 171.305 73.9116Z" fill="#E9C4E2"/>
<path d="M176.065 71.0347C175.841 71.3332 175.554 71.5778 175.225 71.7506C174.895 71.9234 174.532 72.0201 174.161 72.0336C174.385 71.7356 174.672 71.4914 175.001 71.3186C175.331 71.1459 175.694 71.0489 176.065 71.0347Z" fill="#E9C4E2"/>
<path d="M167.497 76.7988C167.276 77.0948 166.992 77.3379 166.666 77.5106C166.34 77.6833 165.981 77.7813 165.613 77.7978C165.835 77.5023 166.119 77.2596 166.445 77.087C166.77 76.9143 167.13 76.816 167.497 76.7988Z" fill="#E9C4E2"/>
<path d="M38.986 202.418L37.9944 200.5C39.4124 198.322 41.8617 198.073 43.944 198.053C56.5969 197.913 69.091 195.765 81.7042 195.166C87.2105 194.781 92.6613 193.813 97.9664 192.279C102.423 190.997 107.172 191.204 111.502 192.868C127.546 199.271 144.125 197.273 160.646 196.634C164.146 196.494 167.696 196.424 170.918 197.933C177.215 200.87 183.958 202.928 189.66 207.063C190.106 207.293 190.552 207.533 191.008 207.743C191.46 207.94 191.886 208.191 192.278 208.492C194.261 210.899 198.445 211.489 197.94 215.844C194.469 215.447 191.145 214.21 188.252 212.238C185.842 210.749 183.542 209.061 180.805 208.172C179.188 206.584 177.532 205.175 174.984 205.854C174.507 205.875 174.036 205.746 173.635 205.485C168.965 203.237 163.938 202.798 158.89 202.388C157.8 202.298 156.719 201.979 155.628 201.819C154.719 201.562 153.767 201.497 152.832 201.629C150.57 202.329 148.152 202.329 145.891 201.629C144.64 201.415 143.366 201.365 142.103 201.479C137.145 201.479 132.286 201.429 127.377 201.479C124.848 201.505 122.33 201.141 119.911 200.4C116.281 199.321 112.493 198.752 109.003 197.303C107.228 196.574 105.582 197.923 103.866 197.383C102.369 196.914 101.199 195.655 99.4836 195.705C98.2183 195.728 96.9628 195.933 95.7552 196.314C90.6239 197.998 85.3283 199.124 79.959 199.671C77.6287 199.901 75.3976 200.95 73.0773 201.409C67.9705 202.408 62.834 203.297 57.6975 204.156C56.4405 204.304 55.1749 204.364 53.9096 204.336C52.4817 204.336 50.9348 203.996 49.6557 204.466C45.6298 205.974 42.3476 204.076 38.986 202.418Z" fill="#D6B3CF"/>
<path d="M236.017 28.8486C233.233 32.4142 230.037 35.6335 226.498 38.4387C226.22 38.7883 225.833 39.038 225.506 39.4376C222.135 41.0959 218.773 42.7742 215.402 44.5223C212.874 45.8608 210.24 46.9868 207.528 47.8888C206.129 48.2376 204.792 48.8002 203.562 49.5571C200.438 51.8248 196.789 52.8237 193.17 53.9526C186.526 56.0857 180.019 58.6279 173.685 61.5646C168.35 64.0321 162.956 66.3497 158.047 69.5563C152.247 73.4023 146.049 76.639 140.744 81.2542C137.938 83.6917 135.885 86.7085 133.634 89.5755C132.355 91.1939 131.225 92.9321 130.005 94.5704C129.668 95.1117 129.254 95.5999 128.775 96.0189C125.206 98.6561 122.191 102.013 118.354 104.29C117.585 104.858 116.727 105.29 115.815 105.569C112.027 106.268 108.953 108.766 105.255 109.665C104.209 110.039 103.194 110.496 102.22 111.033C99.9375 112.144 97.5973 113.131 95.2098 113.99C90.9558 115.279 87.039 117.487 82.6264 118.306C79.6553 118.834 76.7427 119.654 73.93 120.753C69.5993 122.288 65.0834 123.228 60.5038 123.55C55.8432 124.05 51.5793 125.708 47.2956 127.266C40.4635 129.744 33.7305 132.491 26.7893 134.559C22.2478 135.907 17.8649 137.895 13.4424 139.554C12.3008 140.123 11.3393 141.002 10.6659 142.091C8.89576 144.371 6.53984 146.119 3.85362 147.146C2.03899 147.845 1.32504 147.415 0.977981 145.338C0.937922 144.859 0.937922 144.378 0.977981 143.899C4.60724 142.9 7.72087 141.212 9.70407 137.795C11.0781 135.612 13.159 133.975 15.5942 133.16C19.6994 131.552 23.6856 129.704 28.0784 128.745C33.9289 127.476 39.6504 125.608 45.4116 123.93C46.7788 123.514 48.1063 122.976 49.378 122.322C51.0313 121.358 52.9023 120.839 54.812 120.813C55.1301 120.84 55.4504 120.803 55.754 120.703C63.0323 117.816 70.9751 117.916 78.3724 115.708C83.1916 114.25 87.7926 112.082 92.5027 110.254C93.3852 109.914 94.2975 109.655 95.1999 109.365C100.634 106.528 106.256 104.06 111.73 101.303C119.325 97.4773 125.107 91.2138 130.719 85.0003C143.392 71.0148 159.882 62.8133 176.333 54.7917C184.355 50.8857 192.763 47.3095 201.807 46.0707C204.782 45.1817 207.885 44.3925 210.86 43.3835C218.585 40.7563 225.258 36.2809 231.466 31.0663C232.742 29.9053 234.321 29.1358 236.017 28.8486Z" fill="#F1CAE9"/>
<path d="M194.151 25.9616C193.765 28.449 192.258 30.4369 191.296 32.6746C190.988 34.5726 189.412 35.0921 187.994 35.7414C177.939 40.2767 167.021 42.5843 157.214 47.8289C154.487 49.2873 151.146 49.8268 148.459 47.0497C147.001 45.7011 145.375 46.0507 143.738 46.6001C142.449 47.0597 141.17 47.5392 139.891 48.0087C143.206 43.4995 148.104 40.434 153.585 39.4376C155.287 39.1245 156.913 38.4835 158.375 37.5495C164.278 33.8321 170.741 31.106 177.512 29.4779C178.738 29.1587 179.989 28.9481 181.251 28.8486C184.08 28.5672 186.867 27.9468 189.55 27.0005C191.068 26.5809 192.515 25.8517 194.151 25.9616Z" fill="#FDD8F5"/>
<path d="M111.333 76.7988C109.886 80.5213 107.382 83.7317 104.134 86.0292C98.9977 89.4357 93.6629 92.5425 88.4074 95.7691C88.1131 95.8881 87.8018 95.9589 87.4852 95.9789C88.4768 94.7901 89.4684 93.5614 90.5592 92.4126C91.9762 90.9455 93.3009 89.3908 94.5256 87.7574C96.3055 85.1437 98.809 83.115 101.725 81.9235C105.126 80.6049 108.17 78.537 111.333 76.7988Z" fill="#FDD8F5"/>
<path d="M136.084 51.8247C135.34 55.1912 132.573 56.9893 130.203 58.8874C127.182 61.1183 124.528 63.8153 122.34 66.8791C121.487 68.2062 120.322 69.3007 118.949 70.0658C119.136 69.3034 119.433 68.573 119.831 67.898C121.654 65.6874 123.237 63.2861 124.551 60.7354C125.18 59.4337 126.129 58.316 127.308 57.4888C130.184 55.5508 133.148 53.7327 136.084 51.8247Z" fill="#FDD8F5"/>
<path d="M197.959 215.844C196.452 213.077 193.398 212.148 191.296 210.09C191.008 209.74 190.651 209.461 190.304 209.091C189.64 207.842 188.053 206.883 189.104 205.095C191.008 203.697 192.605 204.776 194.36 205.585C197.057 206.823 199.318 209.111 202.531 209.121C208.758 210.48 214.936 210.659 220.984 208.272C221.609 207.992 222.254 207.762 222.888 207.503C230.286 203.817 236.146 198.512 239.746 190.95C241.887 188.552 242.532 185.406 243.95 182.639C245.15 180.311 246.022 177.644 248.739 176.515C251.268 175.736 253.301 177.584 255.681 177.804C256.315 177.804 256.95 177.804 257.594 177.744C258.255 177.675 258.922 177.695 259.578 177.804C261.466 177.936 263.361 177.936 265.249 177.804C265.958 177.747 266.67 177.839 267.342 178.073C271.824 180.231 276.266 179.622 280.728 177.953C295.979 177.224 306.688 168.164 316.753 157.974C317.832 156.798 318.707 155.447 319.341 153.978C321.949 148.504 324.736 143.13 328.791 138.594C332.847 134.059 329.614 130.413 327.869 126.407C326.322 122.861 323.635 122.571 320.432 123.031C315.137 123.79 309.802 124.179 304.566 125.248C302.583 125.368 301.076 127.596 298.835 126.597C298.899 126.063 299.079 125.551 299.362 125.095C299.644 124.639 300.023 124.251 300.471 123.96C302.196 122.671 303.852 121.292 305.538 119.964C307.521 118.675 309.862 119.185 311.994 118.615C315.048 117.806 318.141 117.107 321.235 116.497C322.639 116.273 324.059 116.172 325.479 116.198C325.958 116.197 326.432 116.296 326.872 116.486C327.312 116.677 327.708 116.956 328.038 117.306C332.579 121.882 335.504 127.156 334.979 133.879C334.915 134.673 334.752 135.455 334.493 136.207C332.51 142.081 330.48 147.948 328.404 153.809C327.968 155.005 327.444 156.167 326.838 157.285C325.846 159.283 324.686 161.181 323.595 163.129C320.848 164.707 319.688 167.664 317.844 170.012C316 172.359 314.413 175.007 312.767 177.514C312.313 178.265 311.703 178.909 310.979 179.4C310.255 179.892 309.434 180.219 308.572 180.361C306.589 180.711 304.606 181.52 302.514 181.36C301.881 181.315 301.245 181.39 300.64 181.58C296.257 182.983 291.654 183.552 287.065 183.258C286.736 183.214 286.402 183.214 286.073 183.258C283.799 183.902 281.478 184.367 279.132 184.647C276.812 184.746 274.481 183.817 272.092 184.587C271.318 184.715 270.527 184.674 269.771 184.467C267.609 184.137 265.547 183.388 263.237 183.877C262.126 184.107 260.807 183.368 259.597 183.018C255.542 181.839 254.55 182.229 253.558 186.475C252.779 189.565 251.567 192.529 249.959 195.275C248.332 198.167 246.551 200.969 244.624 203.667C243.038 205.894 240.588 207.283 238.357 208.712C235.626 210.636 232.582 212.066 229.363 212.937C229.076 213.287 228.689 213.536 228.372 213.936H227.38C227.093 214.286 226.706 214.535 226.389 214.935C219.31 217.16 211.902 218.134 204.494 217.812C203.076 216.653 201.152 218.012 199.734 216.813C199.328 216.234 198.475 216.414 197.959 215.844Z" fill="#D5B2CE"/>
<path d="M199.863 216.803C201.489 216.923 203.244 216.384 204.623 217.802C202.996 217.652 201.241 218.182 199.863 216.803Z" fill="#D6B3CF"/>
<path d="M197.96 215.844C198.331 215.858 198.694 215.954 199.024 216.127C199.353 216.3 199.64 216.545 199.864 216.843C199.493 216.83 199.129 216.733 198.8 216.56C198.47 216.387 198.183 216.143 197.96 215.844Z" fill="#D6B3CF"/>
<path d="M299.817 120.903C298.607 121.642 297.387 122.371 296.197 123.13C295.616 123.673 294.944 124.109 294.214 124.419C291.14 124.959 288.83 126.996 286.222 128.415C283.614 129.834 281.185 130.822 278.14 129.873C276.445 129.502 274.703 129.387 272.974 129.534C270.455 129.499 267.982 128.851 265.765 127.646C264.253 126.923 263.083 125.633 262.504 124.051C261.926 122.469 261.986 120.722 262.671 119.185C265.438 112.761 267.114 105.948 270.188 99.6449C271.913 96.1086 273.807 92.6022 273.381 88.4066C273.42 87.7675 273.603 87.1458 273.916 86.5884C274.741 84.5243 274.884 82.2474 274.323 80.0952C273.876 78.0973 274.154 75.9795 274.124 73.9116C276.236 75.7497 276.405 78.4769 276.712 80.9044C277.317 85.5795 278.418 90.2546 277.932 95.0397C277.02 95.7989 277.932 97.1575 276.94 97.9167L275.949 101.753C275.602 102.032 275.354 102.422 274.957 102.752C274.957 103.418 274.957 104.057 274.957 104.67C274.61 104.949 274.362 105.339 273.966 105.669C273.817 106.288 273.718 106.917 273.51 107.517C273.16 108.493 273.175 109.564 273.553 110.529C273.931 111.495 274.645 112.288 275.562 112.761C279.043 114.759 281.849 117.536 285.042 119.844C287.838 121.842 288.503 121.992 291.398 120.114C292.841 119.143 294.405 118.367 296.049 117.806C298.419 116.914 300.65 115.682 302.672 114.15C304.051 115.518 305.806 114.989 307.432 115.149C306.53 115.768 305.657 116.457 304.715 116.997C303.451 117.677 302.415 118.72 301.74 119.994C301.215 120.523 300.312 120.313 299.817 120.903Z" fill="#DDB6D6"/>
<path d="M232.229 56.6496C232.453 56.351 232.74 56.1065 233.07 55.9337C233.399 55.7609 233.762 55.6642 234.133 55.6506C233.91 55.9492 233.623 56.1938 233.293 56.3666C232.964 56.5394 232.601 56.6361 232.229 56.6496Z" fill="#E1B9DB"/>
<path d="M201.767 46.1005C201.211 47.0781 200.296 47.7958 199.219 48.0985C192.962 50.3561 186.774 52.8236 180.487 54.9414C175.402 56.7289 170.527 59.0739 165.951 61.9341C162.034 64.3116 157.859 66.2596 154.289 69.2565C152.514 70.7449 150.105 71.4043 148.032 72.5631C142.251 75.7997 137.66 80.355 133.158 85.1C130.397 88.158 127.374 90.9659 124.125 93.4913C122.849 94.4365 121.681 95.5221 120.644 96.7279C117.134 100.854 112.533 103.371 107.654 105.229C104.412 106.468 101.13 107.627 97.9069 108.925C97.001 109.192 96.0709 109.366 95.1304 109.445C95.9176 108.033 97.1966 106.965 98.72 106.448C100.943 105.287 103.072 103.951 105.086 102.452C105.978 101.813 106.948 101.293 107.972 100.904C112.087 99.575 115.498 97.0576 118.879 94.5402C123.232 91.3723 126.621 87.0446 128.666 82.0432C129.658 79.5758 131.949 77.7277 132.226 74.8806C131.443 72.623 132.434 70.8848 133.803 69.2065C134.666 68.0476 135.834 67.1549 137.174 66.6292C155.152 60.8153 170.918 49.8766 188.976 44.3624C191.117 43.703 193.289 43.0437 195.094 45.1415C197.345 45.1815 199.675 44.8319 201.767 46.1005Z" fill="#F3CBEC"/>
<path d="M195.104 45.1417C192.739 45.0581 190.39 45.5588 188.262 46.6002C183.77 48.5481 179.188 50.2863 174.538 51.8247C170.369 53.273 166.392 55.2324 162.698 57.6587C158.491 60.472 153.884 62.6243 149.034 64.042C145.692 64.9511 142.509 66.3996 139.237 67.5784C137.964 67.9995 136.79 68.6809 135.79 69.5799C134.791 70.4789 133.986 71.5761 133.426 72.8029C133.099 73.5122 132.663 74.1715 132.276 74.8009C130.697 75.8165 129.371 77.1836 128.399 78.7967C126.567 81.6938 123.948 83.9997 120.853 85.4398C121.061 83.4419 122.469 82.1332 123.441 80.5848C124.893 78.588 125.953 76.3298 126.564 73.9318C126.343 73.2567 126.295 72.5361 126.425 71.8373C126.555 71.1385 126.859 70.4843 127.308 69.9359C129.926 66.1498 132.692 62.4737 135.548 58.8874C138.057 55.7307 142.063 55.7107 145.573 55.391C149.968 55.0186 154.24 53.7437 158.127 51.6449C168.136 46.2289 178.803 42.1488 189.858 39.5075C190.579 39.4044 191.312 39.4383 192.02 39.6074C192.469 39.7681 192.874 40.0353 193.2 40.3866C195.768 40.4965 198.158 41.7352 200.815 41.3856C199.933 41.9949 199.08 42.6443 198.158 43.1937C197.236 43.7431 195.897 44.1227 195.104 45.1417Z" fill="#F7CFEF"/>
<path d="M193.2 40.3466H192.208C191.921 40.6962 191.534 40.946 191.217 41.3456C189.991 41.4336 188.773 41.597 187.567 41.8351C179.134 43.8291 170.956 46.7921 163.194 50.6659C161.369 51.6149 159.505 52.464 157.7 53.453C154.37 55.2705 150.705 56.3822 146.932 56.7196C144.75 56.9294 142.579 57.3589 140.417 57.7186C139.637 57.8151 138.884 58.0682 138.203 58.4628C137.521 58.8574 136.926 59.3856 136.45 60.0162C133.198 64.6613 129.4 68.9169 126.604 73.9017C123.629 77.0085 120.912 80.3051 117.779 83.1821C113.128 87.4677 108.388 91.6933 102.677 94.6202C101.427 95.2596 100.386 96.3085 99.1861 97.0677C97.3417 98.2265 95.7552 100.005 93.2365 99.7948C95.7869 96.5691 98.6871 93.6406 101.883 91.0639C104.703 88.7636 107.686 86.6736 110.808 84.8104C113.535 83.1422 115.468 80.5548 118.027 78.6968C120.219 76.8661 122.075 74.6615 123.51 72.1835C127.07 66.3196 131.879 61.4247 136.222 56.2001C137.425 54.8009 138.925 53.6919 140.61 52.9553C142.296 52.2187 144.124 51.8733 145.96 51.9446C149.464 51.9206 152.907 51.025 155.985 49.3373C166.516 43.833 178.038 40.5464 188.757 35.4017C191.353 34.243 194.159 33.6409 196.998 33.6336H197.989C198.277 33.2839 198.663 33.0342 198.981 32.6346C200.692 32.7501 202.403 32.4054 203.939 31.6357C204.797 31.2708 205.682 30.9735 206.586 30.7466C205.277 33.1341 202.947 34.1431 200.805 35.3618C199.316 36.1826 197.78 36.9132 196.204 37.5495C194.906 38.0948 193.842 39.0858 193.2 40.3466Z" fill="#F8D3F1"/>
<path d="M197.008 33.6336C194.37 35.4417 191.118 35.8413 188.331 37.3498C188.192 37.4197 188.014 37.4197 187.885 37.4996C177.761 43.1637 166.248 45.5612 156.154 51.3153C153.154 53.158 149.666 54.0329 146.158 53.8226C143.94 53.7394 141.73 54.1451 139.683 55.0114C137.87 55.6162 136.307 56.8109 135.241 58.4079C133.763 60.6555 132.157 62.8333 130.561 65.001C129.737 66.1638 128.836 67.2685 127.863 68.3076C126.287 69.8671 124.932 71.6387 123.838 73.5721C122.539 75.9497 120.912 78.1374 118.007 78.7567C118.709 77.3507 119.539 76.013 120.486 74.7609C122.454 72.0671 124.278 69.2694 125.95 66.3796C127.149 64.2918 128.161 62.2239 130.58 61.2449C131.434 60.8307 132.156 60.1835 132.663 59.3769C136.322 53.9434 141.616 49.8362 147.765 47.659C148.035 47.5021 148.28 47.3032 148.489 47.0697C149.599 47.0697 150.71 46.9897 151.82 47.0697C154.211 47.2229 156.587 46.6035 158.603 45.3015C162.847 42.8628 167.355 40.9253 172.039 39.5275C178.504 37.4796 184.88 34.9822 191.296 32.6746C193.25 32.6546 195.223 32.5647 197.008 33.6336Z" fill="#FBD4F2"/>
<path d="M90.3903 101.773C90.081 102.3 89.6696 102.758 89.1805 103.121C87.0783 104.02 84.9166 104.79 82.7748 105.609C83.685 104.443 84.8398 103.495 86.1563 102.832C87.4729 102.169 88.9187 101.807 90.3903 101.773Z" fill="#F8D3F1"/>
<path d="M93.2268 99.7749C92.9947 100.347 92.6037 100.84 92.1008 101.194C91.5978 101.549 91.0041 101.75 90.3908 101.773C90.6229 101.2 91.0138 100.708 91.5168 100.353C92.0198 99.9989 92.6135 99.7981 93.2268 99.7749Z" fill="#F8D3F1"/>
<path d="M297.913 111.313C297.877 111.416 297.81 111.506 297.721 111.569C297.632 111.633 297.526 111.667 297.417 111.667C297.308 111.667 297.202 111.633 297.113 111.569C297.024 111.506 296.957 111.416 296.921 111.313H297.913Z" fill="#E0C1DA"/>
<path d="M276.971 97.8868C276.899 97.3624 276.951 96.8285 277.124 96.3285C277.296 95.8284 277.583 95.3766 277.962 95.0098C278.034 95.5341 277.981 96.0681 277.809 96.5681C277.637 97.0681 277.349 97.52 276.971 97.8868Z" fill="#DDB9D6"/>
<path d="M32.3225 193.787C30.6863 192.159 29.9724 190.041 29.2981 187.903C28.9182 187.019 28.8313 186.034 29.0502 185.096C29.468 183.226 29.6117 181.304 29.4766 179.392C29.4834 178.444 29.6902 177.509 30.0835 176.647C30.4767 175.786 31.0472 175.019 31.7573 174.397C37.4082 169.032 43.8011 164.52 50.7365 161.001C54.1178 159.273 57.3901 157.315 60.593 155.267C63.3514 153.366 66.6439 152.41 69.9835 152.54C76.9247 152.89 83.8659 151.851 90.7277 150.862C95.3189 150.202 99.8406 150.322 103.936 153.259C106.365 154.997 109.33 155.847 111.869 157.535C112.687 158.045 113.626 158.325 114.588 158.348C115.55 158.371 116.501 158.135 117.342 157.665C118.205 157.265 119.048 156.825 119.911 156.416C123.322 154.778 125.999 151.821 129.727 150.732C132.372 147.995 135.016 145.258 137.66 142.52C137.853 142.267 138.023 141.996 138.166 141.711C140.566 138.015 143.511 135.178 147.963 133.949C150.541 133.24 152.703 131.412 154.656 129.524C155.868 128.265 157.215 127.146 158.672 126.187C161.056 124.913 163.075 123.041 164.533 120.753C165.598 119.135 167.19 117.941 169.034 117.376C171.256 116.547 173.497 115.748 175.678 114.809C179.357 113.231 182.619 111.213 184.989 107.727C186.972 104.73 189.372 101.893 191.643 99.0355C193.626 96.5082 196.343 94.76 198.892 92.9019C200.944 91.4259 202.85 89.7532 204.583 87.9071C206.558 85.8309 208.827 84.0603 211.316 82.6526C217.453 78.9881 223.292 74.8394 228.778 70.2455C229.135 69.9304 229.513 69.64 229.909 69.3764C234.361 66.6392 238.833 63.8821 243.295 61.1949C244.015 60.87 244.771 60.632 245.546 60.4856C246.181 64.7312 241.907 65.6303 240.291 68.3474C226.359 77.7976 212.705 87.5475 200.21 98.8857C198.174 100.916 196.444 103.234 195.074 105.769C191.592 111.755 186.478 116.609 180.339 119.754C173.32 123.082 166.841 127.46 161.121 132.741C160.45 133.423 159.709 134.033 158.91 134.559C149.262 140.453 141.061 148.115 132.633 155.597C127.913 159.792 121.656 161.94 115.924 164.637C112.394 166.296 108.983 165.347 106.345 162.55C100.892 156.786 94.1488 155.557 86.7018 156.556C80.901 157.335 75.1001 158.294 69.2398 157.135C66.969 156.686 65.2734 158.134 63.5678 159.133C61.1384 160.632 58.6098 162.04 56.2696 163.618C51.153 167.025 46.3536 170.891 40.5726 173.288C39.1579 173.877 37.9313 174.846 37.0271 176.09C36.1228 177.334 35.5758 178.805 35.446 180.341C34.7656 182.413 34.5888 184.619 34.9304 186.774C35.2774 189.571 34.9502 192.149 32.3225 193.787Z" fill="#D7AFD1"/>
<path d="M298.865 126.657L303.624 123.75C304.814 129.744 299.975 132.361 296.683 135.548C288.125 143.759 277.198 149.084 269.374 158.314C266.054 162.166 262.532 165.837 258.824 169.313C255.125 172.839 252.15 173.209 247.172 170.731C242.195 168.254 240.459 165.487 240.896 160.632C241.02 158.543 241.571 156.503 242.512 154.638C245.933 148.195 246.865 141.172 246.924 133.969C246.837 131.733 247.243 129.505 248.114 127.446C248.352 126.724 248.711 126.048 249.175 125.448C252.825 120.453 254.49 114.659 256.265 108.915C257.892 103.651 259.815 98.4562 260.956 93.0319C261.456 91.0593 261.601 89.0122 261.382 86.9881C261.134 85.0202 260.619 82.7925 262.79 81.344C267.748 83.272 266.826 87.6574 266.429 91.3336C265.686 98.2664 262.255 104.5 260.48 111.193C260.07 113.182 259.54 115.143 258.893 117.067C257.961 119.265 257.098 121.502 256.077 123.65C255.496 124.788 255.173 126.041 255.134 127.32C255.095 128.599 255.339 129.871 255.849 131.042C256.91 133.74 257.892 136.387 258.824 139.094C259.55 140.961 260.86 142.539 262.557 143.588C264.253 144.637 266.243 145.1 268.224 144.908C269.651 144.886 271.03 144.383 272.141 143.479C273.915 141.861 276.057 140.708 278.378 140.123C281.756 139.19 284.822 137.358 287.253 134.818C290.044 131.986 293.328 129.693 296.941 128.055C297.63 127.661 298.275 127.192 298.865 126.657Z" fill="#D4ACCE"/>
<path d="M32.3221 193.787C33.1095 190.259 33.4428 186.643 33.3137 183.028C33.3198 181.76 33.6402 180.514 34.2459 179.402C36.3976 179.162 36.7546 181.03 37.6371 182.309C40.8598 192.059 46.7301 195.385 56.9932 194.976C72.5712 194.357 87.7328 191.05 103.003 188.553C105.981 188.025 109.043 188.304 111.878 189.362C120.277 192.488 128.735 194.946 137.828 192.628C139.237 192.334 140.696 192.382 142.082 192.768C149.076 194.298 156.323 194.22 163.283 192.538C167.489 191.545 171.91 192.109 175.737 194.127C179.704 196.125 183.353 198.712 187.141 201.03C188.598 201.919 190.026 203.147 189.412 205.305L190.403 209.141C187.785 207.673 184.87 206.744 182.569 204.686C182.253 204.33 181.812 204.112 181.34 204.076C178.603 204.866 176.858 202.868 174.865 201.749C169.996 199.032 164.869 198.223 159.346 198.412C154.17 198.592 148.974 199.211 143.768 198.692C142.824 198.675 141.882 198.796 140.972 199.052C137.399 199.767 133.72 199.75 130.153 199.002C123.946 197.763 117.818 196.324 111.73 194.516C106.891 192.975 101.727 192.799 96.796 194.007C90.3882 195.764 83.7832 196.688 77.1425 196.754C73.7115 196.754 70.2707 197.583 66.8298 198.063C65.9143 198.307 64.9781 198.464 64.0335 198.532C58.3219 198.203 52.6896 199.192 47.0276 199.531C44.0528 199.721 41.1474 200.89 38.1032 200.53C36.0406 199.691 34.4343 198.532 33.8393 196.135C33.4597 195.276 32.9477 194.484 32.3221 193.787Z" fill="#D6B1CF"/>
<path d="M258.883 117.067C258.596 113.531 259.538 110.194 260.539 106.868C261.719 102.952 262.87 99.0357 264.089 95.1398C265.081 91.8931 264.833 88.6065 264.536 85.31C264.433 83.8714 263.77 82.532 262.691 81.5838C260.807 80.8746 260.41 79.0864 259.875 77.4282C259.34 75.7699 258.992 74.0317 258.388 72.4333C256.137 66.2897 254.838 65.5205 248.64 66.7193C247.951 66.7503 247.265 66.8304 246.588 66.959C244.347 67.1888 242.165 69.0169 239.845 67.2587L245.556 60.5457C248.351 58.1606 251.821 56.7239 255.472 56.44C255.937 56.3829 256.408 56.4303 256.852 56.5789C257.296 56.7274 257.702 56.9734 258.041 57.2991C260.203 59.3999 262.066 61.7937 263.574 64.4117C265.243 67.3115 266.731 70.3143 268.026 73.4023C268.933 75.621 269.404 77.9957 269.414 80.3951C269.593 86.9039 268.386 93.3758 265.874 99.3754C263.782 104.7 261.868 110.104 259.816 115.459C259.555 116.023 259.243 116.561 258.883 117.067Z" fill="#D5B0CD"/>
<path d="M299.817 120.903C300.04 120.604 300.327 120.36 300.657 120.187C300.986 120.014 301.349 119.917 301.721 119.904C301.497 120.202 301.21 120.447 300.881 120.62C300.551 120.793 300.188 120.889 299.817 120.903Z" fill="#D8B6D1"/>
<path d="M249.364 127.616C248.709 130.069 248.375 132.598 248.373 135.138C248.095 142.311 247.232 149.423 243.851 155.897C242.602 158.284 242.721 160.831 242.413 163.329C242.367 164.139 242.56 164.946 242.968 165.646C243.375 166.346 243.979 166.909 244.704 167.265C246.72 168.518 248.848 169.578 251.06 170.432C253.271 171.231 255.076 170.621 256.91 168.683C263.852 161.301 271.12 154.188 278.25 146.956C279.352 145.813 280.657 144.887 282.097 144.229C286.619 142.231 290.238 138.884 294.165 135.967C298.092 133.05 300.273 128.745 303.258 125.149C303.472 124.712 303.597 124.236 303.625 123.75C305.608 122.671 307.512 121.752 309.911 122.621C310.966 123.013 312.131 122.97 313.154 122.501C316.208 120.613 319.629 121.682 322.792 120.933C323.263 120.867 323.74 120.867 324.21 120.933C326.461 121.053 328.177 122.002 328.97 124.23C329.617 126.188 330.535 128.044 331.697 129.744C333.799 132.741 333.462 135.738 331.231 138.545C329.852 140.283 328.524 142.071 327.076 143.739C326.153 144.831 325.377 146.04 324.766 147.335C323.427 150.043 321.989 152.71 320.799 155.477C319.534 158.246 317.559 160.625 315.078 162.37C313.061 163.895 311.155 165.564 309.376 167.365C302.943 173.574 294.808 177.694 286.024 179.192C284.295 179.386 282.555 179.439 280.818 179.352C276.449 180.506 271.859 180.506 267.491 179.352H265.547C263.391 178.584 261.039 178.584 258.884 179.352H256.98C256.692 179.702 256.305 179.952 255.988 180.351C255.078 180.251 254.211 179.906 253.479 179.352C252.281 178.381 250.846 177.75 249.325 177.524C245.933 177.105 244.297 173.958 241.055 171.87C241.759 178.863 244.872 185.396 240.42 191.49C237.108 194.616 233.479 196.145 229.036 193.927C228.725 193.456 228.552 192.906 228.538 192.34C228.524 191.775 228.669 191.216 228.957 190.73C231.565 186.735 231.258 182.229 231.188 177.744C231.059 167.764 233.043 158.714 239.795 150.722C243.762 146.037 243.643 139.454 244.664 133.5C245.13 130.863 244.595 126.977 249.364 127.616Z" fill="#D3ADCB"/>
<path d="M189.412 205.295C188.42 203.487 186.645 202.608 184.969 201.849C182.843 200.791 180.8 199.569 178.861 198.193C177.696 197.368 176.48 196.617 175.222 195.945C171.434 194.077 167.616 193.198 163.323 194.546C157.81 196.275 152.029 195.735 146.327 195.675C145.534 195.711 144.742 195.575 144.006 195.276C140.605 193.587 137.135 194.486 133.783 195.146C130.372 195.872 126.84 195.8 123.46 194.936C118.81 193.913 114.254 192.49 109.846 190.68C108.702 190.106 107.417 189.877 106.147 190.021C102.858 190.399 99.5934 190.969 96.37 191.729C92.2152 192.868 87.981 193.178 83.7667 193.797C82.5173 193.987 81.2282 193.977 80.0185 194.287C73.4271 196.017 66.6296 196.821 59.8196 196.674C58.0778 196.622 56.3378 196.824 54.6533 197.274C53.2052 197.724 51.6706 197.817 50.1794 197.544C48.6882 197.271 47.2841 196.64 46.0859 195.705C44.8365 194.706 43.4879 193.877 42.1195 193.028C40.2546 191.944 38.7125 190.376 37.6539 188.487C36.5952 186.598 36.0588 184.458 36.1005 182.289C34.6428 178.943 35.0494 175.766 38.282 174.028C42.8533 171.57 47.3948 168.483 53.0866 169.692C53.7708 173.179 50.8456 173.748 48.8128 175.027C47.0279 176.145 43.8548 176.215 44.1325 179.023C44.3306 180.454 44.9249 181.801 45.8473 182.909C46.7697 184.017 47.983 184.84 49.3483 185.286C53.4982 186.886 57.8867 187.767 62.3283 187.893C77.0437 188.263 91.6896 187.693 105.959 183.488C113.655 181.031 121.904 180.947 129.648 183.248C136.857 185.396 143.838 189.402 151.85 188.593C155.618 188.213 159.446 188.053 162.976 186.685C167.934 184.737 172.426 185.686 177.017 188.013C180.854 190.011 184.097 192.778 187.686 195.066C191.405 198.972 195.411 202.588 199.179 206.434C200.438 207.713 202.451 208.672 201.698 211.089C200.139 210.802 198.669 210.152 197.404 209.191C194.981 207.441 192.278 206.124 189.412 205.295Z" fill="#D4ADCD"/>
<path d="M201.767 211.049C198.029 207.443 194.281 203.867 190.582 200.23C189.461 199.132 188.519 197.863 187.488 196.664C188.619 194.866 190.622 195.246 192.258 194.666C198.346 196.195 204.583 197.253 210.344 199.931C215.461 201.06 219.467 198.512 223.543 196.015C225.328 194.926 226.765 192.748 229.373 193.737C231.228 193.397 233.042 192.878 234.946 192.648C236.946 192.234 238.905 191.635 240.797 190.86C240.915 190.911 241.01 191.005 241.064 191.123C241.117 191.242 241.124 191.376 241.084 191.499C241.068 191.574 241.034 191.642 240.983 191.698C240.933 191.754 240.868 191.796 240.797 191.819C239.369 196.974 236.116 200.7 231.793 203.607C231.251 203.932 230.759 204.336 230.335 204.806C228.579 206.864 226.257 208.352 223.662 209.081C223.374 209.431 222.987 209.681 222.67 210.08C218.352 211.63 213.773 212.309 209.194 212.078C206.684 212.067 204.187 211.721 201.767 211.049Z" fill="#D2ADCB"/>
<path d="M240.797 191.869V190.87C240.866 188.662 240.549 186.425 241.213 184.257C241.408 183.165 241.309 182.04 240.926 181C240.361 178.373 239.756 175.756 239.24 173.129C239.071 172.2 238.998 171.256 239.022 170.311C239.008 169.993 239.085 169.678 239.243 169.402C239.401 169.126 239.634 168.901 239.914 168.753C240.203 168.623 240.526 168.597 240.831 168.679C241.136 168.761 241.404 168.946 241.59 169.203C244.218 171.92 247.173 174.317 249.364 177.444C246.955 179.442 246.033 182.349 244.882 185.016C243.92 187.519 242.538 189.837 240.797 191.869Z" fill="#D4ACCE"/>
<path d="M267.451 179.402C267.813 179.123 268.239 178.941 268.69 178.873C272.657 179.872 276.752 179.232 280.778 179.402C278.408 180.651 275.988 181.68 273.232 180.89C272.313 180.714 271.364 180.776 270.475 181.07C269.018 181.38 268.115 180.591 267.451 179.402Z" fill="#D4ACCE"/>
<path d="M258.883 179.402C259.853 178.697 261.019 178.317 262.215 178.317C263.411 178.317 264.577 178.697 265.547 179.402H258.883Z" fill="#D4ACCE"/>
<path d="M53.2648 169.812C51.7438 170.197 50.2443 170.664 48.7729 171.211C46.9476 172.141 44.9464 172.669 42.9026 172.759C41.4726 172.825 40.1037 173.362 39.0056 174.287C37.1216 175.666 35.9019 177.404 36.1201 179.902C36.1895 180.691 36.1201 181.49 36.1201 182.279L34.2162 179.402C34.2162 175.406 37.3992 173.758 39.9972 171.78C41.1673 170.951 42.473 170.336 43.8545 169.962C46.1641 169.295 48.2313 167.966 49.8041 166.136C51.5283 164.257 53.6221 162.76 55.9521 161.741C58.5421 160.537 61.0469 159.155 63.4486 157.605C64.6031 156.773 65.9113 156.183 67.2959 155.869C68.6805 155.555 70.1134 155.524 71.5103 155.777C76.1609 156.586 80.9106 155.777 85.5513 154.948C91.6695 153.949 97.51 154.208 103.013 157.415C104.546 158.219 105.897 159.335 106.98 160.692C109.617 164.198 112.186 164.817 116.122 162.879C120.961 160.502 125.701 157.885 130.431 155.337C131.496 154.652 132.474 153.84 133.346 152.92C134.529 151.629 135.86 150.485 137.313 149.513C138.373 148.814 139.273 147.895 139.951 146.816C142.195 143.53 145.278 140.914 148.875 139.244C152.185 137.719 155.237 135.679 157.918 133.2C160.635 130.783 163.352 128.345 166.129 125.988C169.808 122.871 174.161 120.933 178.405 118.795C184.906 115.504 190.315 110.377 193.973 104.04C195.822 100.694 198.349 97.7774 201.39 95.4794C204.735 93.083 207.876 90.4098 210.781 87.4877C214.896 83.2421 219.864 80.0554 224.98 77.1784C227.226 76.0118 229.277 74.4984 231.059 72.6931C233.519 70.2078 236.516 68.3276 239.815 67.1988L246.478 65.2808C247.271 67.7682 245.397 68.6173 243.85 69.7062C231.177 78.6626 219.017 88.3347 207.429 98.6761C205.027 100.996 203.018 103.695 201.479 106.668C195.064 117.756 186.833 126.697 173.913 129.994C173.277 130.053 172.675 130.307 172.187 130.723C165.861 138.425 156.481 141.861 148.925 147.785C144.095 151.571 139.742 156.096 135.191 160.312C128.696 166.306 120.466 169.522 112.553 173.039C108.378 174.897 103.479 172.33 101.258 167.455C99.3445 163.269 96.5184 161.86 92.2546 162.09C84.7878 162.5 77.3805 161.001 69.9634 160.891C67.881 160.082 65.997 160.122 64.3807 161.96C64.1221 162.247 63.8365 162.508 63.5279 162.739C63.1037 163.072 62.66 163.379 62.1992 163.659C61.9612 163.898 61.7033 164.118 61.4455 164.338C61.1877 164.558 60.9993 164.837 60.7712 165.087C60.5432 165.337 60.563 165.347 60.4639 165.487C60.2713 165.777 60.0593 166.054 59.8292 166.316C59.5022 166.729 59.137 167.111 58.7385 167.455C58.3497 167.805 57.9279 168.116 57.4791 168.384C57.2165 168.604 56.9381 168.804 56.6462 168.983C56.3668 169.186 56.0717 169.367 55.7637 169.522C55.4507 169.694 55.1175 169.825 54.7721 169.912C54.4443 169.974 54.1082 169.974 53.7805 169.912L53.2648 169.812Z" fill="#D4ACCF"/>
<path d="M229.373 193.787C226.718 195.991 223.904 197.995 220.955 199.781C218.466 201.369 215.66 201.709 212.913 202.298C212.443 202.388 211.959 202.353 211.507 202.197C211.055 202.041 210.651 201.77 210.335 201.409C209.155 199.341 206.973 198.602 205.158 197.354C200.052 193.837 194.717 190.68 189.501 187.364C182.659 182.958 174.459 182.669 166.813 180.731C165.326 180.351 164.116 181.47 162.797 181.97C153.476 185.496 144.72 184.517 136.688 178.473C132.078 175.007 131.73 171.321 136.341 167.994C141.974 163.928 146.257 158.814 150.66 153.509C154.746 148.844 159.466 144.784 164.681 141.452C167.815 139.334 171.365 139.454 174.796 139.454C183.204 139.454 191.484 140.043 195.778 149.244C196.504 150.492 197.362 151.657 198.336 152.72C202.362 157.954 207.628 159.353 213.805 156.876C215.263 156.217 216.414 155.019 217.018 153.529C218.713 150.265 219.559 146.622 219.477 142.94C219.358 137.526 217.266 134.948 212.06 134.339C205.049 133.57 204.127 132.541 204.692 125.638C205.129 120.344 205.922 115.149 209.462 110.833C210.428 109.746 210.989 108.355 211.049 106.898C211.049 100.105 215.074 95.9988 220.489 93.0319C223.761 91.2438 226.061 88.2868 228.947 86.259C234.926 82.0333 239.25 76.0995 244.941 71.6242C253.757 69.9559 258.616 73.9118 257.713 82.0134C255.175 84.4908 254.253 82.0733 253.122 80.425C252.349 79.2862 251.883 77.6479 250.118 77.7977C248.353 77.9476 247.678 79.5959 247.143 81.1143C244.495 88.167 240.578 94.1008 233.707 97.797C230.048 99.7949 228.808 103.221 229.562 107.157C230.801 113.591 231.039 120.144 231.823 126.597C232.259 130.213 231.327 133.54 230.623 136.966C230.315 138.465 229.78 140.513 231.426 141.322C233.072 142.131 233.816 140.173 234.738 139.204C240.688 132.96 242.998 124.599 246.776 117.127C250.961 108.532 253.826 99.3468 255.274 89.8852C255.681 87.4877 255.581 84.6706 258.249 83.1921C262.671 84.6906 261.977 88.5166 261.283 91.5035C258.487 103.491 255.333 115.359 250.375 126.657L249.384 127.656C248.992 127.714 248.621 127.871 248.306 128.112C247.99 128.353 247.74 128.67 247.579 129.035C246.95 130.498 246.593 132.066 246.528 133.66C246.419 138.655 244.951 143.37 243.752 148.155C242.958 151.301 240.618 153.309 238.655 155.527C237.247 157.125 235.898 158.524 235.918 160.811C235.87 161.45 235.695 162.072 235.402 162.64C233.33 167.445 232.933 172.479 233.191 177.624C233.3 179.692 233.191 181.77 233.191 183.848C233.308 185.115 233.159 186.393 232.752 187.598C232.345 188.803 231.691 189.908 230.831 190.84C230.011 191.615 229.494 192.661 229.373 193.787Z" fill="#CFA8CA"/>
<path d="M250.316 126.657C250.257 124.659 251.11 122.951 251.665 121.143C253.192 116.148 255.195 111.293 256.316 106.158C257.386 101.163 258.576 96.2885 259.548 91.3237C259.786 89.5997 259.846 87.8555 259.727 86.1191C259.689 85.5604 259.503 85.0222 259.187 84.5615C258.871 84.1008 258.437 83.7346 257.932 83.5018C257.066 83.7349 256.735 83.4019 256.94 82.5029C256.905 80.92 256.533 79.3631 255.849 77.9376C254.521 74.5411 252.369 72.3434 248.343 72.9428C247.082 73.0335 245.816 73.0335 244.555 72.9428C244.099 72.8453 243.69 72.5943 243.394 72.2312C243.099 71.8681 242.934 71.4144 242.929 70.9449C243.712 68.0579 246.975 67.5584 248.363 65.2508C248.938 65.001 249.513 64.7013 250.108 64.5016C254.412 63.0131 256.861 64.0221 258.695 68.3476C259.761 70.4984 260.561 72.7731 261.075 75.1205C261.432 77.3082 262.136 79.436 262.691 81.5938C262.691 83.6616 262.563 85.7395 263.277 87.7474C263.705 88.9624 263.726 90.2854 263.336 91.5135C262.087 95.5992 261.016 99.7749 259.568 103.771C257.585 109.155 256.355 114.759 253.965 120.004C252.875 122.311 252.101 124.749 250.316 126.657Z" fill="#D2ABCA"/>
<path d="M248.412 65.2808C248.33 66.0424 248.06 66.7713 247.627 67.4011C247.194 68.031 246.612 68.5417 245.933 68.887C244.983 69.3666 244.193 70.1169 243.662 71.0448C242.79 74.2115 239.478 74.8009 237.554 76.7988C231.604 83.0623 224.852 88.3168 218.109 93.6413C212.968 97.6529 208.882 102.873 206.21 108.845C202.917 116.068 197.285 121.982 191.891 127.826C189.035 130.913 184.533 131.412 180.458 132.051C177.949 132.441 175.896 132.701 175.926 136.137C175.95 136.672 175.856 137.205 175.65 137.698C175.445 138.191 175.133 138.632 174.737 138.989C174.341 139.346 173.871 139.609 173.362 139.761C172.852 139.912 172.316 139.947 171.791 139.863C166.288 138.565 163.353 142.491 159.743 145.088C151.433 151.188 143.677 158.021 136.569 165.507C134.586 167.594 131.859 168.733 129.182 169.762C126.049 170.971 126.406 172.759 128.29 174.757C129.275 175.804 130.424 176.682 131.691 177.354C135.994 179.702 140.387 181.91 144.72 184.157C150.025 186.904 156.154 185.316 161.419 183.468C167.22 181.47 172.237 182.199 177.463 184.547C182.688 186.864 187.497 190.037 191.693 193.937C191.904 194.178 192.063 194.46 192.161 194.766C192.258 195.072 192.291 195.396 192.258 195.715C190.879 197.094 189.124 196.554 187.498 196.714C186.083 195.975 184.733 195.116 183.462 194.147C180.642 192.089 177.702 190.204 174.657 188.503C173.277 187.695 171.74 187.198 170.152 187.046C168.563 186.894 166.96 187.091 165.455 187.624C159.228 189.901 152.772 190.121 146.247 189.971C144.493 190.06 142.775 189.446 141.468 188.263C141.067 187.873 140.591 187.569 140.069 187.37C139.547 187.17 138.991 187.08 138.434 187.104C134.061 187.224 130.015 185.835 125.959 184.447C124.908 184.087 123.827 183.808 122.806 183.378C121.808 182.888 120.715 182.625 119.605 182.606C118.495 182.587 117.395 182.813 116.38 183.268C115.537 183.719 114.607 183.981 113.654 184.037C110.401 183.967 107.406 184.986 104.402 186.035C100.029 187.504 95.4775 188.033 90.9756 188.852C89.7193 189.008 88.4528 189.065 87.1877 189.022C84.3402 188.925 81.4911 189.167 78.6996 189.741C76.8209 190.039 74.9146 190.12 73.0178 189.981C70.3206 189.981 67.6235 189.981 64.9362 189.981C59.5561 189.859 54.2179 188.996 49.0706 187.414C44.539 186.165 42.8929 182.259 41.1874 178.483C41.0256 178.022 41.0372 177.518 41.2199 177.065C41.4027 176.612 41.7439 176.242 42.179 176.026C43.7953 175.018 45.5139 174.188 47.3056 173.548C49.4871 172.689 51.8868 172.08 53.2552 169.832C53.7708 169.273 54.6533 169.443 55.159 168.833L56.1506 167.834C56.6663 167.265 57.5389 167.445 58.0545 166.835L59.0461 164.917C59.3932 164.628 59.6708 164.268 60.0377 163.918L61.0293 162.919C61.535 162.35 62.4275 162.53 62.9332 161.92C64.5892 159.633 66.9591 159.033 69.5967 159.043C74.0193 159.173 78.4121 158.963 82.8544 159.793C86.3845 160.452 90.1229 159.982 93.762 160.002C95.3465 159.95 96.9292 160.149 98.4523 160.592C99.2244 160.779 99.9353 161.165 100.516 161.711C101.096 162.257 101.526 162.945 101.764 163.708C102.002 164.468 102.329 165.207 102.558 165.966C103.549 169.263 106.286 170.541 109.132 171.68C110.214 172.002 111.378 171.883 112.374 171.351C115.046 170.336 117.592 169.012 119.96 167.405C122.439 165.696 124.849 163.878 128.012 163.489C129.277 163.247 130.423 162.582 131.264 161.601C135.027 157.72 138.999 154.051 143.164 150.612C144.351 149.552 145.437 148.381 146.406 147.116C147.041 146.191 147.935 145.478 148.974 145.068C153.794 143.549 157.353 140.013 161.28 137.076C162.738 135.997 163.938 134.888 165.911 135.338C166.313 135.381 166.718 135.292 167.066 135.085C167.414 134.878 167.687 134.564 167.845 134.189C168.293 133.347 168.677 132.472 168.995 131.572C169.235 130.8 169.685 130.11 170.292 129.581C170.9 129.051 171.642 128.703 172.436 128.575C177.532 127.936 181.41 124.689 185.783 122.511C188.083 121.362 189.67 119.225 191.375 117.367C194.3 114.21 197.345 110.764 199.407 106.548C200.489 104.416 201.691 102.348 203.007 100.354C203.542 99.5555 204.213 98.8588 204.99 98.2965C209.084 95.293 212.94 91.973 216.522 88.3668C218.971 85.8394 222.085 84.1512 225.09 82.373C226.892 81.3686 228.534 80.0955 229.958 78.5969C233.144 75.0471 236.911 72.0738 241.094 69.8061C243.137 68.7172 245.378 67.5984 246.508 65.2908H248.412V65.2808Z" fill="#D3ABCD"/>
<path d="M276.673 174.697C273.976 174.267 271.001 173.878 268.075 173.288C266.42 172.959 265.725 171.93 265.577 170.232C265.353 168.556 265.558 166.85 266.172 165.277C266.786 163.703 267.79 162.314 269.087 161.241C273.252 157.994 276.692 154.048 280.461 150.442C281.851 149.152 283.366 148.004 284.982 147.016C289.266 144.289 293.302 141.232 296.197 136.906C296.812 135.987 297.635 135.218 298.339 134.369C299.082 133.329 300.089 132.509 301.254 131.996C302.42 131.483 303.701 131.295 304.963 131.452C306.06 131.609 307.179 131.511 308.233 131.165C309.287 130.818 310.247 130.233 311.042 129.454C312.155 128.556 313.408 127.851 314.75 127.366C316.892 126.437 323.922 127.796 325.549 129.364C326.071 129.854 326.448 130.481 326.635 131.175C326.822 131.868 326.814 132.601 326.61 133.29C326.361 134.303 325.912 135.254 325.288 136.087C324.664 136.92 323.879 137.617 322.98 138.135C318.776 140.732 316.337 144.828 313.521 148.664C311.754 151.299 309.827 153.822 307.749 156.216C305.476 158.631 302.964 160.807 300.253 162.709C295.463 166.066 290.872 169.702 285.577 172.349C282.783 173.693 279.762 174.49 276.673 174.697Z" fill="#CFA7C9"/>
<path d="M192.248 195.675C189.085 193.567 185.882 191.52 182.778 189.332C178.544 186.335 173.695 184.926 168.826 183.508C168.217 183.331 167.577 183.292 166.951 183.394C166.325 183.496 165.73 183.736 165.207 184.097C162.995 185.347 160.522 186.052 157.988 186.155C154.696 186.465 151.453 187.264 148.072 187.054C145.305 186.884 142.717 186.495 140.972 183.967C139.981 182.549 138.374 182.189 136.877 181.73C134.026 180.756 131.312 179.413 128.805 177.734C126.653 176.385 125.434 174.407 124.214 172.369C124.038 172.098 123.925 171.79 123.884 171.468C123.842 171.147 123.874 170.82 123.976 170.512C124.078 170.205 124.248 169.924 124.473 169.692C124.698 169.46 124.972 169.283 125.275 169.173C126.574 168.603 127.962 168.174 129.301 167.724C132.007 166.793 134.459 165.236 136.46 163.179C139.852 159.603 143.402 156.186 146.862 152.67C147.673 151.689 148.618 150.828 149.669 150.113C153.685 147.915 157.398 145.199 160.715 142.031C161.707 141.032 162.986 140.273 163.948 139.244C165.544 137.536 167.2 136.746 169.382 138.125C169.986 138.516 170.695 138.711 171.413 138.684C172.131 138.657 172.823 138.41 173.398 137.975C173.905 137.75 174.306 137.337 174.519 136.822C174.731 136.307 174.738 135.728 174.538 135.208C173.398 130.873 173.497 130.713 177.889 130.503C181.842 130.234 185.716 129.264 189.333 127.636C190.799 127.025 192.031 125.953 192.843 124.579C195.689 120.179 198.889 116.023 202.412 112.152C203.555 111.054 204.399 109.678 204.861 108.156C206.448 101.163 211.584 96.7879 216.621 92.4025C221.282 88.3567 226.746 85.3099 230.9 80.6147C232.556 78.7467 234.867 77.5579 236.275 75.2903C236.894 74.5609 237.68 73.9951 238.566 73.642C240.231 72.7329 241.957 71.9038 243.652 71.0447L244.644 72.9627C242.929 75.4401 240.678 77.518 239.398 80.315C239.004 81.1092 238.447 81.8096 237.763 82.3694C237.079 82.9293 236.284 83.3357 235.432 83.5617C232.832 84.3756 230.629 86.1394 229.254 88.5065C227.607 91.085 225.17 93.0524 222.313 94.1107C219.685 95.2498 217.336 96.9546 215.431 99.1055C214.501 99.9915 213.793 101.088 213.365 102.303C212.938 103.519 212.803 104.82 212.972 106.098C213.093 107.113 213 108.142 212.7 109.118C212.399 110.094 211.897 110.995 211.227 111.762C210.235 113.031 209.313 114.3 208.451 115.638C208.007 116.293 207.706 117.036 207.568 117.816C207 121.912 206.487 126.014 206.031 130.123C206.002 130.363 206.022 130.606 206.089 130.838C206.156 131.07 206.269 131.285 206.421 131.472C206.573 131.659 206.761 131.813 206.973 131.924C207.186 132.036 207.418 132.103 207.657 132.121C209.389 132.318 211.131 132.398 212.873 132.361C218.585 132.361 220.518 136.726 221.54 140.353C221.624 141.151 221.557 141.958 221.341 142.73C221.135 143.327 221.04 143.957 221.064 144.588C222.531 149.363 218.862 152.66 217.643 156.636C217.157 158.204 215.362 158.883 213.756 159.053C210.781 159.373 207.806 159.423 204.831 159.972C202.491 160.402 200.518 158.813 199.189 156.975C196.67 153.509 193.626 150.392 191.722 146.516C191.17 145.358 190.334 144.361 189.293 143.618C188.252 142.875 187.041 142.412 185.773 142.271C182.352 141.701 178.831 141.462 175.44 141.002C169.788 140.233 165.197 142.54 161.131 146.087C158.504 148.374 156.173 151.012 153.288 153.02C151.981 153.948 150.93 155.196 150.234 156.646C147.967 161.044 144.535 164.723 140.318 167.275C138.706 168.283 137.183 169.43 135.766 170.701C133.902 172.419 133.942 174.048 135.766 175.556C139.88 179.108 144.918 181.399 150.283 182.159C152.017 182.394 153.778 182.327 155.489 181.959C156.716 181.66 157.962 181.443 159.218 181.31C160.482 181.282 161.695 180.8 162.639 179.952C163.327 179.284 164.183 178.82 165.115 178.608C166.047 178.397 167.018 178.447 167.924 178.753C173.457 180.111 179.01 181.37 184.533 182.749C186.091 183.063 187.575 183.673 188.906 184.547C194.856 189.032 201.499 192.538 207.647 196.724C209.353 197.893 210.454 199.271 210.325 201.429L204.544 199.631C203.555 199.173 202.501 198.873 201.42 198.742C197.95 198.902 195.173 197.124 192.248 195.675Z" fill="#D1A9CC"/>
<path d="M69.4282 159.263L62.7646 162.14C65.0056 158.514 65.908 158.124 69.4282 159.263Z" fill="#D4ADCD"/>
<path d="M62.7845 162.14C62.5607 162.439 62.2738 162.683 61.9444 162.856C61.6151 163.029 61.2517 163.126 60.8806 163.139C61.1048 162.841 61.3919 162.597 61.7211 162.424C62.0503 162.251 62.4135 162.154 62.7845 162.14Z" fill="#D4ADCD"/>
<path d="M55.1693 168.853C54.9456 169.152 54.6586 169.396 54.3293 169.569C53.9999 169.742 53.6365 169.838 53.2654 169.852C53.4891 169.553 53.7761 169.309 54.1054 169.136C54.4348 168.963 54.7982 168.867 55.1693 168.853Z" fill="#D4ADCD"/>
<path d="M58.0248 166.935C57.8011 167.234 57.5141 167.478 57.1847 167.651C56.8554 167.824 56.492 167.92 56.1209 167.934C56.3451 167.636 56.6322 167.392 56.9614 167.219C57.2907 167.046 57.6538 166.949 58.0248 166.935Z" fill="#D4ADCD"/>
<path d="M256.979 82.5427L257.971 83.5416C258.001 85.293 257.815 87.0414 257.416 88.7462C256.702 91.6732 256.335 94.6901 255.66 97.627C253.333 107.374 249.686 116.752 244.822 125.498C244.016 127.05 243.301 128.647 242.68 130.283C241.193 133.999 239.507 137.556 236.433 140.273C235.463 141.313 234.559 142.414 233.726 143.569C232.07 145.467 229.661 145.048 228.927 142.67C228.132 140.223 228.174 137.578 229.046 135.158C230.236 131.931 230.831 128.745 229.621 125.368C229.379 124.44 229.319 123.473 229.442 122.521C229.69 118.026 228.768 113.66 227.925 109.295C227.672 107.726 227.533 106.14 227.509 104.55C227.35 101.193 228.986 98.8058 231.475 96.8678C231.95 96.4397 232.476 96.0738 233.042 95.7789C240.092 92.782 243.315 86.6384 245.487 79.7955C245.747 78.8026 246.235 77.8847 246.909 77.1147C247.584 76.3447 248.428 75.7439 249.374 75.3601C250.02 75.031 250.764 74.9509 251.465 75.1348C252.166 75.3187 252.776 75.7541 253.181 76.3591C254.227 77.5729 254.914 79.0575 255.165 80.6446C255.218 81.1179 255.425 81.5603 255.753 81.9033C256.081 82.2464 256.512 82.4711 256.979 82.5427Z" fill="#CEA6C8"/>
<path d="M181.3 172.699C177.195 172.619 172.376 173.049 167.755 171.77C167.309 171.65 166.763 171.77 166.337 171.65C159.584 170.322 158.077 167.464 160.794 160.662C161.944 157.765 164.185 155.297 166.04 152.67C166.575 151.868 167.329 151.24 168.211 150.862C171.345 149.723 174.538 148.724 177.711 147.925C178.349 147.812 179.006 147.903 179.589 148.186C180.173 148.47 180.653 148.93 180.963 149.503C184.83 155.147 188.836 160.712 192.426 166.486C195.401 171.291 194.518 172.599 189.064 172.649C186.695 172.699 184.315 172.699 181.3 172.699Z" fill="#CDA6C6"/>
<path d="M72.3234 186.095C68.7536 186.285 65.6796 185.366 62.5958 184.786C59.0657 184.117 56.4578 181.61 54.2465 178.793C54.0385 178.55 53.9241 178.239 53.9241 177.919C53.9241 177.598 54.0385 177.288 54.2465 177.045C55.6732 175.331 57.4665 173.965 59.4921 173.049C62.0428 171.755 64.3116 169.962 66.1655 167.774C68.3867 165.037 71.0541 164.577 74.257 165.516C75.471 165.885 76.7394 166.037 78.0052 165.966C81.694 165.706 85.1844 167.055 88.8236 167.155C89.1833 167.165 89.5363 167.255 89.8571 167.419C90.178 167.583 90.4586 167.817 90.6787 168.104C90.8988 168.391 91.053 168.723 91.13 169.077C91.207 169.432 91.205 169.798 91.1241 170.152C90.1325 174.347 89.0021 178.533 84.7878 180.881C82.5765 182.109 80.4743 183.538 78.3424 184.876C76.5165 185.919 74.4074 186.346 72.3234 186.095Z" fill="#CFA8C9"/>
</svg>
